<?xml version="1.0" encoding="UTF-8" standalone="no"?>
<!DOCTYPE svg PUBLIC "-//W3C//DTD SVG 1.1//EN" "http://www.w3.org/Graphics/SVG/1.1/DTD/svg11.dtd">
<svg width="100%" height="100%" viewBox="0 0 2732 2048" version="1.1" xmlns="http://www.w3.org/2000/svg" xmlns:xlink="http://www.w3.org/1999/xlink" xml:space="preserve" xmlns:serif="http://www.serif.com/" style="fill-rule:evenodd;clip-rule:evenodd;stroke-linejoin:round;stroke-miterlimit:2;">
    <g id="BOTTLE" transform="matrix(1.10592,0,0,1.10592,107.046,-233.333)">
        <path d="M361.458,1631.5L361.458,1242.49C361.458,1223.77 376.632,1208.59 395.35,1208.59L395.351,1208.59L395.351,1135.81C395.351,1122.61 400.595,1109.95 409.929,1100.62C418.141,1092.41 428.926,1087.36 440.388,1086.27L440.388,1086.04L517.446,1086.04L517.446,1086.27C528.908,1087.36 539.693,1092.41 547.905,1100.62C557.239,1109.95 562.483,1122.61 562.483,1135.81L562.483,1208.59L562.484,1208.59C581.202,1208.59 596.376,1223.77 596.376,1242.49L596.376,1631.5L361.458,1631.5Z" style="fill:rgb(255,210,116);"/>
        <g transform="matrix(0.628924,0,0,0.919064,182.339,97.3564)">
            <rect x="338.693" y="1190.53" width="265.743" height="18.447" style="fill:white;"/>
        </g>
        <g transform="matrix(0.904222,0,0,0.904222,63.223,118.101)">
            <path d="M498.364,1673.7C495.801,1651.82 490.817,1628.97 481.917,1609.7C471.352,1586.83 455.211,1569.02 430.316,1565.32C430.294,1568.08 430.144,1570.88 429.86,1573.73C428.498,1587.42 424.233,1604.42 413.31,1613.86C407.333,1619.02 401.451,1620.75 396.223,1620.4C388.341,1619.88 381.47,1614.48 377.385,1606.52C371.177,1594.43 371.658,1576.77 383.579,1566.16C392.809,1557.94 405.079,1553.68 417.419,1552.85C410.96,1511.9 370.905,1485.91 329.826,1480.96L329.826,1468.95C377.047,1474.29 423.176,1505.22 429.568,1553.12L430.147,1553.19C460.302,1556.87 480.206,1577.38 492.811,1604.67C502.407,1625.45 507.72,1650.18 510.389,1673.7L498.364,1673.7ZM418.319,1564.8C408.557,1565.41 398.845,1568.63 391.558,1575.12C383.922,1581.92 384.084,1593.3 388.06,1601.04C390.087,1604.99 393.102,1608.17 397.011,1608.43C399.642,1608.6 402.457,1607.38 405.465,1604.78C414.162,1597.26 416.834,1583.44 417.919,1572.54C418.181,1569.91 418.313,1567.33 418.319,1564.8ZM589.626,1264.76L589.626,1277.11C587.402,1277.71 585.539,1278.26 584.745,1278.42C544.014,1286.84 500.719,1320.42 505.851,1366.02C512.581,1362.01 520.338,1359.14 527.624,1358.21C537.802,1356.91 546.919,1359.42 552.11,1366.13C555.536,1370.57 557.49,1377.05 556.35,1386.16C554.875,1397.97 549.695,1404.09 543.58,1406.72C537.562,1409.3 529.994,1408.51 522.5,1404.95C514.35,1401.07 506.341,1393.95 500.932,1386.09C500.744,1386.39 500.568,1386.69 500.403,1387C482.495,1420.16 490.12,1458.84 511.381,1485.63C529.692,1508.69 558.264,1522.96 589.626,1516.96L589.626,1529.17C554.495,1535.05 522.562,1519.01 501.982,1493.09C477.891,1462.74 469.552,1418.87 489.845,1381.3C491.148,1378.88 492.956,1376.53 495.141,1374.29C494.856,1373.29 494.631,1372.29 494.471,1371.31C485.692,1317.51 534.846,1276.49 582.315,1266.67C583.397,1266.44 586.379,1265.57 589.626,1264.76ZM509.534,1377.64C513.579,1384.43 520.654,1390.78 527.651,1394.11C531.656,1396.01 535.628,1397.07 538.843,1395.69C541.966,1394.35 543.689,1390.7 544.443,1384.68C545.074,1379.62 544.515,1375.93 542.615,1373.47C539.815,1369.85 534.634,1369.41 529.143,1370.11C522.525,1370.96 515.287,1373.76 509.534,1377.64ZM329.826,1340.04C362.285,1328.62 390.623,1306.53 405.57,1274.34C412.986,1258.36 417.155,1240.89 417.517,1223.27C417.636,1217.42 417.612,1211.4 416.652,1205.61L428.79,1205.64C429.584,1211.54 429.635,1217.61 429.514,1223.51C429.119,1242.79 424.568,1261.91 416.454,1279.39C399.514,1315.88 366.918,1340.66 329.826,1352.69L329.826,1340.04ZM552.133,1129.95C541.315,1141.81 527.151,1151.48 512.499,1156.76C495.937,1162.73 478.849,1163.08 465.12,1155.52C460.054,1152.73 455.406,1148.87 451.406,1143.76C418.571,1149.91 389.295,1125.33 378.101,1098.54C377.592,1097.33 377.121,1096.1 376.689,1094.88C379.591,1090.88 382.896,1087.03 385.832,1084.33C386.531,1087.44 387.867,1090.79 389.173,1093.91C397.89,1114.77 419.483,1134.68 444.659,1132.58C444.025,1131.21 443.427,1129.78 442.864,1128.3C441.238,1124.02 441.231,1118.31 442.786,1112.34C444.858,1104.38 449.622,1095.93 455.431,1090.47C463.48,1082.9 473.26,1080.7 481.948,1088.42C490.031,1095.61 490.162,1105.98 485.011,1116.21C480.517,1125.14 471.877,1133.78 463.152,1139C465.511,1141.48 468.111,1143.47 470.908,1145.01C481.777,1150.99 495.317,1150.2 508.431,1145.47C524.968,1139.51 540.959,1127.24 550.636,1112.67C551.851,1117.7 552.2,1123.5 552.133,1129.95ZM456.376,1129.25C463.424,1125.36 470.616,1118.12 474.293,1110.81C476.767,1105.9 477.858,1100.84 473.975,1097.39C470.551,1094.34 466.824,1096.23 463.651,1099.21C459.371,1103.24 455.925,1109.5 454.398,1115.36C453.553,1118.61 453.197,1121.71 454.082,1124.04C454.784,1125.89 455.55,1127.62 456.376,1129.25Z" style="fill:white;"/>
        </g>
    </g>
    <g id="PLANT" transform="matrix(1,0,0,1,216.133,-117.568)">
        <g id="VASE" transform="matrix(1.02836,0,0,1.02836,-38.0093,-47.293)">
            <g transform="matrix(0.972423,0,0,0.972423,36.9611,45.9889)">
                <path d="M1502.78,1609.05C1503.69,1575.12 1531.9,1547.8 1566.56,1547.8C1601.23,1547.8 1629.43,1575.12 1630.34,1609.05L1618.34,1609.05C1617.43,1581.69 1594.55,1559.8 1566.56,1559.8C1538.57,1559.8 1515.69,1581.69 1514.79,1609.05L1502.78,1609.05ZM1706.63,1557.65C1697.06,1563.31 1685.86,1566.56 1673.89,1566.56C1638.65,1566.56 1610.09,1538.34 1610.09,1503.63C1610.09,1468.92 1638.65,1440.7 1673.89,1440.7C1693.51,1440.7 1711.06,1449.44 1722.77,1463.19L1719.87,1480.15C1711.22,1463.84 1693.86,1452.7 1673.89,1452.7C1645.33,1452.7 1622.09,1475.49 1622.09,1503.63C1622.09,1531.77 1645.33,1554.56 1673.89,1554.56C1687.7,1554.56 1700.26,1549.24 1709.55,1540.56L1706.63,1557.65ZM1418.76,1419.73C1430.05,1409.78 1444.93,1403.72 1461.25,1403.72C1496.49,1403.72 1525.06,1431.95 1525.06,1466.66C1525.06,1501.36 1496.49,1529.59 1461.25,1529.59C1452.29,1529.59 1443.76,1527.76 1436.02,1524.47L1433.59,1509.72C1441.6,1514.7 1451.09,1517.59 1461.25,1517.59C1489.82,1517.59 1513.06,1494.79 1513.06,1466.66C1513.06,1438.52 1489.82,1415.72 1461.25,1415.72C1445.12,1415.72 1430.68,1423 1421.18,1434.39L1418.76,1419.73ZM1731.42,1412.52C1700.78,1407.91 1677.3,1381.78 1677.3,1350.31C1677.3,1315.6 1705.86,1287.38 1741.1,1287.38C1745.03,1287.38 1748.88,1287.73 1752.62,1288.4L1750.6,1300.23C1747.52,1299.67 1744.35,1299.38 1741.1,1299.38C1712.53,1299.38 1689.3,1322.17 1689.3,1350.31C1689.3,1375.88 1708.49,1397.04 1733.44,1400.69L1731.42,1412.52ZM1390.54,1229.8C1393.02,1229.51 1395.55,1229.36 1398.11,1229.36C1433.34,1229.36 1461.91,1257.58 1461.91,1292.29C1461.91,1323.68 1438.54,1349.77 1408.01,1354.47L1406.06,1342.63C1430.86,1338.86 1449.91,1317.77 1449.91,1292.29C1449.91,1264.16 1426.67,1241.36 1398.11,1241.36C1395.17,1241.36 1392.29,1241.6 1389.49,1242.06L1388.76,1237.67C1389.32,1234.98 1389.91,1232.36 1390.54,1229.8ZM1660.42,1122.18C1665.29,1123.88 1669.92,1125.65 1674.34,1127.48C1658.26,1136.12 1647.34,1152.9 1647.34,1172.19C1647.34,1200.33 1670.58,1223.12 1699.14,1223.12C1722.42,1223.12 1742.16,1207.99 1748.67,1187.15C1751.48,1192.18 1753.67,1197.13 1755.38,1201.92C1744.62,1221.67 1723.47,1235.12 1699.14,1235.12C1663.9,1235.12 1635.34,1206.9 1635.34,1172.19C1635.34,1151.83 1645.17,1133.69 1660.42,1122.18ZM1508.62,1080.06C1543.16,1080.85 1570.91,1108.76 1570.91,1142.97C1570.91,1177.68 1542.35,1205.91 1507.11,1205.91C1472,1205.91 1443.51,1177.88 1443.31,1143.35C1447.49,1140.24 1451.71,1137.51 1455.92,1135.13C1455.52,1137.68 1455.31,1140.3 1455.31,1142.97C1455.31,1171.11 1478.54,1193.91 1507.11,1193.91C1535.68,1193.91 1558.91,1171.11 1558.91,1142.97C1558.91,1116.88 1538.93,1095.38 1513.24,1092.39L1508.62,1080.06ZM1571.25,1002.28C1570.38,1005.98 1569.92,1009.83 1569.92,1013.79C1569.92,1041.92 1593.15,1064.72 1621.72,1064.72C1632.21,1064.72 1641.98,1061.65 1650.15,1056.36L1643.37,1073C1636.6,1075.41 1629.32,1076.72 1621.72,1076.72C1586.48,1076.72 1557.92,1048.5 1557.92,1013.79C1557.92,1009.86 1558.28,1006.01 1558.98,1002.28L1571.25,1002.28ZM1672.19,1002.28L1672.19,1002.28L1672.19,1002.28L1672.19,1002.28Z" style="fill:rgb(161,190,239);"/>
            </g>
            <g transform="matrix(0.951441,0,0,0.928277,-233.868,28.1848)">
                <path d="M1894.66,1355.11C1923.56,1355.11 1947.09,1378.49 1947.09,1407.38C1947.09,1436.27 1923.56,1459.65 1894.66,1459.65C1891.28,1459.65 1888.53,1462.47 1888.53,1465.94C1888.53,1469.41 1891.28,1472.22 1894.66,1472.22C1930.41,1472.22 1959.35,1443.12 1959.35,1407.38C1959.35,1371.63 1930.41,1342.53 1894.66,1342.53C1891.28,1342.53 1888.53,1345.35 1888.53,1348.82C1888.53,1352.29 1891.28,1355.11 1894.66,1355.11Z" style="fill:rgb(161,190,239);"/>
            </g>
            <g transform="matrix(0.951441,0,0,0.928277,-233.868,28.1848)">
                <path d="M1894.66,1459.65C1865.77,1459.65 1842.23,1436.27 1842.23,1407.38C1842.23,1378.49 1865.77,1355.11 1894.66,1355.11C1898.05,1355.11 1900.79,1352.29 1900.79,1348.82C1900.79,1345.35 1898.05,1342.53 1894.66,1342.53C1858.91,1342.53 1829.97,1371.63 1829.97,1407.38C1829.97,1443.12 1858.91,1472.22 1894.66,1472.22C1898.05,1472.22 1900.79,1469.41 1900.79,1465.94C1900.79,1462.47 1898.05,1459.65 1894.66,1459.65Z" style="fill:rgb(161,190,239);"/>
            </g>
            <g transform="matrix(1,0,0,1,24.1901,-3.37064)">
                <path d="M1632.25,1029.84L1518.65,1029.84C1515.43,1029.84 1512.81,1027.22 1512.81,1024C1512.81,1020.78 1515.43,1018.17 1518.65,1018.17L1641.09,1018.17C1643.05,1018.17 1644.88,1019.15 1645.96,1020.79C1647.04,1022.42 1647.22,1024.49 1646.45,1026.29L1601.49,1131.5L1605.1,1131.5C1641.66,1131.5 1676.35,1147.62 1699.92,1175.56C1723.49,1203.5 1733.54,1240.41 1727.39,1276.44C1703.34,1417.21 1669.55,1615.02 1669.55,1615.02C1669.07,1617.82 1666.64,1619.87 1663.8,1619.87L1518.65,1619.87C1515.43,1619.87 1512.81,1617.26 1512.81,1614.04C1512.81,1610.82 1515.43,1608.2 1518.65,1608.2L1658.88,1608.2L1715.88,1274.47C1721.46,1241.83 1712.36,1208.39 1691,1183.08C1669.65,1157.77 1638.22,1143.17 1605.1,1143.17L1592.65,1143.17C1590.69,1143.17 1588.86,1142.18 1587.78,1140.55C1586.7,1138.91 1586.52,1136.84 1587.29,1135.04L1632.25,1029.84Z" style="fill:rgb(57,104,190);"/>
            </g>
            <g transform="matrix(-1,0,0,1,3110.74,-3.37064)">
                <path d="M1601.49,1131.5L1646.45,1026.29C1647.22,1024.49 1647.04,1022.42 1645.96,1020.79C1644.88,1019.15 1643.05,1018.17 1641.09,1018.17L1518.65,1018.17C1515.43,1018.17 1512.81,1020.78 1512.81,1024C1512.81,1027.22 1515.43,1029.84 1518.65,1029.84L1632.25,1029.84L1587.29,1135.04C1586.52,1136.84 1586.7,1138.91 1587.78,1140.55C1588.86,1142.18 1590.69,1143.17 1592.65,1143.17L1605.1,1143.17C1638.22,1143.17 1669.65,1157.77 1691,1183.08C1712.36,1208.39 1721.46,1241.83 1715.88,1274.47L1658.88,1608.2L1518.65,1608.2C1515.43,1608.2 1512.81,1610.82 1512.81,1614.04C1512.81,1617.26 1515.43,1619.87 1518.65,1619.87L1663.8,1619.87C1666.64,1619.87 1669.07,1617.82 1669.55,1615.02C1669.55,1615.02 1703.34,1417.21 1727.39,1276.44C1733.54,1240.41 1723.49,1203.5 1699.92,1175.56C1676.35,1147.62 1641.66,1131.5 1605.1,1131.5L1601.49,1131.5Z" style="fill:rgb(57,104,190);"/>
            </g>
        </g>
        <g>
            <path d="M1578.78,996.821C1579.18,994.787 1579.62,992.759 1580.07,990.74C1582.41,980.407 1585,970.089 1588.39,960.025C1593.86,943.768 1594.2,943.394 1598.68,931.762C1601.14,925.354 1604.12,919.158 1607.13,912.999C1644.64,836.227 1712.31,780.228 1792.41,751.976C1797.64,750.131 1839.13,738.009 1857.43,735.184C1862.15,734.455 1865.69,734.449 1867.41,734.883C1869.07,735.302 1870.19,736.083 1870.94,736.844C1872.35,738.285 1873.58,740.698 1872.21,744.087C1871.66,745.461 1869.91,747.906 1867.45,750.519C1863.26,754.978 1856.94,760.612 1856.2,761.363C1838.74,778.983 1823.81,799.04 1805.17,815.482C1787.6,830.981 1767.77,843.797 1746.77,854.133C1722.39,866.128 1674.49,882.799 1639.58,907.63C1627.39,916.303 1616.75,925.936 1609.58,936.797C1606.11,945.221 1602.99,953.796 1600.2,962.48C1600.17,962.838 1593.63,985.218 1591.78,993.389C1591.52,994.53 1591.27,995.674 1591.03,996.821L1578.78,996.821Z" style="fill:rgb(239,123,88);"/>
            <path d="M1609.58,936.797C1606.11,945.221 1638.86,849.985 1746.77,816.438C1812.94,795.867 1880.14,732.808 1870.94,736.844C1869.09,737.655 1873.58,740.698 1872.21,744.087C1871.66,745.461 1869.91,747.906 1867.45,750.519C1863.26,754.978 1856.94,760.612 1856.2,761.363C1838.74,778.983 1823.81,799.04 1805.17,815.482C1787.6,830.981 1767.77,843.797 1746.77,854.133C1722.39,866.128 1674.49,882.799 1639.58,907.63C1627.39,916.303 1616.75,925.936 1609.58,936.797Z" style="fill:rgb(242,77,70);"/>
            <g transform="matrix(1,0,0,1,22.8726,-45.5674)">
                <path d="M1708.02,1047.58C1693.1,1041.35 1634.87,1032.46 1617.93,1034.9C1614.66,1035.37 1612.69,1030.93 1613.44,1027.7C1613.8,1026.13 1614.73,1024.44 1616.92,1023.27C1618.39,1022.48 1622.18,1021.76 1627.66,1021.89C1647.9,1022.4 1698.44,1030.57 1712.64,1036.51C1752.07,1052.99 1770.92,1086.1 1787.65,1122.75C1788.01,1123.07 1788.34,1123.44 1788.63,1123.86C1800.93,1141.92 1821.54,1153.49 1843.43,1163.11C1866.54,1173.25 1891.12,1181.16 1910.03,1191.18C1923.87,1198.51 1936.92,1207.37 1948.86,1217.51C1963.85,1230.23 1977.16,1245.84 1985.43,1263.82C1988.92,1271.4 1988.01,1276.75 1985.42,1280.22C1983.71,1282.51 1981.06,1284.27 1977.41,1285.18C1973.71,1286.11 1968.66,1286.19 1962.65,1285.39C1928.77,1280.9 1859.95,1248.76 1849.13,1240.35C1812.48,1211.88 1796.17,1171.02 1779.07,1132.88C1762.98,1097.02 1746.29,1063.57 1708.02,1047.58ZM1625.05,1030.72L1625.04,1030.77L1625.05,1030.73L1625.05,1030.72Z" style="fill:rgb(239,123,88);"/>
            </g>
            <g transform="matrix(1,0,0,1,22.8726,-45.5674)">
                <path d="M1779.07,1132.88C1869.02,1288.93 1922.08,1191.44 1977.41,1285.18C1977.41,1285.18 1968.66,1286.19 1962.65,1285.39C1949.69,1283.67 1931.63,1277.91 1913.66,1270.99C1884.62,1259.79 1855.81,1245.54 1849.13,1240.35C1812.48,1211.88 1779.07,1132.88 1779.07,1132.88Z" style="fill:rgb(242,77,70);"/>
            </g>
            <path d="M1491.23,996.821C1489.71,993.213 1488.11,989.637 1486.42,986.1C1480.21,973.098 1472.68,961.108 1463.94,950.183C1463.58,949.915 1463.24,949.6 1462.94,949.24C1436.65,918.034 1406.05,916.476 1374.39,922.744C1340.34,929.486 1305.04,944.823 1271.88,946.038C1264.09,946.323 1217.19,940.424 1198.2,933.057C1193.88,931.38 1190.79,929.453 1189.16,927.694C1187.61,926.023 1186.89,924.25 1186.71,922.565C1186.58,921.324 1186.8,920.095 1187.4,918.93C1188,917.767 1189.51,916.474 1190.31,915.964C1205.18,906.425 1223.94,900.172 1240.19,893.577C1298.75,869.813 1359.07,861.106 1416.35,894.142C1451.94,914.671 1479.6,943.965 1497.25,980.928C1499.75,986.151 1502.05,991.455 1504.2,996.821L1491.23,996.821Z" style="fill:rgb(239,123,88);"/>
            <path d="M1189.16,927.694C1219.68,928.13 1237.01,933.275 1274.96,920.443C1363.03,890.66 1395.49,881.213 1412.24,920.443C1412.24,920.443 1387.26,920.198 1374.39,922.744C1340.34,929.486 1305.04,944.823 1271.88,946.038C1264.09,946.323 1217.19,940.424 1198.2,933.057C1193.88,931.38 1189.16,927.694 1189.16,927.694Z" style="fill:rgb(242,77,70);"/>
            <path d="M1611.62,996.821C1611.82,995.341 1614.41,993.933 1615.67,992.93C1632.3,979.714 1649.82,968.663 1668.13,959.867C1672.43,957.804 1678.48,955.099 1683.97,952.898C1728.2,935.186 1776.68,930.105 1828.06,938.766C1847.82,942.097 1867.45,946.831 1886.37,953.452C1897.5,957.347 1908.82,961.969 1918.78,968.381C1920.2,969.297 1925.42,972.161 1927.56,974.892C1930.27,978.363 1930.35,981.937 1927.87,985.091C1922.79,991.555 1913.7,995.804 1903.28,998.206C1889.4,1001.4 1873.2,1001.58 1863.63,1001.61C1838.28,1001.71 1812.64,997.418 1788.15,991.032C1772.55,986.964 1743.78,974.855 1717.43,968.442C1706.52,965.786 1696.06,963.986 1687.38,964.495C1667.39,972.6 1648.31,983.412 1630.29,996.821L1611.62,996.821Z" style="fill:rgb(239,123,88);"/>
            <path d="M1687.38,964.495C1760.49,916.633 1819.29,1023.21 1927.87,985.091C1935.63,982.367 1913.7,995.804 1903.28,998.206C1889.4,1001.4 1873.2,1001.58 1863.63,1001.61C1838.28,1001.71 1812.64,997.418 1788.15,991.032C1772.55,986.964 1743.78,974.855 1717.43,968.442C1706.52,965.786 1696.06,963.986 1687.38,964.495Z" style="fill:rgb(242,77,70);"/>
            <path d="M1516.7,996.821L1473.45,561.619C1473.12,558.324 1475.53,555.383 1478.82,555.055C1482.12,554.728 1485.06,557.137 1485.39,560.433L1528.76,996.821L1516.7,996.821ZM1549.51,996.821L1549.51,642.054C1549.51,638.743 1552.2,636.054 1555.51,636.054C1558.82,636.054 1561.51,638.743 1561.51,642.054L1561.51,996.821L1549.51,996.821Z" style="fill:rgb(239,123,88);"/>
            <g transform="matrix(1,0,0,1,-1.23233,3.39234)">
                <circle cx="1480.76" cy="551.152" r="27.88" style="fill:rgb(255,210,116);"/>
            </g>
            <g transform="matrix(0.999223,-0.0394182,0.0394182,0.999223,57.2183,126.141)">
                <circle cx="1480.76" cy="551.152" r="27.88" style="fill:rgb(255,210,116);"/>
            </g>
        </g>
    </g>
    <g id="LAPTOP" transform="matrix(1,0,0,1,176.966,-102.722)">
        <path d="M523.963,927.161L492.454,956.62L596.314,1714.44L1257.42,1741.62L2117.53,1714.44L2117.53,1617.88L1257.42,1638.48L646.318,1617.88L523.963,927.161Z" style="fill:rgb(57,104,190);"/>
        <path d="M523.963,927.161L1488.74,996.821L1641.09,1570.72L2117.53,1617.88L1257.42,1644.54L646.318,1617.88L523.963,927.161Z" style="fill:rgb(98,141,223);"/>
        <path d="M1642.09,1570.93L787.723,1616.83L1257.4,1637.33L2117.53,1617.25L2117.53,1631.88L1263.35,1651.79L1263.35,1741.37L1257.42,1741.62L1251.35,1741.38L1251.35,1651.71L645.924,1625.29C642.484,1625.14 639.614,1622.61 639.032,1619.22L523.963,927.161L538.376,928.202L652.457,1610.93L660.213,1611.27L1637.98,1559.12C1639.41,1564.55 1640.98,1570.46 1641.09,1570.72C1641.11,1570.77 1641.46,1570.84 1642.09,1570.93Z" style="fill:white;"/>
        <path d="M576.83,976.076L688.623,1570.72L1592.65,1534.68L1455.47,1024L576.83,976.076Z" style="fill:white;"/>
        <g transform="matrix(1,6.93889e-18,-6.93889e-18,1,-11.9994,2.17959)">
            <path d="M749.423,1699.41C749.279,1698.86 749.211,1698.28 749.23,1697.68L750.875,1647.17C750.889,1646.75 750.948,1646.33 751.046,1645.93L762.797,1646.42C762.857,1646.79 762.882,1647.17 762.869,1647.57L761.224,1698.08C761.202,1698.76 761.068,1699.4 760.84,1700.01L749.423,1699.41ZM727.631,1698.27C727.554,1697.85 727.52,1697.42 727.535,1696.98L729.18,1646.47C729.196,1645.97 729.271,1645.5 729.399,1645.04L741.068,1645.52C741.151,1645.95 741.188,1646.4 741.173,1646.86L739.528,1697.37C739.511,1697.89 739.428,1698.4 739.286,1698.88L727.631,1698.27ZM705.872,1697.12C705.841,1696.85 705.83,1696.56 705.839,1696.27L707.484,1645.76C707.502,1645.2 707.598,1644.66 707.759,1644.15L719.332,1644.62C719.444,1645.11 719.495,1645.63 719.478,1646.15L717.833,1696.66C717.821,1697.03 717.775,1697.39 717.699,1697.75L705.872,1697.12ZM684.145,1695.99C684.139,1695.85 684.139,1695.71 684.144,1695.57L685.789,1645.06C685.809,1644.42 685.926,1643.82 686.126,1643.26L697.59,1643.73C697.734,1644.28 697.802,1644.85 697.782,1645.45L696.137,1695.96C696.13,1696.18 696.111,1696.4 696.08,1696.61L684.145,1695.99ZM662.448,1694.85L664.093,1644.35C664.116,1643.65 664.258,1642.98 664.498,1642.36L675.841,1642.83C676.021,1643.43 676.108,1644.08 676.087,1644.74L674.442,1695.25C674.439,1695.33 674.435,1695.4 674.43,1695.48L662.448,1694.85Z" style="fill:rgb(98,141,223);"/>
        </g>
        <g>
            <g>
                <g transform="matrix(1,0,0,1,186.624,-82.4787)">
                    <path d="M993.125,1464.12C993.125,1464.12 980.014,1343.88 974.082,1289.48C972.434,1274.37 981.94,1260.27 996.571,1256.14C1007.8,1252.96 1018.52,1249.93 1018.52,1249.93C1018.52,1249.93 1013.09,1197.8 1052.92,1200.15C1060.03,1200.56 1066.73,1203.63 1071.67,1208.76C1074.3,1211.45 1076.74,1214.98 1078.17,1219.45C1078.17,1219.45 1086.54,1187.69 1121.06,1199.65C1121.06,1199.65 1132.93,1201.63 1134.51,1217.05C1134.51,1217.05 1140.4,1193.29 1169.03,1204.73C1169.03,1204.73 1180.36,1208.77 1183.49,1228.14C1183.49,1228.14 1183.61,1210 1204.99,1210.26C1212.24,1210.35 1221.86,1213.21 1225.1,1257.16L1240.4,1456.35L993.125,1464.12Z" style="fill:rgb(222,120,97);"/>
                    <g>
                        <path d="M1128.27,1308.68C1128.69,1302.12 1128.55,1292.49 1128.16,1281.57C1127.23,1255.47 1124.59,1222.23 1123.05,1204.12C1122.91,1202.55 1122.51,1200.36 1122.51,1200.36C1128.56,1202.46 1132.3,1207.21 1133.93,1214.37C1133.93,1214.37 1134.08,1216.16 1134.15,1217.07C1135.64,1235.69 1137.42,1260.65 1138.15,1281.21C1138.55,1292.26 1138.59,1302.07 1138.17,1309.12C1139.78,1315.67 1142.47,1319.96 1145.8,1322.64C1150.88,1326.74 1157.21,1327.02 1162.12,1326.75C1174.58,1326.05 1178.01,1315.05 1178.64,1312.49L1172.19,1212.66L1171.83,1206.12C1177.37,1209.72 1181.31,1218.02 1183.16,1225.6L1183.42,1229.21L1188.66,1312.48C1188.69,1312.8 1188.68,1313.11 1188.64,1313.42C1190.93,1315.05 1194.93,1317.73 1199.61,1319.38C1203.09,1320.61 1207.01,1321.32 1210.77,1320.06C1213.87,1319.03 1216.29,1316.3 1219.29,1312.39C1226.89,1302.49 1227.89,1290.81 1227.89,1290.81L1229.22,1314.95C1229.22,1314.95 1224.02,1325.04 1217.38,1328.06C1211.9,1330.55 1206.42,1331.22 1201.09,1330.15C1194.67,1328.87 1188.77,1325.52 1184.96,1323.01C1181.45,1329.1 1174.82,1336.05 1162.67,1336.73C1155.67,1337.12 1146.78,1336.27 1139.52,1330.43C1137.63,1328.9 1135.82,1327.03 1134.2,1324.72C1127.41,1336.39 1112.72,1342.41 1100.39,1337.48C1094.92,1335.28 1089.72,1330.89 1086.02,1323.63C1085.66,1325.24 1085.19,1326.7 1084.64,1328.04C1085.36,1328.52 1086.15,1329.04 1086.32,1329.17C1089.34,1331.65 1092.29,1334.22 1095.27,1336.75C1106.6,1346.38 1117.95,1356.65 1127.19,1368.36C1129.28,1371.01 1131.24,1373.78 1133.05,1376.65C1135.58,1374.42 1138.23,1372.32 1140.98,1370.37C1150.2,1363.84 1160.34,1359.32 1171.19,1356.32C1173.86,1355.58 1176.61,1357.15 1177.35,1359.81C1178.08,1362.47 1176.52,1365.22 1173.86,1365.96C1164.12,1368.64 1155.03,1372.67 1146.77,1378.53C1143.74,1380.68 1140.85,1383.03 1138.11,1385.55C1138.64,1386.58 1139.14,1387.61 1139.64,1388.66C1142.21,1394.13 1144.34,1399.86 1145.7,1405.76C1146.71,1410.11 1147.37,1414.63 1146.82,1419.09C1146.15,1424.47 1144.16,1430.28 1139.8,1433.84C1131,1441.02 1117.25,1436.98 1111.73,1427.82C1107.3,1420.48 1108.87,1411.02 1112.06,1403.68C1114.63,1397.79 1118.27,1392.39 1122.41,1387.5C1123.48,1386.24 1124.58,1385 1125.71,1383.79C1123.78,1380.58 1121.65,1377.48 1119.34,1374.55C1110.51,1363.36 1099.63,1353.58 1088.79,1344.38C1085.9,1341.92 1083.04,1339.42 1080.11,1337.02C1079.93,1336.9 1079.49,1336.61 1078.97,1336.25C1073.78,1340.96 1067.19,1342.29 1062.81,1342.51C1040.1,1343.64 1035.55,1323.36 1035.55,1323.36C1034.92,1320.67 1036.6,1317.98 1039.28,1317.35C1041.97,1316.72 1044.66,1318.39 1045.29,1321.08C1045.29,1321.08 1048.33,1333.22 1062.31,1332.52C1065.11,1332.38 1069.46,1331.68 1072.67,1328.43C1076.17,1324.88 1077.97,1318.59 1076.22,1307.8C1075.78,1305.08 1077.63,1302.51 1080.36,1302.07C1080.69,1302.01 1081.02,1302 1081.34,1302.01C1082.05,1300.41 1083.58,1299.24 1085.44,1299.06C1088.19,1298.8 1090.63,1300.83 1090.89,1303.57C1092.21,1317.71 1097.38,1325.5 1104.11,1328.19C1113.44,1331.93 1124.69,1325.51 1127.4,1315.27C1127.74,1313.97 1127.99,1312.18 1128.17,1309.98C1128.14,1309.54 1128.18,1309.1 1128.27,1308.68ZM1130.71,1393.18L1130.04,1393.97C1126.53,1398.11 1123.41,1402.68 1121.23,1407.67C1119.25,1412.24 1117.54,1418.1 1120.29,1422.66C1122.91,1427.01 1129.3,1429.5 1133.48,1426.09C1135.86,1424.15 1136.53,1420.8 1136.89,1417.86C1137.3,1414.56 1136.7,1411.23 1135.96,1408.01C1134.78,1402.89 1132.93,1397.94 1130.71,1393.18ZM1077,1216.25C1074.21,1210.74 1070.79,1207.04 1066.52,1204.51L1066.45,1208.04L1069.21,1250.95C1069.38,1253.7 1071.76,1255.8 1074.52,1255.62C1077.27,1255.44 1079.36,1253.06 1079.19,1250.31L1077,1216.25Z" style="fill:rgb(143,53,54);"/>
                        <path d="M1104.46,1276.58C1104.96,1279.48 1109.9,1313.58 1019.34,1332.8C1016.64,1333.37 1013.96,1331.74 1013.34,1329.05C1012.72,1326.36 1014.4,1323.67 1017.09,1323.05C1045.48,1316.49 1074.96,1304.23 1084.1,1296.41C1095.63,1286.54 1094.61,1278.31 1094.61,1278.31L1094.54,1277.88C1093.84,1271.38 1090.28,1266.56 1085.17,1262.91C1079.36,1258.78 1071.67,1256.11 1063.45,1254.32C1049.33,1251.25 1033.64,1250.85 1022.21,1251.13C1021.04,1251.16 1018.34,1251.27 1018.34,1251.27L1017.98,1241.3C1017.98,1241.3 1020.32,1241.2 1021.28,1241.18C1033.41,1240.86 1050.36,1241.24 1065.57,1244.55C1085.67,1248.91 1102.4,1258.67 1104.46,1276.58Z" style="fill:rgb(143,53,54);"/>
                    </g>
                </g>
                <g transform="matrix(1,0,0,1,-243.199,-71.5408)">
                    <path d="M993.125,1464.12C993.125,1464.12 980.014,1343.88 974.082,1289.48C972.434,1274.37 981.94,1260.27 996.571,1256.14C1007.8,1252.96 1018.52,1249.93 1018.52,1249.93C1018.52,1249.93 1013.09,1197.8 1052.92,1200.15C1060.03,1200.56 1066.73,1203.63 1071.67,1208.76C1074.3,1211.45 1076.74,1214.98 1078.17,1219.45C1078.17,1219.45 1086.54,1187.69 1121.06,1199.65C1121.06,1199.65 1132.93,1201.63 1134.51,1217.05C1134.51,1217.05 1140.4,1193.29 1169.03,1204.73C1169.03,1204.73 1180.36,1208.77 1183.49,1228.14C1183.49,1228.14 1183.61,1210 1204.99,1210.26C1212.24,1210.35 1221.86,1213.21 1225.1,1257.16L1240.4,1456.35L993.125,1464.12Z" style="fill:rgb(171,73,74);"/>
                    <g>
                        <path d="M1128.27,1308.68C1128.69,1302.12 1128.55,1292.49 1128.16,1281.57C1127.23,1255.47 1124.59,1222.23 1123.05,1204.12C1122.91,1202.55 1122.51,1200.36 1122.51,1200.36C1128.56,1202.46 1132.3,1207.21 1133.93,1214.37C1133.93,1214.37 1134.08,1216.16 1134.15,1217.07C1135.64,1235.69 1137.42,1260.65 1138.15,1281.21C1138.55,1292.26 1138.59,1302.07 1138.17,1309.12C1139.78,1315.67 1142.47,1319.96 1145.8,1322.64C1150.88,1326.74 1157.21,1327.02 1162.12,1326.75C1174.58,1326.05 1178.01,1315.05 1178.64,1312.49L1172.19,1212.66L1171.83,1206.12C1177.37,1209.72 1181.31,1218.02 1183.16,1225.6L1183.42,1229.21L1188.66,1312.48C1188.69,1312.8 1188.68,1313.11 1188.64,1313.42C1190.93,1315.05 1194.93,1317.73 1199.61,1319.38C1203.09,1320.61 1207.01,1321.32 1210.77,1320.06C1213.87,1319.03 1216.29,1316.3 1219.29,1312.39C1226.89,1302.49 1227.89,1290.81 1227.89,1290.81L1229.22,1314.95C1229.22,1314.95 1224.02,1325.04 1217.38,1328.06C1211.9,1330.55 1206.42,1331.22 1201.09,1330.15C1194.67,1328.87 1188.77,1325.52 1184.96,1323.01C1181.45,1329.1 1174.82,1336.05 1162.67,1336.73C1155.67,1337.12 1146.78,1336.27 1139.52,1330.43C1137.63,1328.9 1135.82,1327.03 1134.2,1324.72C1127.41,1336.39 1112.72,1342.41 1100.39,1337.48C1094.92,1335.28 1089.72,1330.89 1086.02,1323.63C1085.66,1325.24 1085.19,1326.7 1084.64,1328.04C1085.36,1328.52 1086.15,1329.04 1086.32,1329.17C1089.34,1331.65 1092.29,1334.22 1095.27,1336.75C1106.6,1346.38 1117.95,1356.65 1127.19,1368.36C1129.28,1371.01 1131.24,1373.78 1133.05,1376.65C1135.58,1374.42 1138.23,1372.32 1140.98,1370.37C1150.2,1363.84 1160.34,1359.32 1171.19,1356.32C1173.86,1355.58 1176.61,1357.15 1177.35,1359.81C1178.08,1362.47 1176.52,1365.22 1173.86,1365.96C1164.12,1368.64 1155.03,1372.67 1146.77,1378.53C1143.74,1380.68 1140.85,1383.03 1138.11,1385.55C1138.64,1386.58 1139.14,1387.61 1139.64,1388.66C1142.21,1394.13 1144.34,1399.86 1145.7,1405.76C1146.71,1410.11 1147.37,1414.63 1146.82,1419.09C1146.15,1424.47 1144.16,1430.28 1139.8,1433.84C1131,1441.02 1117.25,1436.98 1111.73,1427.82C1107.3,1420.48 1108.87,1411.02 1112.06,1403.68C1114.63,1397.79 1118.27,1392.39 1122.41,1387.5C1123.48,1386.24 1124.58,1385 1125.71,1383.79C1123.78,1380.58 1121.65,1377.48 1119.34,1374.55C1110.51,1363.36 1099.63,1353.58 1088.79,1344.38C1085.9,1341.92 1083.04,1339.42 1080.11,1337.02C1079.93,1336.9 1079.49,1336.61 1078.97,1336.25C1073.78,1340.96 1067.19,1342.29 1062.81,1342.51C1040.1,1343.64 1035.55,1323.36 1035.55,1323.36C1034.92,1320.67 1036.6,1317.98 1039.28,1317.35C1041.97,1316.72 1044.66,1318.39 1045.29,1321.08C1045.29,1321.08 1048.33,1333.22 1062.31,1332.52C1065.11,1332.38 1069.46,1331.68 1072.67,1328.43C1076.17,1324.88 1077.97,1318.59 1076.22,1307.8C1075.78,1305.08 1077.63,1302.51 1080.36,1302.07C1080.69,1302.01 1081.02,1302 1081.34,1302.01C1082.05,1300.41 1083.58,1299.24 1085.44,1299.06C1088.19,1298.8 1090.63,1300.83 1090.89,1303.57C1092.21,1317.71 1097.38,1325.5 1104.11,1328.19C1113.44,1331.93 1124.69,1325.51 1127.4,1315.27C1127.74,1313.97 1127.99,1312.18 1128.17,1309.98C1128.14,1309.54 1128.18,1309.1 1128.27,1308.68ZM1130.71,1393.18L1130.04,1393.97C1126.53,1398.11 1123.41,1402.68 1121.23,1407.67C1119.25,1412.24 1117.54,1418.1 1120.29,1422.66C1122.91,1427.01 1129.3,1429.5 1133.48,1426.09C1135.86,1424.15 1136.53,1420.8 1136.89,1417.86C1137.3,1414.56 1136.7,1411.23 1135.96,1408.01C1134.78,1402.89 1132.93,1397.94 1130.71,1393.18ZM1077,1216.25C1074.21,1210.74 1070.79,1207.04 1066.52,1204.51L1066.45,1208.04L1069.21,1250.95C1069.38,1253.7 1071.76,1255.8 1074.52,1255.62C1077.27,1255.44 1079.36,1253.06 1079.19,1250.31L1077,1216.25Z" style="fill:rgb(75,0,0);"/>
                        <path d="M1104.46,1276.58C1104.96,1279.48 1109.9,1313.58 1019.34,1332.8C1016.64,1333.37 1013.96,1331.74 1013.34,1329.05C1012.72,1326.36 1014.4,1323.67 1017.09,1323.05C1045.48,1316.49 1074.96,1304.23 1084.1,1296.41C1095.63,1286.54 1094.61,1278.31 1094.61,1278.31L1094.54,1277.88C1093.84,1271.38 1090.28,1266.56 1085.17,1262.91C1079.36,1258.78 1071.67,1256.11 1063.45,1254.32C1049.33,1251.25 1033.64,1250.85 1022.21,1251.13C1021.04,1251.16 1018.34,1251.27 1018.34,1251.27L1017.98,1241.3C1017.98,1241.3 1020.32,1241.2 1021.28,1241.18C1033.41,1240.86 1050.36,1241.24 1065.57,1244.55C1085.67,1248.91 1102.4,1258.67 1104.46,1276.58Z" style="fill:rgb(75,0,0);"/>
                    </g>
                </g>
                <g transform="matrix(1,0,0,1,-0.539057,1.70894)">
                    <path d="M993.125,1464.12C993.125,1464.12 980.014,1343.88 974.082,1289.48C972.434,1274.37 981.94,1260.27 996.571,1256.14C1007.8,1252.96 1018.52,1249.93 1018.52,1249.93C1018.52,1249.93 1013.09,1197.8 1052.92,1200.15C1060.03,1200.56 1066.73,1203.63 1071.67,1208.76C1074.3,1211.45 1076.74,1214.98 1078.17,1219.45C1078.17,1219.45 1086.54,1187.69 1121.06,1199.65C1121.06,1199.65 1132.93,1201.63 1134.51,1217.05C1134.51,1217.05 1140.4,1193.29 1169.03,1204.73C1169.03,1204.73 1180.36,1208.77 1183.49,1228.14C1183.49,1228.14 1183.61,1210 1204.99,1210.26C1212.24,1210.35 1224,1215.13 1229.54,1256.04L1247.32,1455.68L993.125,1464.12Z" style="fill:rgb(75,0,0);"/>
                    <g>
                        <path d="M1128.27,1308.68C1128.69,1302.12 1128.55,1292.49 1128.16,1281.57C1127.23,1255.47 1124.59,1222.23 1123.05,1204.12C1122.91,1202.55 1122.51,1200.36 1122.51,1200.36C1128.56,1202.46 1132.3,1207.21 1133.93,1214.37C1133.93,1214.37 1134.08,1216.16 1134.15,1217.07C1135.64,1235.69 1137.42,1260.65 1138.15,1281.21C1138.55,1292.26 1138.59,1302.07 1138.17,1309.12C1139.78,1315.67 1142.47,1319.96 1145.8,1322.64C1150.88,1326.74 1157.21,1327.02 1162.12,1326.75C1174.58,1326.05 1178.01,1315.05 1178.64,1312.49L1172.19,1212.66L1171.83,1206.12C1177.37,1209.72 1181.31,1218.02 1183.16,1225.6L1183.42,1229.21L1188.66,1312.48C1188.69,1312.8 1188.68,1313.11 1188.64,1313.42C1190.93,1315.05 1194.93,1317.73 1199.61,1319.38C1203.09,1320.61 1207.01,1321.32 1210.77,1320.06C1213.87,1319.03 1217.63,1316.37 1220.83,1312.62C1228.36,1303.8 1232.78,1292.3 1232.78,1292.3L1234.38,1310.18C1234.38,1310.18 1229.39,1324.18 1217.38,1328.06C1211.65,1329.91 1206.42,1331.22 1201.09,1330.15C1194.67,1328.87 1188.77,1325.52 1184.96,1323.01C1181.45,1329.1 1174.82,1336.05 1162.67,1336.73C1155.67,1337.12 1146.78,1336.27 1139.52,1330.43C1137.63,1328.9 1135.82,1327.03 1134.2,1324.72C1127.41,1336.39 1112.72,1342.41 1100.39,1337.48C1094.92,1335.28 1089.72,1330.89 1086.02,1323.63C1085.66,1325.24 1085.19,1326.7 1084.64,1328.04C1085.36,1328.52 1086.15,1329.04 1086.32,1329.17C1089.34,1331.65 1092.29,1334.22 1095.27,1336.75C1106.6,1346.38 1117.95,1356.65 1127.19,1368.36C1129.28,1371.01 1131.24,1373.78 1133.05,1376.65C1135.58,1374.42 1138.23,1372.32 1140.98,1370.37C1150.2,1363.84 1160.34,1359.32 1171.19,1356.32C1173.86,1355.58 1176.61,1357.15 1177.35,1359.81C1178.08,1362.47 1176.52,1365.22 1173.86,1365.96C1164.12,1368.64 1155.03,1372.67 1146.77,1378.53C1143.74,1380.68 1140.85,1383.03 1138.11,1385.55C1138.64,1386.58 1139.14,1387.61 1139.64,1388.66C1142.21,1394.13 1144.34,1399.86 1145.7,1405.76C1146.71,1410.11 1147.37,1414.63 1146.82,1419.09C1146.15,1424.47 1144.16,1430.28 1139.8,1433.84C1131,1441.02 1117.25,1436.98 1111.73,1427.82C1107.3,1420.48 1108.87,1411.02 1112.06,1403.68C1114.63,1397.79 1118.27,1392.39 1122.41,1387.5C1123.48,1386.24 1124.58,1385 1125.71,1383.79C1123.78,1380.58 1121.65,1377.48 1119.34,1374.55C1110.51,1363.36 1099.63,1353.58 1088.79,1344.38C1085.9,1341.92 1083.04,1339.42 1080.11,1337.02C1079.93,1336.9 1079.49,1336.61 1078.97,1336.25C1073.78,1340.96 1067.19,1342.29 1062.81,1342.51C1040.1,1343.64 1035.55,1323.36 1035.55,1323.36C1034.92,1320.67 1036.6,1317.98 1039.28,1317.35C1041.97,1316.72 1044.66,1318.39 1045.29,1321.08C1045.29,1321.08 1048.33,1333.22 1062.31,1332.52C1065.11,1332.38 1069.46,1331.68 1072.67,1328.43C1076.17,1324.88 1077.97,1318.59 1076.22,1307.8C1075.78,1305.08 1077.63,1302.51 1080.36,1302.07C1080.69,1302.01 1081.02,1302 1081.34,1302.01C1082.05,1300.41 1083.58,1299.24 1085.44,1299.06C1088.19,1298.8 1090.63,1300.83 1090.89,1303.57C1092.21,1317.71 1097.38,1325.5 1104.11,1328.19C1113.44,1331.93 1124.69,1325.51 1127.4,1315.27C1127.74,1313.97 1127.99,1312.18 1128.17,1309.98C1128.14,1309.54 1128.18,1309.1 1128.27,1308.68ZM1130.71,1393.18L1130.04,1393.97C1126.53,1398.11 1123.41,1402.68 1121.23,1407.67C1119.25,1412.24 1117.54,1418.1 1120.29,1422.66C1122.91,1427.01 1129.3,1429.5 1133.48,1426.09C1135.86,1424.15 1136.53,1420.8 1136.89,1417.86C1137.3,1414.56 1136.7,1411.23 1135.96,1408.01C1134.78,1402.89 1132.93,1397.94 1130.71,1393.18ZM1077,1216.25C1074.21,1210.74 1070.79,1207.04 1066.52,1204.51L1066.45,1208.04L1069.21,1250.95C1069.38,1253.7 1071.76,1255.8 1074.52,1255.62C1077.27,1255.44 1079.36,1253.06 1079.19,1250.31L1077,1216.25Z" style="fill:rgb(171,73,74);"/>
                        <path d="M1104.46,1276.58C1104.96,1279.48 1109.9,1313.58 1019.34,1332.8C1016.64,1333.37 1013.96,1331.74 1013.34,1329.05C1012.72,1326.36 1014.4,1323.67 1017.09,1323.05C1045.48,1316.49 1074.96,1304.23 1084.1,1296.41C1095.63,1286.54 1094.61,1278.31 1094.61,1278.31L1094.54,1277.88C1093.84,1271.38 1090.28,1266.56 1085.17,1262.91C1079.36,1258.78 1071.67,1256.11 1063.45,1254.32C1049.33,1251.25 1033.64,1250.85 1022.21,1251.13C1021.04,1251.16 1018.34,1251.27 1018.34,1251.27L1017.98,1241.3C1017.98,1241.3 1020.32,1241.2 1021.28,1241.18C1033.41,1240.86 1050.36,1241.24 1065.57,1244.55C1085.67,1248.91 1102.4,1258.67 1104.46,1276.58Z" style="fill:rgb(171,73,74);"/>
                    </g>
                </g>
            </g>
            <path d="M1154.82,1090.9L1131.89,1137.78C1130.43,1140.75 1131.66,1144.35 1134.64,1145.81C1137.61,1147.26 1141.21,1146.03 1142.66,1143.05L1165.6,1096.17C1167.06,1093.2 1165.83,1089.6 1162.85,1088.15C1159.88,1086.69 1156.28,1087.92 1154.82,1090.9ZM1009.44,1094.54L1033.04,1142.4C1034.5,1145.37 1038.11,1146.59 1041.08,1145.12C1044.05,1143.66 1045.27,1140.06 1043.8,1137.09L1020.2,1089.23C1018.73,1086.26 1015.13,1085.04 1012.16,1086.51C1009.19,1087.97 1007.97,1091.57 1009.44,1094.54ZM1087.63,1076.17L1086.58,1130.21C1086.52,1133.52 1089.15,1136.26 1092.46,1136.32C1095.77,1136.39 1098.51,1133.75 1098.58,1130.44L1099.62,1076.41C1099.69,1073.1 1097.05,1070.36 1093.74,1070.29C1090.43,1070.23 1087.69,1072.86 1087.63,1076.17Z" style="fill:rgb(255,210,117);"/>
            <path d="M844.074,1452.31L839.202,1500.7C838.87,1504 841.276,1506.94 844.571,1507.28C847.866,1507.61 850.81,1505.2 851.142,1501.91L856.014,1453.51C856.345,1450.22 853.94,1447.27 850.645,1446.94C847.35,1446.61 844.406,1449.02 844.074,1452.31ZM904.624,1456.67L907.934,1494.95C908.219,1498.25 911.129,1500.69 914.428,1500.41C917.728,1500.12 920.174,1497.21 919.889,1493.92L916.579,1455.64C916.294,1452.34 913.384,1449.89 910.085,1450.18C906.785,1450.46 904.338,1453.37 904.624,1456.67ZM780.75,1443.14L752.018,1482.69C750.072,1485.37 750.666,1489.12 753.345,1491.07C756.024,1493.01 759.78,1492.42 761.726,1489.74L790.458,1450.2C792.405,1447.52 791.81,1443.76 789.131,1441.82C786.452,1439.87 782.697,1440.46 780.75,1443.14Z" style="fill:rgb(255,210,117);"/>
            <path d="M1322.89,1442.6L1326.12,1483.55C1326.38,1486.85 1329.27,1489.32 1332.57,1489.06C1335.87,1488.8 1338.34,1485.91 1338.08,1482.61L1334.86,1441.66C1334.6,1438.36 1331.7,1435.89 1328.4,1436.15C1325.1,1436.41 1322.63,1439.3 1322.89,1442.6ZM1381.43,1442.74L1398.38,1483.1C1399.66,1486.15 1403.18,1487.59 1406.23,1486.31C1409.29,1485.02 1410.72,1481.5 1409.44,1478.45L1392.49,1438.1C1391.21,1435.04 1387.69,1433.61 1384.64,1434.89C1381.59,1436.17 1380.15,1439.69 1381.43,1442.74ZM1428.09,1427.69L1466.34,1461.42C1468.82,1463.61 1472.62,1463.38 1474.81,1460.89C1477,1458.41 1476.76,1454.61 1474.28,1452.42L1436.03,1418.69C1433.54,1416.5 1429.75,1416.74 1427.56,1419.22C1425.37,1421.7 1425.61,1425.5 1428.09,1427.69Z" style="fill:rgb(255,210,117);"/>
        </g>
    </g>
    <g transform="matrix(1,0,0,1,153.685,-70.0553)">
        <path d="M504.781,819.009L542.785,736.887C543.787,734.721 545.977,733.356 548.362,733.408C550.748,733.461 552.876,734.922 553.781,737.13L584.592,812.255L619.582,762.472C621.005,760.449 623.523,759.505 625.925,760.096C628.326,760.687 630.119,762.692 630.44,765.144L641.719,851.364C642.149,854.648 639.832,857.662 636.548,858.092C633.265,858.522 630.25,856.204 629.821,852.921L620.54,781.978L588.108,828.121C586.847,829.914 584.709,830.877 582.53,830.633C580.352,830.389 578.48,828.976 577.648,826.947L547.898,754.41L512.89,830.058C512.179,831.595 510.851,832.759 509.235,833.265C507.618,833.77 505.863,833.568 504.403,832.709L446.9,798.887L446.9,868.907C446.9,870.717 446.083,872.43 444.677,873.569C443.27,874.709 441.425,875.152 439.654,874.776L398.098,865.954L445.679,928.65C447.681,931.288 447.165,935.055 444.527,937.057C441.889,939.059 438.123,938.542 436.121,935.905L378.79,860.363C377.275,858.367 377.16,855.638 378.503,853.522C379.846,851.405 382.364,850.346 384.816,850.867L434.9,861.499L434.9,788.397C434.9,786.245 436.053,784.257 437.921,783.189C439.789,782.12 442.087,782.134 443.942,783.225L504.781,819.009Z" style="fill:rgb(239,123,88);"/>
    </g>
    <g transform="matrix(-1,0,0,1,2154.12,-130.343)">
        <path d="M873.767,845.444L894.26,919.982L920.86,919.232L914.092,836.895L873.767,845.444ZM1076.76,845.444L1052.45,908.021L1076.76,919.982L1108.66,859.044L1076.76,845.444ZM972.757,817.035L972.663,901.053L1000.53,901.053L1010.66,822.47L972.757,817.035Z" style="fill:rgb(255,211,118);"/>
    </g>
</svg>
