<?xml version="1.0" encoding="UTF-8" standalone="no"?>
<!DOCTYPE svg PUBLIC "-//W3C//DTD SVG 1.1//EN" "http://www.w3.org/Graphics/SVG/1.1/DTD/svg11.dtd">
<svg width="100%" height="100%" viewBox="0 0 2732 2048" version="1.1" xmlns="http://www.w3.org/2000/svg" xmlns:xlink="http://www.w3.org/1999/xlink" xml:space="preserve" xmlns:serif="http://www.serif.com/" style="fill-rule:evenodd;clip-rule:evenodd;stroke-linejoin:round;stroke-miterlimit:2;">
    <g id="BACKGROUND-LAYER-2" serif:id="BACKGROUND LAYER 2" transform="matrix(1,0,0,1,319.065,-136.885)">
        <g>
            <path d="M325.041,1786.37L1859.51,1786.37C1859.51,1786.37 1851.17,1244.66 1704.68,1109.17C1704.68,1109.17 1734.94,937.091 1704.68,863.673C1704.68,863.673 1621.52,817.151 1575.7,863.673C1575.7,863.673 1560.87,825.646 1521.23,863.673C1521.23,863.673 1495.28,795.699 1420.88,863.673C1420.88,863.673 1372.7,823.282 1330.65,863.673C1330.65,863.673 1293.41,817.767 1247.05,846.445C1247.05,846.445 1201.03,794.048 1152.41,846.445C1152.41,846.445 1085.55,825.91 1064.28,863.673C1064.28,863.673 1018.96,809.093 970.337,846.445C970.337,846.445 912.243,783.871 860.897,846.445C860.897,846.445 799.952,825.62 774.499,863.673C774.499,863.673 727.148,816.969 674.981,846.445C674.981,846.445 633.735,794.957 588.56,846.445C588.56,846.445 545.655,801.451 500.656,859.495C500.656,859.495 278.615,1129.62 325.041,1483.7L325.041,1786.37Z" style="fill:rgb(184,205,243);"/>
        </g>
        <g>
            <g transform="matrix(0.986446,-0.164085,0.164085,0.986446,-421.547,430.436)">
                <rect x="952.469" y="474.471" width="13.564" height="157.247" style="fill:rgb(184,205,243);"/>
            </g>
            <g transform="matrix(0.938036,0.346538,-0.346538,0.938036,691.464,9.38102)">
                <rect x="952.469" y="474.471" width="13.564" height="157.247" style="fill:rgb(184,205,243);"/>
            </g>
            <g transform="matrix(-1.01906,0.285537,-0.309475,-1.10449,2406.18,1131.89)">
                <path d="M966.033,474.471L952.469,474.471L952.345,622.107L966.86,627.755L966.033,474.471Z" style="fill:rgb(184,205,243);"/>
            </g>
            <path d="M1493.13,740.97L1406.43,686.284C1405.31,685.577 1404.98,684.094 1405.68,682.973C1406.39,681.853 1407.87,681.517 1408.99,682.224L1497.31,737.934C1498.26,738.533 1498.67,739.709 1498.29,740.767L1475.48,805.04C1475.03,806.288 1473.66,806.942 1472.41,806.499C1471.16,806.056 1470.51,804.682 1470.95,803.434L1493.13,740.97Z" style="fill:rgb(184,205,243);"/>
            <path d="M1381.76,762.675L1474.16,802.029C1475.37,802.548 1475.94,803.959 1475.42,805.177C1474.9,806.396 1473.49,806.964 1472.28,806.445L1377.78,766.2C1376.61,765.701 1376.03,764.371 1376.47,763.172L1405.46,683.434C1405.91,682.189 1407.29,681.546 1408.53,681.998C1409.78,682.451 1410.42,683.829 1409.97,685.074L1381.76,762.675Z" style="fill:rgb(184,205,243);"/>
            <path d="M1136.74,601.805L1161.93,705.564C1162.24,706.851 1161.45,708.15 1160.17,708.462C1158.88,708.775 1157.58,707.984 1157.27,706.696L1131.26,599.592C1131.08,598.83 1131.28,598.025 1131.8,597.437C1132.32,596.849 1133.09,596.552 1133.87,596.642L1275.18,612.964C1276.49,613.116 1277.44,614.307 1277.29,615.623C1277.13,616.939 1275.94,617.884 1274.63,617.732L1136.74,601.805Z" style="fill:rgb(184,205,243);"/>
            <path d="M1300.13,721.503L1272.58,615.954C1272.25,614.672 1273.02,613.36 1274.3,613.026C1275.58,612.691 1276.89,613.46 1277.23,614.742L1305.67,723.724C1305.87,724.495 1305.67,725.315 1305.15,725.914C1304.62,726.512 1303.84,726.811 1303.05,726.711L1159.3,708.511C1157.98,708.345 1157.05,707.143 1157.22,705.829C1157.38,704.515 1158.59,703.583 1159.9,703.749L1300.13,721.503Z" style="fill:rgb(184,205,243);"/>
            <path d="M649.673,714.272L637.423,629.66C637.233,628.349 636.015,627.439 634.704,627.629C633.393,627.819 632.483,629.037 632.673,630.348L644.922,714.96C645.112,716.271 646.331,717.181 647.642,716.991C648.952,716.801 649.863,715.583 649.673,714.272Z" style="fill:rgb(184,205,243);"/>
            <path d="M561.961,764.11L646.043,712.57C647.173,711.878 648.652,712.232 649.344,713.362C650.036,714.491 649.681,715.97 648.552,716.662L561.687,769.907C561.037,770.306 560.235,770.372 559.528,770.084C558.821,769.796 558.293,769.189 558.106,768.449L536.989,684.842C536.724,683.794 537.192,682.699 538.133,682.166L633.865,627.916C635.017,627.263 636.483,627.668 637.136,628.821C637.789,629.973 637.384,631.439 636.231,632.092L542.091,685.44L561.961,764.11Z" style="fill:rgb(184,205,243);"/>
        </g>
    </g>
    <g id="BACKGROUND-LAYER-1" serif:id="BACKGROUND LAYER 1" transform="matrix(1,0,0,1,319.065,-136.885)">
        <g transform="matrix(0.991855,0.127375,-0.127375,0.991855,118.494,-126.709)">
            <g transform="matrix(1.32469,0,0,1,-291.244,0)">
                <rect x="897.004" y="745.324" width="15.124" height="191.398" style="fill:rgb(98,141,223);"/>
            </g>
            <g transform="matrix(1.14046,-0.185325,0.183936,1.1319,-273.328,100.021)">
                <path d="M862.646,622.632L842.693,739.964L984.291,765.712L1002.38,654.391L862.646,622.632Z" style="fill:rgb(98,141,223);"/>
            </g>
        </g>
        <g>
            <g transform="matrix(1.0165,0,0,0.943782,-299.169,66.5643)">
                <path d="M1013.03,868.641C1013.03,868.641 989.384,871.39 962.079,874.564C912.78,880.294 871.501,917.357 857.394,968.555C819.721,1105.28 749.593,1359.79 749.593,1359.79C748.875,1364.4 752.77,1370.02 758.309,1368.46C758.54,1373.67 764.203,1379.79 770.302,1377.3C772.435,1382.84 776.776,1384.79 781.662,1383.79C782.194,1389.92 789.253,1394.42 795.235,1392.67C799.62,1391.39 802.316,1382.02 803.433,1383.79C806.534,1388.72 811.972,1389.67 815.204,1388.24C822.986,1384.8 825.257,1375.21 825.257,1375.21L943.359,1024L950.369,1070.61C950.369,1070.61 811.051,1368.82 815.204,1822.25C815.204,1822.25 788.819,1845.37 781.662,1863.41L950.369,1863.41L1048.56,1226.45L1146.49,1863.41L1320.63,1862.08C1320.63,1862.08 1309.44,1833.92 1291.1,1830.94C1291.1,1830.94 1248.86,1216.26 1160.5,1070.61L1161.62,1024L1291.1,1379C1295.12,1390.53 1299.51,1399.44 1304.55,1403.64C1311.94,1401.68 1309.08,1388.25 1304.55,1372.95C1303.08,1363.05 1311.51,1363.87 1317.14,1377.3C1356.99,1472.35 1377.58,1397.57 1372.08,1357.63C1372.08,1357.63 1276.44,1097.53 1228.55,967.264C1211.8,921.714 1175.73,887.623 1131.62,875.656C1106.62,868.874 1084.55,862.886 1084.55,862.886L1087.56,827.394C1087.56,827.394 1107.39,817.923 1105.33,805.841C1104.92,803.163 1103.37,800.845 1101.14,799.572C1098.92,798.298 1096.27,798.213 1093.97,799.342C1092.63,799.9 1091.4,800.773 1090.56,801.95C1090.56,801.95 1090.56,799.062 1090.56,794.738C1090.55,784.701 1086.73,775.103 1080,768.164C1073.26,761.225 1064.19,757.547 1054.88,757.981C1052.67,758.084 1050.44,758.188 1048.24,758.29C1029.33,759.171 1013.52,774.083 1010.22,794.161C1010.22,794.161 1010.22,794.161 1010.22,794.161C1010.22,794.161 999.099,782.803 996.646,797.496C996.646,797.496 994.147,815.558 1007.46,813.709C1007.46,813.709 1004.03,836.078 1015.42,844.246L1013.03,868.641Z" style="fill:rgb(98,141,223);"/>
            </g>
            <g transform="matrix(-1.0165,0,0,0.943782,2408.86,66.5643)">
                <path d="M1010.22,867.899C1010.22,867.899 987.643,870.709 961.344,873.983C912.423,880.074 871.595,917.014 857.584,967.864C819.959,1104.42 749.593,1359.79 749.593,1359.79C748.875,1364.4 752.77,1370.02 758.309,1368.46C758.54,1373.67 764.203,1379.79 770.302,1377.3C772.435,1382.84 776.776,1384.79 781.662,1383.79C782.194,1389.92 789.253,1394.42 795.235,1392.67C799.62,1391.39 802.316,1382.02 803.433,1383.79C806.534,1388.72 811.972,1389.67 815.204,1388.24C822.986,1384.8 825.257,1375.21 825.257,1375.21L943.359,1024L950.369,1070.61C950.369,1070.61 811.051,1368.82 815.204,1822.25C815.204,1822.25 788.819,1845.37 781.662,1863.41L950.369,1863.41L1048.56,1226.45L1146.49,1863.41L1320.63,1862.08C1320.63,1862.08 1309.44,1833.92 1291.1,1830.94C1291.1,1830.94 1248.86,1216.26 1160.5,1070.61L1161.62,1024L1291.1,1379C1294.94,1380.38 1305.19,1398.11 1310.97,1403.64C1315.35,1407.83 1319.58,1416.69 1325.34,1415.64C1336.65,1413.57 1336.21,1403.55 1338.21,1403.64C1347.64,1404.06 1347.17,1394.73 1347.17,1394.73C1347.17,1394.73 1348.22,1402.46 1359.51,1388.24C1364.49,1381.98 1359.51,1372.95 1359.51,1372.95C1359.51,1372.95 1369.24,1375.43 1371.91,1352.91C1371.91,1352.91 1276.55,1095.95 1228.66,966.888C1211.83,921.555 1175.85,887.656 1131.89,875.731C1106.79,868.918 1084.55,862.886 1084.55,862.886C1084.04,857.008 1084.55,844.564 1084.55,844.564C1084.55,844.564 1087.95,834.351 1087.56,827.394C1087.56,827.394 1107.39,817.923 1105.33,805.841C1104.92,803.163 1103.37,800.845 1101.14,799.572C1098.92,798.298 1096.27,798.213 1093.97,799.342C1092.63,799.9 1091.4,800.773 1090.56,801.95C1090.56,801.95 1090.56,799.062 1090.56,794.738C1090.55,784.701 1086.73,775.103 1080,768.164C1073.26,761.225 1064.19,757.547 1054.88,757.981C1052.67,758.084 1050.44,758.188 1048.24,758.29C1029.33,759.171 1013.52,774.083 1010.22,794.161C1010.22,794.161 1010.22,794.161 1010.22,794.161C1010.22,794.161 998.81,790.405 997.091,801.95C997.091,801.95 995.334,815.185 1006.3,816.016C1006.3,816.016 1007.74,834.734 1013.03,844.564L1010.22,867.899Z" style="fill:rgb(98,141,223);"/>
            </g>
        </g>
    </g>
    <g id="CHARACTER-3" serif:id="CHARACTER 3" transform="matrix(1,0,0,1,319.065,-136.885)">
        <path d="M1711.62,1612.55C1782.95,1616.1 1851.85,1614.25 1899.37,1612.84L1899.38,1612.9L1922.16,1833.12C1922.16,1833.12 1952.83,1855.94 1957.73,1871.44L1761.28,1849.04L1711.62,1612.55ZM1364.71,1594.66C1411.06,1595.35 1478.07,1590.3 1550.27,1592.3C1532.89,1672.75 1516.14,1752.51 1500.18,1837.46L1307.82,1858.92C1307.82,1858.92 1328.63,1823.64 1345.44,1820.26C1345.44,1820.26 1349.58,1720.87 1364.71,1594.66ZM1506,1070.92C1500.95,1063.74 1497.48,1055.86 1497.37,1055.61L1453.17,968.849C1453.17,968.849 1457.99,861.509 1550.58,867.37C1550.58,867.37 1564.66,820.481 1606.8,816.966C1606.8,816.966 1596.68,774.749 1640.49,775.779C1640.49,775.779 1676.54,778.593 1677.53,813.056L1676.76,827.622C1676.76,827.622 1726.38,816.272 1752.53,892.042C1752.53,892.042 1814.61,876.99 1806.59,971.292C1806.59,971.292 1813.32,1054.58 1741.77,1095.02L1529.24,1089.33L1506,1070.92ZM1679.16,704.732C1701.02,704.732 1718.76,722.476 1718.76,744.332C1718.76,766.187 1701.02,783.931 1679.16,783.931C1657.31,783.931 1639.56,766.187 1639.56,744.332C1639.56,722.476 1657.31,704.732 1679.16,704.732Z" style="fill:white;"/>
        <g>
            <path d="M1618,811.651C1618.09,811.314 1618.24,810.99 1618.48,810.704C1619.98,808.876 1621.67,810.01 1621.89,810.177C1622.28,810.465 1623.19,811.258 1622.78,812.769C1622.68,813.129 1621.44,815.34 1620.79,816.067C1619.19,817.87 1616.73,818.294 1614.48,818.517C1609.03,819.059 1603.76,819.757 1598.48,821.345C1582.79,826.063 1567.48,835.509 1558.37,849.417C1555.7,853.492 1553.6,858.074 1552.62,862.864C1552.47,863.61 1552.92,867.176 1552.91,868.812C1552.89,870.02 1552.51,870.814 1552.3,871.089C1552.22,871.195 1551.38,872.235 1549.67,871.977C1547.68,871.677 1538.11,869.655 1537.54,869.63C1529.66,869.278 1521.74,870.589 1514.26,873.043C1487.26,881.9 1469.19,905.591 1460.56,931.815C1456.07,945.426 1452.46,964.942 1454.89,982.323C1456.46,993.561 1460.56,1003.91 1468.8,1011C1472.09,1013.82 1476.77,1014.9 1481,1015.19C1481.87,1015.25 1485.27,1014.86 1486.95,1015.19C1488.12,1015.41 1488.88,1015.98 1489.28,1016.52C1489.96,1017.46 1490.38,1019.16 1490.38,1021.25C1490.4,1024.58 1489.52,1029.17 1489.66,1031C1490.4,1040.38 1492.99,1049.83 1497.6,1058.06C1505.7,1072.51 1520.19,1081.28 1536.07,1085.64C1537.35,1085.99 1538.1,1087.31 1537.75,1088.59C1537.4,1089.87 1536.08,1090.62 1534.8,1090.27C1517.68,1085.57 1502.15,1075.99 1493.41,1060.41C1488.47,1051.57 1485.66,1041.44 1484.88,1031.37C1484.75,1029.71 1485.37,1025.91 1485.55,1022.64C1485.6,1021.73 1485.61,1020.87 1485.53,1020.14C1485.52,1020.04 1485.51,1019.94 1485.48,1019.83C1483.87,1019.7 1481.37,1020.03 1480.67,1019.98C1475.45,1019.62 1469.73,1018.12 1465.67,1014.63C1456.56,1006.8 1451.88,995.42 1450.14,982.988C1447.6,964.863 1451.32,944.507 1456,930.313C1465.1,902.664 1484.3,877.82 1512.76,868.482C1520.79,865.848 1529.3,864.457 1537.76,864.834C1538.22,864.855 1544.31,866.096 1547.99,866.798L1547.87,864.159C1547.81,863.114 1547.84,862.273 1547.91,861.903C1549.01,856.522 1551.35,851.365 1554.35,846.787C1564.07,831.946 1580.36,821.783 1597.09,816.749C1602.67,815.07 1608.24,814.313 1614.01,813.741C1614.6,813.682 1615.22,813.631 1615.82,813.509C1616.33,813.404 1616.85,813.28 1617.21,812.876C1617.4,812.66 1617.76,812.06 1618,811.651ZM1621.89,814.055L1621.87,814.073L1621.87,814.07L1621.89,814.055ZM1622,813.949L1621.95,813.997L1621.98,813.977L1622,813.949ZM1622.1,813.854L1622.05,813.901L1622.08,813.87L1622.1,813.854Z"/>
            <path d="M1753.45,887.503C1754.27,887.268 1755.41,886.954 1755.75,886.896C1760.27,886.118 1764.79,886.457 1769.24,887.549C1785.55,891.553 1797.82,904.368 1804.99,919.085C1814.05,937.683 1815.5,960.211 1806.53,979.128C1805,982.364 1802.2,985.648 1799.52,988.931C1797.19,991.782 1794.93,994.611 1794.12,997.489C1793.78,998.695 1794.29,1000.34 1794.78,1002C1795.46,1004.26 1796.29,1006.52 1796.54,1008.14C1797.91,1017.06 1798.25,1026.27 1796.43,1035.14C1790.51,1064.01 1765.19,1089.09 1737.47,1101.75C1736.26,1102.3 1734.84,1101.76 1734.29,1100.56C1733.74,1099.35 1734.27,1097.93 1735.47,1097.38C1761.85,1085.34 1786.1,1061.64 1791.73,1034.18C1793.44,1025.86 1793.08,1017.23 1791.8,1008.87C1791.52,1007.08 1790.43,1004.46 1789.8,1002C1789.25,999.842 1789.06,997.772 1789.5,996.188C1790.47,992.756 1793.02,989.296 1795.8,985.896C1798.22,982.928 1800.81,979.998 1802.19,977.071C1810.54,959.464 1809.1,938.497 1800.67,921.186C1794.12,907.726 1783.02,895.873 1768.09,892.211C1764.29,891.277 1760.43,890.961 1756.56,891.626C1755.92,891.737 1753.95,892.491 1752.81,892.555C1751.92,892.604 1751.22,892.373 1750.75,892.07C1750.17,891.696 1749.37,890.645 1748.84,888.947C1747.68,885.182 1746.78,876.933 1746.25,875.334C1742.98,865.416 1737.91,856.051 1730.52,848.59C1722.35,840.348 1711.8,834.344 1701.12,829.996C1699.16,829.2 1693.21,827.968 1689.48,827.101C1687.5,826.641 1686.05,826.204 1685.68,826.002C1684.97,825.608 1684.7,825.092 1684.57,824.787C1684.26,824.064 1684.31,823.388 1684.62,822.759C1684.8,822.412 1685.25,821.558 1686.63,821.394C1687.28,821.318 1687.89,821.504 1688.37,821.869C1688.89,822.01 1689.75,822.235 1690.57,822.426C1694.53,823.348 1700.85,824.704 1702.93,825.55C1714.2,830.138 1725.31,836.514 1733.93,845.211C1741.85,853.201 1747.31,863.211 1750.81,873.832C1751.28,875.26 1752.07,881.882 1753.05,886.091C1753.16,886.561 1753.31,887.077 1753.45,887.503ZM1688.17,825.821C1687.88,825.999 1687.56,826.118 1687.2,826.161C1687.62,826.111 1687.93,825.983 1688.17,825.821Z"/>
            <g transform="matrix(1,0,0,1,-22.6903,-8.53337)">
                <path d="M1700.88,717.063C1721.78,717.063 1738.78,733.532 1738.78,753.858C1738.78,774.184 1721.78,790.652 1700.88,790.652C1699.55,790.652 1698.48,791.727 1698.48,793.052C1698.48,794.376 1699.55,795.452 1700.88,795.452C1724.46,795.452 1743.58,776.795 1743.58,753.858C1743.58,730.92 1724.46,712.263 1700.88,712.263C1699.55,712.263 1698.48,713.339 1698.48,714.663C1698.48,715.988 1699.55,717.063 1700.88,717.063Z"/>
            </g>
            <g transform="matrix(1,0,0,1,-22.6903,-8.53337)">
                <path d="M1700.88,790.652C1679.97,790.652 1662.97,774.184 1662.97,753.858C1662.97,733.532 1679.97,717.063 1700.88,717.063C1702.2,717.063 1703.28,715.988 1703.28,714.663C1703.28,713.339 1702.2,712.263 1700.88,712.263C1677.29,712.263 1658.17,730.92 1658.17,753.858C1658.17,776.795 1677.29,795.452 1700.88,795.452C1702.2,795.452 1703.28,794.376 1703.28,793.052C1703.28,791.727 1702.2,790.652 1700.88,790.652Z"/>
            </g>
        </g>
        <g>
            <path d="M1923.84,1833.83C1943.76,1842.94 1957.24,1866.9 1957.24,1866.9C1957.79,1867.88 1957.75,1869.07 1957.14,1870C1956.53,1870.94 1955.45,1871.46 1954.34,1871.35L1761.37,1852.99C1760.05,1852.87 1758.98,1851.9 1758.71,1850.61L1710.66,1608.04C1710.32,1606.41 1711.37,1604.83 1712.99,1604.49C1714.61,1604.16 1716.2,1605.2 1716.53,1606.83L1764.14,1847.23L1948.84,1864.8C1943.89,1857.49 1933.44,1844.18 1919.9,1838.67C1918.87,1838.25 1918.16,1837.3 1918.05,1836.19L1894.88,1609.15C1894.71,1607.51 1895.91,1606.03 1897.56,1605.86C1899.21,1605.7 1900.68,1606.9 1900.85,1608.54L1923.84,1833.83Z" style="fill:rgb(34,77,153);"/>
            <g transform="matrix(-1,0,0,1,3262.95,-12.0823)">
                <path d="M1764.14,1847.23L1710.53,1588.63C1710.19,1587.01 1708.6,1585.96 1706.98,1586.3C1705.36,1586.63 1704.31,1588.22 1704.65,1589.84L1758.71,1850.62C1758.98,1851.91 1760.05,1852.87 1761.37,1852.99L1954.34,1871.35C1955.45,1871.46 1956.53,1870.94 1957.14,1870C1957.75,1869.07 1957.79,1867.88 1957.24,1866.9C1957.24,1866.9 1943.76,1842.94 1923.84,1833.83L1900.85,1608.54C1900.68,1606.9 1899.21,1605.7 1897.56,1605.86C1895.91,1606.03 1894.71,1607.51 1894.88,1609.15L1918.05,1836.19C1918.16,1837.3 1918.87,1838.25 1919.9,1838.67C1933.44,1844.18 1943.89,1857.49 1948.84,1864.8L1764.14,1847.23Z" style="fill:rgb(34,77,153);"/>
            </g>
            <path d="M1500.95,1598.73L1473.9,1744.83C1473.39,1747.64 1470.69,1749.52 1467.88,1749.01C1465.07,1748.5 1463.19,1745.8 1463.7,1742.98L1489.29,1598.19L1500.95,1598.73Z" style="fill:rgb(34,77,153);"/>
            <g transform="matrix(-1,0,0,1,3273.06,18.6867)">
                <path d="M1500.95,1598.73L1473.9,1744.83C1473.39,1747.64 1470.69,1749.52 1467.88,1749.01C1465.07,1748.5 1463.19,1745.8 1463.7,1742.98L1489.29,1598.19L1500.95,1598.73Z" style="fill:rgb(34,77,153);"/>
            </g>
        </g>
        <g>
            <path d="M1364.22,1595.77C1364.22,1595.77 1415.55,1058.43 1578.99,1073.22L1701.3,1087.41C1701.3,1087.41 1851.15,1092.77 1898.58,1613.94L1713.72,1613.94C1713.72,1613.94 1641.26,1251.75 1632.29,1241.04C1623.31,1230.33 1551.55,1595.77 1551.55,1595.77L1364.22,1595.77Z" style="fill:white;"/>
            <path d="M1895.29,1610.94C1871.54,1353.32 1822.72,1222.88 1779.64,1156.87C1737.36,1092.1 1701.19,1090.41 1701.19,1090.41C1701.11,1090.4 1701.03,1090.4 1700.95,1090.39L1578.64,1076.2C1577,1076.01 1575.82,1074.52 1576.01,1072.87C1576.2,1071.23 1577.69,1070.05 1579.33,1070.24L1701.55,1084.42C1704.14,1084.56 1741.73,1087.81 1784.66,1153.6C1828.19,1220.28 1877.78,1352.29 1901.57,1613.66C1901.64,1614.5 1901.36,1615.34 1900.8,1615.96C1900.23,1616.58 1899.42,1616.94 1898.58,1616.94L1713.72,1616.94C1712.29,1616.94 1711.06,1615.93 1710.78,1614.53C1710.78,1614.53 1664.42,1382.79 1641.28,1284.62C1637.26,1267.54 1633.94,1254.52 1631.7,1247.52C1630.92,1245.08 1630.42,1243.48 1629.99,1242.96C1628.92,1241.69 1629.09,1239.8 1630.36,1238.74C1631.63,1237.67 1633.52,1237.84 1634.59,1239.11C1635.23,1239.87 1636.27,1242.09 1637.42,1245.69C1639.68,1252.78 1643.05,1265.95 1647.12,1283.24C1668.89,1375.6 1711.2,1586.09 1716.18,1610.94L1895.29,1610.94Z" style="fill:rgb(255,210,116);"/>
            <path d="M1632.99,1243.95C1632.48,1245 1631.44,1247.19 1630.67,1249.36C1612.53,1300.69 1554.5,1596.34 1554.5,1596.34C1554.22,1597.75 1552.99,1598.77 1551.55,1598.77L1364.22,1598.77C1363.38,1598.77 1362.57,1598.41 1362,1597.78C1361.43,1597.16 1361.16,1596.32 1361.24,1595.48C1361.24,1595.48 1386.48,1331.57 1457.8,1178.3C1473.22,1145.16 1490.82,1117.16 1510.72,1097.99C1531.08,1078.38 1553.89,1067.93 1579.26,1070.23C1580.91,1070.38 1582.12,1071.84 1581.98,1073.49C1581.83,1075.14 1580.37,1076.36 1578.72,1076.21C1555.06,1074.07 1533.87,1084.03 1514.88,1102.32C1495.43,1121.05 1478.31,1148.44 1463.24,1180.83C1396.92,1323.37 1370.69,1562.06 1367.54,1592.77L1549.09,1592.77C1554.68,1564.4 1607.79,1296.09 1625.02,1247.37C1626.69,1242.63 1628.28,1239.75 1629.32,1238.82C1630.42,1237.85 1631.53,1237.7 1632.44,1237.85C1633.19,1237.98 1633.94,1238.34 1634.59,1239.11C1635.65,1240.38 1635.48,1242.27 1634.21,1243.33C1633.85,1243.64 1633.43,1243.85 1632.99,1243.95ZM1630.11,1243.09L1630.11,1243.1L1630.1,1243.09L1630.11,1243.09Z" style="fill:rgb(255,210,116);"/>
            <path d="M1896.91,1613.84L1864.68,1613.63C1863.68,1609.36 1864.41,1604.73 1867.08,1600.88C1858.74,1597.94 1854.23,1588.89 1857.01,1580.47C1859.79,1572.06 1868.85,1567.34 1877.36,1569.78C1877.6,1562.06 1883.41,1555.66 1891,1554.31L1896.91,1613.84ZM1703.62,1570.78C1704.04,1570.87 1704.46,1570.97 1704.88,1571.09C1705.15,1562.38 1712.51,1555.36 1721.51,1555.36C1730.51,1555.36 1737.86,1562.38 1738.14,1571.09C1746.64,1568.65 1755.71,1573.37 1758.49,1581.78C1761.27,1590.2 1756.75,1599.25 1748.41,1602.19C1750.65,1605.44 1751.53,1609.23 1751.16,1612.89L1712.76,1612.65L1703.62,1570.78ZM1511.82,1596.35C1504.99,1591.05 1503.44,1581.43 1508.3,1574.41C1499.96,1571.46 1495.45,1562.41 1498.23,1554C1501.01,1545.58 1510.07,1540.87 1518.58,1543.31C1518.85,1534.6 1526.21,1527.58 1535.21,1527.58C1544.2,1527.58 1551.56,1534.6 1551.84,1543.31C1555.27,1542.32 1558.79,1542.5 1561.96,1543.62L1549.67,1596.73L1538.28,1596.62C1537.15,1595.78 1536.11,1594.78 1535.21,1593.63C1534.33,1594.75 1533.32,1595.73 1532.22,1596.56L1511.82,1596.35ZM1789.45,1488.7C1789.73,1479.99 1797.08,1472.97 1806.08,1472.97C1815.08,1472.97 1822.44,1479.99 1822.71,1488.7C1831.22,1486.26 1840.28,1490.98 1843.06,1499.39C1845.84,1507.8 1841.33,1516.86 1832.99,1519.8C1837.97,1527.01 1836.21,1536.94 1828.93,1542.14C1821.66,1547.34 1811.51,1545.92 1806.08,1539.03C1800.65,1545.92 1790.51,1547.34 1783.23,1542.14C1775.95,1536.94 1774.19,1527.01 1779.18,1519.8C1770.84,1516.86 1766.32,1507.8 1769.1,1499.39C1771.88,1490.98 1780.94,1486.26 1789.45,1488.7ZM1380.21,1483.65C1380.89,1483.76 1381.56,1483.9 1382.23,1484.1C1382.51,1475.38 1389.87,1468.37 1398.86,1468.37C1407.86,1468.37 1415.22,1475.38 1415.49,1484.1C1424,1481.66 1433.06,1486.37 1435.84,1494.79C1438.62,1503.2 1434.11,1512.25 1425.77,1515.2C1430.75,1522.41 1428.99,1532.34 1421.71,1537.54C1414.44,1542.74 1404.29,1541.31 1398.86,1534.42C1393.43,1541.31 1383.29,1542.74 1376.01,1537.54C1374.24,1536.28 1372.8,1534.74 1371.71,1533.03C1374.12,1518.39 1376.96,1501.71 1380.21,1483.65ZM1666.93,1402.73C1670.62,1400.76 1675.06,1400.17 1679.36,1401.4C1679.63,1392.69 1686.99,1385.67 1695.99,1385.67C1704.98,1385.67 1712.34,1392.69 1712.61,1401.4C1721.12,1398.96 1730.18,1403.67 1732.96,1412.09C1735.74,1420.5 1731.23,1429.56 1722.89,1432.5C1727.88,1439.71 1726.12,1449.64 1718.84,1454.84C1711.56,1460.04 1701.41,1458.62 1695.99,1451.73C1691.89,1456.93 1685.1,1459.02 1678.88,1457.49L1666.93,1402.73ZM1484.55,1396.28C1484.82,1387.57 1492.18,1380.55 1501.18,1380.55C1510.17,1380.55 1517.53,1387.57 1517.81,1396.28C1526.31,1393.85 1535.38,1398.56 1538.16,1406.97C1540.94,1415.39 1536.42,1424.44 1528.08,1427.39C1533.07,1434.59 1531.31,1444.52 1524.03,1449.73C1516.75,1454.92 1506.6,1453.5 1501.18,1446.61C1495.75,1453.5 1485.6,1454.92 1478.32,1449.73C1471.04,1444.52 1469.29,1434.59 1474.27,1427.39C1465.93,1424.44 1461.42,1415.39 1464.2,1406.97C1466.98,1398.56 1476.04,1393.85 1484.55,1396.28ZM1864.32,1389.93C1863.58,1390.71 1862.76,1391.43 1861.85,1392.09C1854.57,1397.29 1844.42,1395.86 1838.99,1388.97C1833.57,1395.86 1823.42,1397.29 1816.14,1392.09C1808.86,1386.88 1807.1,1376.95 1812.09,1369.75C1803.75,1366.8 1799.23,1357.75 1802.01,1349.34C1804.79,1340.92 1813.86,1336.21 1822.36,1338.64C1822.64,1329.93 1830,1322.91 1838.99,1322.91C1843.29,1322.91 1847.22,1324.52 1850.18,1327.14L1864.32,1389.93ZM1604.46,1359.91C1604.12,1359.56 1603.8,1359.19 1603.49,1358.8C1598.07,1365.69 1587.92,1367.11 1580.64,1361.91C1573.36,1356.71 1571.6,1346.78 1576.59,1339.57C1568.25,1336.63 1563.73,1327.58 1566.51,1319.16C1569.29,1310.75 1578.36,1306.03 1586.87,1308.47C1587.14,1299.76 1594.5,1292.74 1603.49,1292.74C1609.75,1292.74 1615.22,1296.13 1618.05,1301.13L1604.46,1359.91ZM1433.22,1252.12C1433.37,1252.11 1433.52,1252.11 1433.67,1252.11C1442.67,1252.11 1450.03,1259.13 1450.3,1267.84C1458.81,1265.4 1467.87,1270.12 1470.65,1278.53C1473.43,1286.95 1468.92,1296 1460.58,1298.94C1465.57,1306.15 1463.81,1316.08 1456.53,1321.28C1449.25,1326.48 1439.1,1325.06 1433.67,1318.17C1428.98,1324.13 1420.74,1326 1413.9,1323.03C1419.91,1298.68 1426.37,1274.71 1433.22,1252.12ZM1723.74,1245.82C1724.01,1237.11 1731.24,1230.09 1740.09,1230.09C1748.94,1230.09 1756.18,1237.11 1756.44,1245.82C1764.81,1243.38 1773.72,1248.09 1776.46,1256.51C1779.19,1264.92 1774.75,1273.97 1766.55,1276.92C1771.45,1284.12 1769.73,1294.06 1762.57,1299.26C1755.41,1304.46 1745.43,1303.03 1740.09,1296.14C1734.75,1303.03 1724.77,1304.46 1717.62,1299.26C1710.46,1294.06 1708.73,1284.12 1713.63,1276.92C1705.43,1273.97 1700.99,1264.92 1703.73,1256.51C1706.46,1248.09 1715.37,1243.38 1723.74,1245.82ZM1501.23,1174.13C1501.5,1165.42 1508.86,1158.4 1517.86,1158.4C1526.85,1158.4 1534.21,1165.42 1534.48,1174.13C1542.99,1171.7 1552.06,1176.41 1554.84,1184.82C1557.62,1193.24 1553.1,1202.29 1544.76,1205.24C1549.75,1212.44 1547.99,1222.37 1540.71,1227.58C1533.43,1232.78 1523.28,1231.35 1517.86,1224.46C1512.43,1231.35 1502.28,1232.78 1495,1227.58C1487.72,1222.37 1485.97,1212.44 1490.95,1205.24C1482.61,1202.29 1478.1,1193.24 1480.88,1184.82C1483.66,1176.41 1492.72,1171.7 1501.23,1174.13ZM1623.27,1152.99C1623.55,1144.28 1630.9,1137.26 1639.9,1137.26C1648.9,1137.26 1656.26,1144.28 1656.53,1152.99C1665.04,1150.55 1674.1,1155.27 1676.88,1163.68C1679.66,1172.09 1675.15,1181.15 1666.81,1184.09C1671.79,1191.3 1670.04,1201.23 1662.76,1206.43C1655.48,1211.63 1645.33,1210.21 1639.9,1203.32C1634.48,1210.21 1624.33,1211.63 1617.05,1206.43C1609.77,1201.23 1608.01,1191.3 1613,1184.09C1604.66,1181.15 1600.14,1172.09 1602.92,1163.68C1605.7,1155.27 1614.77,1150.55 1623.27,1152.99ZM1739.7,1105.37C1752.95,1114.81 1768,1128.41 1780.14,1147.1C1778.73,1148.24 1777.11,1149.16 1775.31,1149.8C1780.29,1157 1778.54,1166.94 1771.26,1172.14C1763.98,1177.34 1753.83,1175.91 1748.4,1169.02C1742.98,1175.91 1732.83,1177.34 1725.55,1172.14C1718.27,1166.94 1716.51,1157 1721.5,1149.8C1713.16,1146.85 1708.64,1137.8 1711.42,1129.39C1714.2,1120.97 1723.27,1116.26 1731.77,1118.69C1731.95,1113.07 1735.08,1108.15 1739.7,1105.37ZM1523.34,1091.88C1535.16,1083.66 1559.87,1070.41 1591.64,1074.87C1593.58,1082.9 1589.11,1091.19 1581.2,1093.98C1586.18,1101.19 1584.43,1111.12 1577.15,1116.32C1569.87,1121.52 1559.72,1120.1 1554.29,1113.21C1548.87,1120.1 1538.72,1121.52 1531.44,1116.32C1524.16,1111.12 1522.4,1101.19 1527.39,1093.98C1525.91,1093.46 1524.55,1092.75 1523.34,1091.88Z" style="fill:rgb(255,210,116);"/>
        </g>
        <g>
            <path d="M1595.45,876.372C1588.5,876.801 1528.49,869.896 1483.36,917.43C1480.17,920.801 1477.37,924.526 1475.02,928.531C1459.37,955.118 1381.59,1088.76 1335.74,1180.09L1414.85,1232.93L1538.18,1023.06C1538.18,1023.06 1533.76,1057.95 1572.1,1073.04L1705.37,1086.4C1705.37,1086.4 1730.13,1080.75 1738.68,1045.4C1738.68,1045.4 1798.13,1105.14 1839.01,1146.23C1861.32,1168.66 1895.86,1173.42 1923.41,1157.88C1923.41,1157.88 1923.41,1157.88 1923.41,1157.88C1947.08,1144.53 1960.45,1118.29 1957.34,1091.29C1950.85,1034.99 1940.51,945.346 1940.51,945.346L1836.1,982.067L1841.27,1006.16C1841.27,1006.16 1769.18,907.213 1710.84,890.732C1710.84,890.732 1614.82,946.07 1595.45,876.372Z" style="fill:rgb(239,123,88);"/>
            <path d="M1831,988.402C1831,988.402 1855.21,1095.16 1855.59,1098.6C1855.79,1100.44 1857.44,1101.77 1859.28,1101.57C1861.12,1101.37 1862.45,1099.71 1862.25,1097.87C1861.88,1094.41 1837.54,986.92 1837.54,986.92C1837.13,985.114 1835.34,983.981 1833.53,984.39C1831.73,984.799 1830.59,986.597 1831,988.402Z" style="fill:rgb(171,73,74);"/>
            <path d="M1668.65,968.846L1725.17,973.79L1722.46,1001.84C1721.75,1009.16 1715.24,1014.52 1707.92,1013.82C1698.89,1012.94 1686.99,1011.79 1677.96,1010.92C1670.64,1010.21 1665.28,1003.7 1665.99,996.38L1668.65,968.846ZM1669.06,964.635L1670.21,952.744L1726.68,958.207L1725.58,969.579L1669.06,964.635Z" style="fill:rgb(136,201,211);"/>
            <path d="M1739.2,1046.77C1739.2,1046.77 1740.72,1035.42 1741.64,1023.47C1741.65,1022.08 1742.71,1020.94 1744.09,1020.82C1745.47,1020.7 1746.71,1021.65 1746.95,1023.01C1749.77,1036.41 1752.72,1052.11 1753.04,1060.27L1739.2,1046.77Z" style="fill:rgb(171,73,74);"/>
            <path d="M1538.35,1024.36C1538.35,1024.36 1540.33,1010.57 1542.04,998.681C1542.14,997.942 1541.67,997.245 1540.94,997.077C1540.21,996.909 1539.48,997.327 1539.25,998.038C1533.16,1017 1523.92,1045.78 1523.92,1045.78L1538.35,1024.36Z" style="fill:rgb(171,73,74);"/>
        </g>
        <g>
            <g>
                <g transform="matrix(0.99863,0.052321,-0.052321,0.99863,633.313,-65.4382)">
                    <path d="M772.299,1209.68C750.059,1267.74 741.192,1280.76 727.13,1329.94C724.768,1338.17 727.494,1347.01 734.077,1352.47C735.125,1353.33 736.201,1354.06 737.289,1354.59C738.407,1359.35 742.074,1367.39 748.913,1368.28C749.725,1373.04 753.814,1380.5 760.286,1381.61C760.286,1381.61 761.802,1384.59 763.836,1388.6C765.486,1391.84 768.969,1393.74 772.592,1393.35C776.214,1392.97 779.222,1390.38 780.153,1386.86C780.153,1386.86 780.154,1386.86 780.154,1386.86C789.529,1392.71 792.118,1390.55 798.622,1373.58C824.168,1287.84 810.031,1329.73 848.575,1256.03L772.299,1209.68Z" style="fill:rgb(171,73,74);"/>
                </g>
                <path d="M1838.3,983.66L1817.78,870.834C1817.78,870.834 1793.09,865.391 1805.41,849.682C1805.41,849.682 1785.15,839.029 1797.6,827.029C1797.6,827.029 1784.35,814.659 1797.45,805.116C1797.45,805.116 1788.98,789.005 1814.86,782.139L1816.58,798.538L1842.56,801.914L1840.64,785.474C1840.64,785.474 1854.68,788.986 1867.43,792.173C1879.93,795.3 1889.72,805.019 1892.94,817.5C1903.86,859.859 1928.12,953.921 1928.12,953.921L1838.3,983.66Z" style="fill:rgb(171,73,74);"/>
                <path d="M1610.15,874.443L1594.19,876.315C1594.19,876.315 1604.26,947.886 1710.3,890.929L1672.86,879.415L1667.78,852.061C1667.78,852.061 1671.35,838.294 1671.86,827.029C1671.86,827.029 1672.63,817.294 1671.92,813.108C1671.92,813.108 1651.58,806.371 1649.42,792.17C1649.42,792.17 1613.31,817.921 1602.12,803.461L1602.59,812.841C1602.59,812.841 1602.75,831.747 1611.7,851.025L1610.15,874.443Z" style="fill:rgb(171,73,74);"/>
                <path d="M1604.65,818.363C1604.07,817.823 1603.66,816.033 1603.19,815.311C1601.93,813.365 1600.19,811.507 1598.28,810.194C1596.7,809.114 1594.8,808.127 1592.84,808.161C1588.17,808.243 1585.48,813.601 1585.71,817.71C1586.07,824.273 1590.99,828.863 1597.42,829.589C1600.35,829.92 1603.04,829.241 1605.71,828.048" style="fill:rgb(171,73,74);"/>
                <g transform="matrix(1,0,0,1,-1.79877,-1.05163)">
                    <path d="M1668.9,822.672C1668.8,822.637 1669.62,821.455 1669.68,821.351C1670.61,819.903 1671.6,818.5 1672.71,817.185C1675.64,813.688 1683.1,806.754 1687.6,812.091C1689.54,814.402 1689.12,818.043 1688.25,820.694C1686.14,827.149 1679.6,832.576 1672.74,830.123" style="fill:rgb(171,73,74);"/>
                </g>
            </g>
            <path d="M1603.21,806.164C1603.21,806.164 1627.06,819.396 1651.17,793.816C1652.08,792.852 1652.03,791.331 1651.07,790.423C1650.1,789.515 1648.58,789.56 1647.67,790.524C1626.41,813.091 1605.51,801.948 1605.51,801.948C1604.35,801.315 1602.89,801.745 1602.25,802.908C1601.62,804.071 1602.05,805.53 1603.21,806.164Z"/>
            <path d="M1675.97,808.431L1675.8,807.053C1674.05,793.348 1663.31,782.53 1649.62,780.692C1644.61,780.019 1639.35,779.313 1634.37,778.644C1627.54,777.727 1620.63,779.726 1615.35,784.153C1610.07,788.58 1606.89,795.026 1606.6,801.913C1606.58,802.538 1606.56,803.032 1606.65,803.349C1607.04,804.614 1606.33,805.959 1605.07,806.349C1603.8,806.74 1602.46,806.029 1602.07,804.764C1601.86,804.089 1601.75,803.042 1601.81,801.709C1602.15,793.475 1605.95,785.768 1612.27,780.474C1618.59,775.181 1626.84,772.79 1635.01,773.887C1639.99,774.556 1645.25,775.262 1650.26,775.934C1666.11,778.063 1678.54,790.584 1680.56,806.447C1680.8,808.362 1680.96,809.57 1680.96,809.57C1681.09,810.613 1680.53,811.622 1679.57,812.057C1675.49,813.917 1673.06,815.221 1673.06,815.221C1672.62,815.459 1672.12,815.552 1671.62,815.489C1665.17,814.664 1659.88,810.877 1655.9,806.553C1650.18,800.33 1647.2,793.082 1647.2,793.082C1646.7,791.857 1647.28,790.454 1648.51,789.95C1649.73,789.446 1651.14,790.032 1651.64,791.257C1651.64,791.257 1654.31,797.735 1659.43,803.303C1662.54,806.678 1666.56,809.757 1671.51,810.618C1672.34,810.187 1673.87,809.414 1675.97,808.431Z"/>
            <g>
                <g transform="matrix(1,0,0,1,-0.49937,1.05595)">
                    <path d="M1612.24,849.833L1611.67,857.081C1611.67,857.081 1612.47,857.907 1612.93,858.378C1618.93,864.577 1630.01,871.819 1647.95,869.395C1647.91,869.4 1657.46,868.415 1667.33,858.857C1667.94,858.264 1669.53,856.921 1669.53,856.921L1668.25,851.042C1668.25,851.042 1667.7,851.351 1667.17,851.986C1657.62,863.359 1647.36,864.631 1647.36,864.631C1647.35,864.633 1647.33,864.635 1647.31,864.638C1627.93,867.257 1617.62,857.151 1613.57,851.714C1613.13,851.122 1612.24,849.833 1612.24,849.833Z" style="fill-opacity:0.7;"/>
                </g>
                <path d="M1339.83,1360.46C1339.87,1360.34 1339.92,1360.22 1339.98,1360.11C1341.82,1356.09 1344.95,1348.86 1346.53,1344.73C1346.92,1343.7 1348.08,1343.18 1349.11,1343.58C1350.14,1343.97 1350.66,1345.12 1350.26,1346.16C1348.65,1350.37 1345.5,1357.68 1343.61,1361.78C1343.5,1362.02 1343.41,1362.26 1343.32,1362.51L1339.83,1360.46Z" style="fill-opacity:0.55;"/>
                <path d="M1677.29,880.843L1672.64,878.9L1672.59,887.229C1672.63,888.552 1673.75,889.59 1675.07,889.544C1676.39,889.499 1677.43,888.387 1677.39,887.063L1677.29,880.843Z"/>
                <g transform="matrix(0.996778,0.0802156,-0.0802156,0.996778,72.8181,-126.077)">
                    <path d="M1612.89,873.788L1607.94,874.709L1608.81,884.768C1608.89,886.09 1610.04,887.092 1611.36,887.005C1612.68,886.917 1613.68,885.773 1613.6,884.452L1612.89,873.788Z"/>
                </g>
                <path d="M1602.66,829.133L1600.63,812.19C1601.33,812.857 1602.04,813.655 1602.76,814.59L1604.43,828.52C1603.87,828.816 1603.22,829.009 1602.66,829.133Z"/>
                <g transform="matrix(1,0,0,1,-2.51896,-1.14046)">
                    <path d="M1641.43,833.051C1639.26,832.597 1636.42,833.37 1635,834.764C1633.61,836.132 1632.58,839.25 1632.95,841.346C1634.43,849.862 1643.92,849.963 1647.4,845.682C1648.1,844.825 1647.97,843.564 1647.11,842.868C1646.26,842.172 1645,842.301 1644.3,843.158C1642.5,845.377 1637.66,845.073 1636.89,840.659C1636.72,839.694 1637.16,838.249 1637.8,837.619C1638.42,837.014 1639.67,836.77 1640.62,836.967C1641.7,837.192 1642.76,836.498 1642.99,835.417C1643.21,834.337 1642.52,833.276 1641.43,833.051Z"/>
                </g>
                <g transform="matrix(1,0,0,1,-2.51896,-1.14046)">
                    <path d="M1647.4,845.682C1649.67,842.888 1649.82,834.801 1641.43,833.051C1640.36,832.825 1639.3,833.52 1639.07,834.6C1638.84,835.681 1639.54,836.741 1640.62,836.967C1643.75,837.621 1644.86,839.792 1644.77,841.602C1644.74,842.225 1644.59,842.798 1644.3,843.158C1643.6,844.014 1643.73,845.275 1644.59,845.971C1645.45,846.668 1646.71,846.538 1647.4,845.682Z"/>
                </g>
                <path d="M1800.44,844.267C1801.2,844.568 1806.2,846.539 1806.43,846.617C1814.11,849.267 1821.98,851.337 1829.98,852.763C1831.28,852.996 1832.15,854.243 1831.92,855.547C1831.68,856.852 1830.44,857.721 1829.13,857.489C1820.89,856.019 1804.37,851.031 1804.37,851.031L1805.33,849.852C1801.47,847.456 1798.37,844.972 1796.8,842.701C1796.8,842.701 1800.37,844.215 1800.44,844.267Z" style="fill-opacity:0.73;"/>
                <g transform="matrix(1.06909,0,0,1.12042,-125.372,-103.436)">
                    <path d="M1793.63,822.758C1794.35,825.418 1796.29,828.021 1798.68,830.603C1798.68,830.603 1799.27,830.862 1799.57,830.989C1807.74,834.454 1817.69,836.312 1825.12,837.54C1826.34,837.742 1827.5,836.96 1827.71,835.795C1827.93,834.63 1827.11,833.521 1825.89,833.319C1816.48,831.763 1802.65,829.326 1794.61,823.349C1794.32,823.131 1793.63,822.758 1793.63,822.758Z" style="fill-opacity:0.76;"/>
                </g>
                <g transform="matrix(1,0,0,1,1.68353,-3.00822)">
                    <path d="M1795.35,802.719C1796.79,803.622 1800.22,805.028 1800.48,805.142C1807.69,808.396 1815.07,811.089 1822.64,813.394C1823.91,813.78 1824.62,815.122 1824.24,816.389C1823.85,817.656 1822.51,818.372 1821.24,817.986C1813.48,815.62 1805.9,812.857 1798.5,809.517C1798.37,809.46 1797.51,809.094 1796.45,808.62C1796.15,808.484 1795.75,808.287 1795.75,808.287C1794.91,806.102 1794.35,804.013 1794.44,802.171C1794.44,802.171 1795.39,802.673 1795.35,802.719Z"/>
                </g>
                <path d="M1810.65,798.133C1822.99,799.426 1835.53,803.841 1848.04,805.404C1849.36,805.569 1850.56,804.635 1850.72,803.32C1850.88,802.006 1849.95,800.806 1848.64,800.641C1836.09,799.074 1823.52,794.655 1811.16,793.359C1809.84,793.221 1808.66,794.178 1808.52,795.496C1808.38,796.813 1809.34,797.995 1810.65,798.133Z"/>
                <g transform="matrix(0.99398,-0.109561,0.109561,0.99398,-88.3758,205.931)">
                    <path d="M1821.97,869.615L1822.15,876.291C1822.15,876.291 1844.13,883.199 1857.78,881.829C1859.43,881.664 1860.71,880.33 1860.62,878.676C1860.53,877.023 1859.12,875.751 1857.47,875.838C1845.29,876.477 1821.97,869.615 1821.97,869.615Z"/>
                </g>
            </g>
        </g>
        <g transform="matrix(0.881302,-0.472553,0.472553,0.881302,-164.819,855.782)">
            <path d="M1627.08,766.63C1627.2,766.612 1627.32,766.605 1627.44,766.61C1628.55,766.653 1629.41,767.584 1629.37,768.687C1629.33,769.46 1628.98,770.003 1628.4,770.375C1628.07,770.588 1627.51,770.796 1626.79,770.697C1626.15,770.608 1625,770.112 1624.94,770.086C1623.33,769.359 1621.82,768.431 1620.38,767.407C1619.48,766.767 1619.27,765.517 1619.91,764.618C1620.55,763.719 1621.8,763.509 1622.7,764.149C1623.92,765.022 1625.21,765.819 1626.58,766.439L1627.08,766.63ZM1625.55,767.775C1625.45,767.967 1625.39,768.183 1625.38,768.426C1625.39,768.195 1625.46,767.976 1625.55,767.775Z" style="fill:rgb(136,201,211);"/>
        </g>
        <g transform="matrix(0.881302,-0.472553,0.472553,0.881302,-164.819,855.782)">
            <path d="M1627.11,764.156C1627.15,763.928 1627.19,763.739 1627.23,763.601C1628.53,758.531 1628.42,752.631 1627.2,747.555C1627,746.712 1626.75,745.873 1626.43,745.068C1626.02,744.043 1626.52,742.878 1627.55,742.468C1628.57,742.058 1629.74,742.557 1630.14,743.582C1630.54,744.567 1630.84,745.591 1631.09,746.621C1632.45,752.308 1632.56,758.918 1631.1,764.597C1630.88,765.445 1630.46,768.067 1629.69,769.738C1629.1,771.037 1628.21,771.859 1627.35,772.127C1626.49,772.395 1625.66,772.21 1624.99,771.409C1624.78,771.153 1624.56,770.758 1624.41,770.288C1624.25,769.798 1624.16,769.176 1624.12,769.022C1623.91,768.082 1623.72,767.13 1623.5,766.187C1623.44,766.45 1623.33,766.706 1623.17,766.938C1622.53,767.837 1621.28,768.048 1620.38,767.407C1616.63,764.738 1612.62,760.805 1610.89,756.453C1610.53,755.536 1610.03,754.012 1610.01,752.659C1610,751.281 1610.45,750.063 1611.44,749.254C1612.51,748.379 1613.88,748.242 1615.3,748.695C1616.63,749.119 1618.01,750.112 1618.76,750.718C1622.33,753.578 1625.04,757.965 1626.53,762.25C1626.75,762.876 1626.94,763.512 1627.11,764.156ZM1623.04,764.458C1622.95,764.159 1622.86,763.862 1622.75,763.568C1621.5,759.963 1619.26,756.244 1616.26,753.838C1615.84,753.502 1615.15,752.964 1614.42,752.634C1614.31,752.587 1614.16,752.541 1614.03,752.507C1614.03,752.651 1614.02,752.83 1614.04,752.958C1614.13,753.712 1614.41,754.479 1614.61,754.978C1616.06,758.65 1619.54,761.897 1622.7,764.149C1622.83,764.24 1622.94,764.344 1623.04,764.458Z" style="fill:rgb(136,201,211);"/>
        </g>
        <g transform="matrix(0.881302,-0.472553,0.472553,0.881302,-164.819,855.782)">
            <path d="M1626.16,744.485C1626.08,744.645 1626,744.807 1625.95,744.955C1625.49,746.184 1625.18,747.664 1625.13,748.645C1625.02,750.522 1625.14,752.395 1625.34,754.262C1625.63,757.033 1626.15,759.779 1626.83,762.482C1627.1,763.552 1626.45,764.639 1625.38,764.908C1624.31,765.176 1623.22,764.525 1622.95,763.454C1622.23,760.572 1621.68,757.642 1621.36,754.686C1621.14,752.604 1621.02,750.515 1621.13,748.422C1621.24,746.619 1621.96,743.57 1623.02,741.826C1623.8,740.534 1624.85,739.852 1625.82,739.741C1626.57,739.655 1627.38,739.826 1628.19,740.507C1628.8,741.016 1629.5,741.964 1630.14,743.582C1630.56,744.607 1630.06,745.772 1629.03,746.182C1628.01,746.592 1626.84,746.093 1626.43,745.068C1626.35,744.871 1626.26,744.671 1626.16,744.485Z" style="fill:rgb(136,201,211);"/>
        </g>
        <g id="FLAG">
            <path d="M1790.58,504.852C1790.58,504.852 1531.34,399.465 1335.82,481.736L1368.54,506.661L1309.08,557.534C1309.08,557.534 1675.75,552.036 1800.26,606.313L1790.58,504.852Z" style="fill:rgb(136,201,211);"/>
            <path d="M1825.18,878.048C1829.14,879.269 1840.11,879.863 1850.67,879.43L1855.75,914.14L1828.71,915.96L1825.18,878.048ZM1815.69,793.912L1784.14,498.033L1807.5,498.086L1842.66,799.597L1815.69,793.912Z" style="fill:rgb(34,77,153);"/>
        </g>
    </g>
    <g id="CHARACTER-2" serif:id="CHARACTER 2" transform="matrix(1,0,0,1,319.065,-136.885)">
        <g id="PANTS">
            <g transform="matrix(1,0,0,0.994393,0,10.0165)">
                <path d="M934.285,1099.21L1168.31,1098.15C1168.31,1098.15 1326.85,1518.51 1291.1,1786.37L1139.97,1786.37L1049.18,1232.99L958.4,1786.37L807.264,1786.37C771.518,1518.51 934.285,1099.21 934.285,1099.21Z" style="fill:rgb(34,77,153);"/>
            </g>
            <path d="M1214.56,1239.75L1155.31,1190.57C1153.23,1188.86 1152.93,1185.79 1154.65,1183.71C1156.36,1181.63 1159.43,1181.33 1161.51,1183.05L1209.55,1221.64L1214.56,1239.75ZM894.013,1218.6L953.965,1176.17C956.163,1174.62 959.21,1175.14 960.765,1177.34C962.32,1179.53 961.799,1182.58 959.601,1184.13L889.198,1233.96L894.013,1218.6ZM904.26,1185.91C907.446,1183.7 910.339,1181.65 912.219,1180.21C926.58,1169.22 944.464,1154.91 944.464,1154.91C946.566,1153.23 949.639,1153.57 951.321,1155.67C953.003,1157.78 952.661,1160.85 950.559,1162.53C950.559,1162.53 932.583,1176.91 918.148,1187.96C914.036,1191.11 905.985,1196.68 899.527,1201.01L904.26,1185.91ZM1203.19,1201.21L1156.81,1163.01C1154.74,1161.29 1154.46,1158.21 1156.18,1156.14C1157.9,1154.07 1160.98,1153.79 1163.05,1155.51L1197.17,1182.83L1201.62,1196.97L1203.19,1201.21Z" style="fill:rgb(98,141,223);"/>
        </g>
        <g id="SHOES">
            <path d="M806.491,1782.68L811.071,1835.69C811.071,1835.69 777.112,1840.11 774.093,1861.81L948.87,1854.16L958.455,1785.8L806.491,1782.68Z" style="fill:rgb(255,210,116);"/>
            <path d="M949.359,1850.91L776.455,1857.73C774.606,1857.81 773.171,1859.38 773.251,1861.23C773.332,1863.08 774.899,1864.51 776.748,1864.43L948.77,1857.59L949.359,1850.91Z" style="fill:rgb(34,77,153);"/>
            <g transform="matrix(-1,0,0,1,2096.81,1.69787)">
                <path d="M806.491,1782.68L811.071,1835.69C811.071,1835.69 777.112,1840.11 774.093,1861.81L948.87,1854.16L958.455,1785.8L806.491,1782.68Z" style="fill:rgb(255,210,116);"/>
            </g>
            <path d="M1148.54,1858.96L1319.94,1866.36C1321.79,1866.44 1323.36,1865 1323.44,1863.15C1323.52,1861.3 1322.09,1859.74 1320.24,1859.65L1147.46,1852.53L1148.54,1858.96Z" style="fill:rgb(34,77,153);"/>
        </g>
        <g id="skin">
            <g>
                <g transform="matrix(0.953064,0,0,1,601.44,-38.5133)">
                    <path d="M633.672,1168.57C672.52,1252.65 709.912,1337.28 725.178,1401.88C725.178,1401.88 735.924,1405.35 734.506,1376.01C734.506,1376.01 734.799,1343.05 745.389,1347.57C745.389,1347.57 775.58,1385.34 777.758,1433.82C777.758,1433.82 789.661,1442.87 790.831,1412.83C790.831,1412.83 797.507,1406.66 796.393,1395.42C796.393,1395.42 802.69,1385.86 801.861,1376.01C801.861,1376.01 811.251,1368.78 809.41,1343.98C807.578,1319.29 734.302,1168.75 723.497,1142.39L633.672,1168.57Z" style="fill:rgb(75,0,0);"/>
                </g>
                <path d="M1010.22,794.161C1011.83,785.254 1014.61,777.276 1017.43,770.798C1022.01,760.434 1032.31,753.78 1043.64,753.867C1051.15,753.925 1057.99,755.231 1064.93,755.306C1073.51,755.372 1083.06,759.436 1086.15,767.443C1090.36,778.381 1091.65,789.624 1091.59,799.394C1092.48,798.699 1093.47,798.114 1094.5,797.674C1098.75,795.843 1103.23,797.882 1104.71,802.32C1107.55,810.838 1097.86,823.034 1088.74,823.256C1088.57,823.952 1088.4,824.575 1088.25,825.121C1086.32,831.976 1083.98,835.85 1083.98,835.85L1084.24,862.831L1116.64,868.641C1033.24,939.631 992.222,868.641 992.222,868.641L1015.1,868.641L1015.46,841.453C1009.15,830.153 1008.5,817.142 1008.76,808.631C1008.12,809.304 1007.42,809.922 1006.62,810.439C1001.45,813.776 996.655,811.477 993.862,806.426C990.718,800.739 989.669,792.593 993.868,787.141C998.351,781.32 1004.4,784.494 1007.82,789.555C1008.8,790.994 1009.58,792.546 1010.22,794.161Z" style="fill:rgb(75,0,0);"/>
                <path d="M1011.21,788.77C1011.21,788.77 1034.89,783.048 1037.7,765.488C1037.7,765.488 1058.11,778.038 1077.9,767.853C1077.9,767.853 1078.89,796.793 1092.2,800.538C1092.2,800.538 1092.33,786.982 1092.44,774.558C1092.54,763.326 1083.65,754.072 1072.42,753.723C1060.6,753.356 1045.76,752.895 1034.11,752.533C1023.25,752.196 1013.99,760.321 1012.91,771.126C1011.99,780.329 1011.11,789.277 1011.21,788.77Z"/>
                <path d="M804.399,1103.88C804.399,1103.88 742.314,1297.42 729.696,1336.75C727.448,1343.76 730.68,1351.35 737.286,1354.59C737.287,1354.59 737.288,1354.59 737.289,1354.59C738.407,1359.35 742.074,1367.39 748.913,1368.28C749.725,1373.04 753.814,1380.5 760.286,1381.61C760.286,1381.61 761.802,1384.59 763.836,1388.6C765.486,1391.84 768.969,1393.74 772.592,1393.35C776.214,1392.97 779.222,1390.38 780.153,1386.86C780.153,1386.86 780.154,1386.86 780.154,1386.86C789.529,1392.71 792.118,1390.55 798.622,1373.58C827.745,1297.56 863.12,1209.62 899.413,1129.8L804.399,1103.88Z" style="fill:rgb(75,0,0);"/>
                <path d="M777.066,1390.77L784.925,1363.6C785.385,1362.01 787.049,1361.09 788.64,1361.55C790.231,1362.01 791.148,1363.68 790.688,1365.27L783.754,1389.24C781.65,1388.21 780.477,1386.88 780.477,1386.88C779.906,1388.63 778.572,1389.88 777.066,1390.77Z" style="fill:rgb(165,76,54);"/>
            </g>
            <g>
                <path d="M1015.61,840.582C1017.06,842.668 1018.86,844.524 1020.73,846.231C1027.18,852.125 1034.21,857.757 1043.16,858.709C1051.32,859.577 1059.21,857.001 1066.22,852.577C1073.11,848.225 1079.15,842.086 1083.76,835.523L1083.97,843.116C1079.63,848.313 1074.47,853.039 1068.78,856.636C1060.85,861.644 1051.89,864.464 1042.65,863.482C1032.66,862.419 1024.69,856.354 1017.49,849.775C1016.8,849.139 1016.11,848.483 1015.44,847.805L1015.61,840.582Z" style="fill:rgb(165,76,54);"/>
                <g transform="matrix(1,0,0,1,1.25956,-4.70506)">
                    <path d="M1043.04,817.557C1039.17,816.978 1035.12,818.448 1033.59,821.531C1032.44,823.819 1032.64,827.855 1034.52,829.925C1036.86,832.499 1041.17,833.977 1044.66,833.438C1047.34,833.024 1049.53,831.521 1050.39,828.749C1050.72,827.695 1050.12,826.574 1049.07,826.248C1048.02,825.923 1046.89,826.515 1046.57,827.569C1046.2,828.755 1045.19,829.308 1044.04,829.485C1041.79,829.834 1038.99,828.902 1037.48,827.237C1037.07,826.782 1036.91,826.09 1036.85,825.406C1036.79,824.648 1036.89,823.872 1037.16,823.315C1038,821.637 1040.34,821.198 1042.45,821.513C1043.54,821.676 1044.56,820.922 1044.72,819.831C1044.89,818.739 1044.13,817.72 1043.04,817.557Z" style="fill:rgb(165,76,54);"/>
                </g>
                <g transform="matrix(1,0,0,1,1.25956,-4.70506)">
                    <path d="M1050.39,828.749C1051.22,826.076 1050.92,823.875 1050.03,822.146C1048.72,819.586 1045.99,817.997 1043.04,817.557C1041.95,817.394 1040.93,818.147 1040.77,819.239C1040.6,820.331 1041.36,821.35 1042.45,821.513C1044.11,821.761 1045.73,822.53 1046.48,823.974C1046.96,824.915 1047.02,826.115 1046.57,827.569C1046.24,828.624 1046.83,829.745 1047.89,830.07C1048.94,830.396 1050.06,829.804 1050.39,828.749Z" style="fill:rgb(165,76,54);"/>
                </g>
                <g transform="matrix(1,0,0,1,0.634205,-0.286867)">
                    <path d="M1009.65,794.546L1008.14,791.348C1008.14,791.348 1008.12,791.57 1008.11,791.685C1007.62,796.442 1006.19,810.622 1006.19,810.622C1006.94,810.103 1007.63,809.524 1008.22,808.786C1008.22,808.786 1009.19,799.18 1009.62,794.952C1009.63,794.778 1009.65,794.546 1009.65,794.546Z" style="fill:rgb(165,76,54);"/>
                </g>
                <g transform="matrix(0.993745,0.111674,-0.111674,0.993745,96.3728,-114.914)">
                    <path d="M1091.13,797.434C1091.74,796.74 1092.43,796.218 1093.15,795.762C1093.15,795.762 1093.64,798.789 1093.69,799.303C1094.49,806.515 1093.42,820.821 1093.42,820.821C1092.62,821.209 1091.77,821.392 1090.91,821.508C1090.91,821.508 1092.1,807.049 1091.27,799.572C1091.24,799.333 1091.22,799.081 1091.19,798.818C1091.16,798.498 1091.13,797.434 1091.13,797.434Z" style="fill:rgb(165,76,54);"/>
                </g>
                <path d="M1015.14,866.425L1015.24,878.719C1015.25,880.375 1013.92,881.729 1012.26,881.741C1010.6,881.754 1009.25,880.42 1009.24,878.764L1009.16,868.613L1015.03,868.368L1015.14,866.425Z" style="fill:rgb(165,76,54);"/>
                <path d="M1084.17,862.9L1090.16,863.896L1090.08,872.355C1090.07,874.01 1088.71,875.342 1087.05,875.326C1085.4,875.31 1084.07,873.953 1084.08,872.298L1084.17,862.9Z" style="fill:rgb(165,76,54);"/>
                <path d="M1353.61,1387.14C1353.31,1386.68 1353.12,1386.13 1353.12,1385.54C1352.93,1372.68 1351.63,1360.54 1348.49,1348.03C1346.2,1338.91 1341.58,1327.43 1340.22,1319.22C1339.95,1317.58 1341.06,1316.04 1342.69,1315.77C1344.32,1315.5 1345.87,1316.6 1346.14,1318.24C1347.48,1326.32 1352.06,1337.6 1354.31,1346.57C1356.26,1354.36 1357.53,1362 1358.28,1369.75C1357.48,1371.42 1356.41,1373.09 1354.98,1374.61C1354.98,1374.61 1355.15,1381.88 1353.61,1387.14ZM1360.06,1364.26C1359.24,1353.14 1357.68,1342.48 1355.1,1331.4C1354.04,1326.81 1352.95,1322.22 1351.8,1317.65C1351.41,1316.13 1351.01,1314.61 1350.55,1313.11C1350.42,1312.66 1349.91,1311.83 1349.75,1311.34C1349.5,1310.56 1349.54,1309.9 1349.64,1309.47C1349.85,1308.56 1350.35,1307.92 1351.04,1307.5C1351.58,1307.16 1352.42,1306.81 1353.65,1307.17C1355.01,1307.57 1355.87,1308.85 1355.8,1310.2C1356,1310.62 1356.22,1311.12 1356.3,1311.37C1356.78,1312.96 1357.21,1314.57 1357.62,1316.18C1358.78,1320.79 1359.87,1325.41 1360.95,1330.04C1362.37,1336.14 1363.48,1342.12 1364.35,1348.11C1363.63,1350.86 1362.41,1353.9 1360.41,1356.94C1360.41,1356.94 1360.85,1360.15 1360.06,1364.26ZM1365.91,1337.05C1365.22,1332.57 1364.41,1328.12 1363.46,1323.74C1362.03,1317.05 1359.15,1310.01 1358.44,1303.22C1358.26,1301.58 1359.46,1300.1 1361.11,1299.93C1362.75,1299.76 1364.23,1300.95 1364.4,1302.6C1365.09,1309.18 1367.94,1315.99 1369.33,1322.47C1369.78,1324.57 1370.2,1326.68 1370.6,1328.8C1369.86,1331.48 1368.46,1335.05 1365.91,1337.05ZM1352.21,1312.99L1352.22,1312.99L1352.17,1312.98L1352.21,1312.99ZM1352.1,1312.97L1351.96,1312.93C1352.01,1312.94 1352.06,1312.96 1352.1,1312.97Z" style="fill:rgb(165,76,54);"/>
                <path d="M1101.38,841.346C1101.38,841.346 1113.12,697.558 1112.3,692.842" style="fill:none;"/>
            </g>
        </g>
        <g id="TOP">
            <path d="M866.573,1118.84C866.537,1118.78 866.502,1118.73 866.468,1118.67C864.747,1115.84 865.647,1112.15 868.476,1110.43L886.533,1099.44C889.362,1097.72 893.056,1098.62 894.777,1101.45C896.498,1104.28 895.599,1107.97 892.77,1109.69L874.713,1120.68C874.594,1120.75 874.475,1120.82 874.353,1120.88L866.573,1118.84ZM1228.77,1120.25L1228.02,1104.1C1227.87,1100.79 1230.43,1097.98 1233.74,1097.83C1237.05,1097.67 1239.85,1100.24 1240.01,1103.54L1240.61,1116.62L1228.77,1120.25ZM941.636,1103.28C941.317,1102.27 941.257,1101.17 941.519,1100.07L946.413,1079.51C947.18,1076.29 950.418,1074.3 953.639,1075.07C956.861,1075.83 958.854,1079.07 958.087,1082.29L953.193,1102.85C953.176,1102.92 953.158,1102.99 953.138,1103.06L941.636,1103.28ZM991.654,1103.07L1003.09,1090.34C1005.3,1087.88 1009.1,1087.68 1011.56,1089.89C1014.02,1092.11 1014.22,1095.9 1012.01,1098.37L1008.06,1102.76L991.654,1103.07ZM1080.76,1102.49L1079.55,1100.72C1077.68,1097.98 1078.38,1094.25 1081.12,1092.38C1083.85,1090.51 1087.59,1091.21 1089.46,1093.94L1095.12,1102.22L1080.76,1102.49ZM1139.95,1102.36C1139.79,1102.23 1139.62,1102.08 1139.47,1101.92C1137.14,1099.57 1137.16,1095.77 1139.51,1093.44L1154.52,1078.56C1156.88,1076.23 1160.68,1076.25 1163.01,1078.6C1165.34,1080.95 1165.32,1084.76 1162.97,1087.09L1147.95,1101.96C1147.86,1102.05 1147.77,1102.14 1147.68,1102.22L1139.95,1102.36ZM809.769,1082.44L819.708,1083.91C822.984,1084.4 825.25,1087.45 824.766,1090.73C824.281,1094 821.228,1096.27 817.952,1095.79L805.264,1093.91L809.769,1082.44ZM1189.97,1068.95L1192.62,1089.92C1193.03,1093.21 1196.03,1095.54 1199.32,1095.13C1202.6,1094.71 1204.93,1091.71 1204.52,1088.42L1201.88,1067.45C1201.47,1064.17 1198.46,1061.84 1195.18,1062.25C1191.89,1062.66 1189.56,1065.67 1189.97,1068.95ZM1278.37,1082.59L1259.34,1073.37C1256.36,1071.93 1252.77,1073.18 1251.33,1076.16C1249.88,1079.14 1251.13,1082.73 1254.11,1084.17L1273.13,1093.39C1276.11,1094.83 1279.71,1093.58 1281.15,1090.6C1282.59,1087.62 1281.35,1084.03 1278.37,1082.59ZM862.155,1077.56L855.742,1057.42C854.737,1054.27 851.36,1052.52 848.204,1053.53C845.049,1054.53 843.303,1057.91 844.308,1061.06L850.721,1081.2C851.726,1084.36 855.103,1086.1 858.259,1085.1C861.414,1084.1 863.16,1080.72 862.155,1077.56ZM1035.09,1081.68L1056.08,1084.15C1059.37,1084.54 1062.36,1082.19 1062.74,1078.9C1063.13,1075.61 1060.78,1072.62 1057.49,1072.24L1036.5,1069.76C1033.21,1069.38 1030.22,1071.73 1029.83,1075.02C1029.45,1078.31 1031.8,1081.29 1035.09,1081.68ZM1118.06,1058.37L1098.28,1065.83C1095.18,1067 1093.62,1070.47 1094.79,1073.57C1095.95,1076.66 1099.42,1078.23 1102.52,1077.06L1122.29,1069.6C1125.39,1068.43 1126.96,1064.97 1125.79,1061.87C1124.62,1058.77 1121.16,1057.21 1118.06,1058.37ZM987.528,1044.9L977.714,1063.62C976.177,1066.55 977.309,1070.18 980.242,1071.72C983.175,1073.26 986.805,1072.12 988.342,1069.19L998.156,1050.47C999.694,1047.54 998.561,1043.91 995.628,1042.37C992.695,1040.83 989.066,1041.97 987.528,1044.9ZM911.079,1054.72L890.363,1058.92C887.118,1059.57 885.016,1062.74 885.674,1065.99C886.331,1069.23 889.5,1071.34 892.745,1070.68L913.461,1066.48C916.707,1065.83 918.808,1062.66 918.151,1059.41C917.493,1056.16 914.324,1054.06 911.079,1054.72ZM1239.38,1038.95L1222.21,1051.27C1219.52,1053.2 1218.9,1056.96 1220.83,1059.65C1222.76,1062.34 1226.51,1062.95 1229.2,1061.02L1246.38,1048.7C1249.07,1046.77 1249.68,1043.02 1247.75,1040.33C1245.82,1037.64 1242.07,1037.02 1239.38,1038.95ZM1064.62,1029.77L1067.18,1050.75C1067.59,1054.04 1070.58,1056.38 1073.87,1055.98C1077.16,1055.58 1079.5,1052.58 1079.1,1049.3L1076.53,1028.32C1076.13,1025.03 1073.13,1022.69 1069.85,1023.09C1066.56,1023.49 1064.22,1026.49 1064.62,1029.77ZM1140.81,1022.78L1146.72,1043.07C1147.65,1046.25 1150.98,1048.08 1154.16,1047.15C1157.34,1046.23 1159.17,1042.89 1158.25,1039.71L1152.33,1019.42C1151.41,1016.24 1148.07,1014.42 1144.89,1015.34C1141.71,1016.27 1139.88,1019.6 1140.81,1022.78ZM1017.58,1022.97L1027.96,1041.38C1029.58,1044.27 1033.25,1045.29 1036.13,1043.66C1039.02,1042.04 1040.04,1038.38 1038.41,1035.49L1028.04,1017.08C1026.41,1014.19 1022.75,1013.17 1019.86,1014.79C1016.98,1016.42 1015.96,1020.08 1017.58,1022.97ZM832.764,1023.93L839.492,1017.5C841.885,1015.21 845.686,1015.29 847.976,1017.68C850.265,1020.07 850.182,1023.88 847.789,1026.16L832.519,1040.78C830.652,1042.57 827.925,1042.91 825.73,1041.83L832.764,1023.93ZM941.241,1023.47L957.212,1037.31C959.714,1039.48 963.507,1039.21 965.676,1036.71C967.845,1034.21 967.575,1030.42 965.072,1028.25L949.102,1014.4C946.6,1012.23 942.807,1012.5 940.638,1015C938.469,1017.51 938.739,1021.3 941.241,1023.47ZM895.873,1011.43L880.603,1026.04C878.21,1028.33 878.127,1032.13 880.417,1034.52C882.706,1036.92 886.508,1037 888.9,1034.71L904.17,1020.1C906.562,1017.81 906.646,1014 904.356,1011.61C902.066,1009.22 898.265,1009.14 895.873,1011.43ZM1200.12,1018.5L1179.88,1012.4C1176.71,1011.44 1173.36,1013.24 1172.41,1016.41C1171.45,1019.58 1173.25,1022.93 1176.42,1023.89L1196.66,1029.99C1199.83,1030.94 1203.18,1029.15 1204.13,1025.98C1205.09,1022.81 1203.29,1019.46 1200.12,1018.5ZM1110.78,998.049L1097.53,1014.52C1095.45,1017.1 1095.86,1020.88 1098.44,1022.95C1101.02,1025.03 1104.8,1024.62 1106.88,1022.04L1120.13,1005.57C1122.2,1002.99 1121.79,999.211 1119.21,997.135C1116.63,995.059 1112.85,995.469 1110.78,998.049ZM1257.38,1010.34C1255.94,1012.9 1252.79,1014.08 1249.97,1012.98L1230.28,1005.3C1227.2,1004.09 1225.67,1000.61 1226.87,997.527C1228.08,994.442 1231.56,992.914 1234.64,994.118L1254.11,1001.71L1257.38,1010.34ZM989.293,986.912L969.633,994.674C966.553,995.89 965.04,999.378 966.256,1002.46C967.472,1005.54 970.96,1007.05 974.04,1005.84L993.699,998.074C996.78,996.858 998.293,993.37 997.077,990.289C995.861,987.209 992.373,985.696 989.293,986.912ZM1054.69,974.21L1045.93,993.447C1044.56,996.461 1045.89,1000.02 1048.9,1001.39C1051.92,1002.77 1055.48,1001.43 1056.85,998.419L1065.61,979.182C1066.98,976.168 1065.65,972.607 1062.63,971.235C1059.62,969.863 1056.06,971.196 1054.69,974.21ZM850.491,978.829L863.116,983.108C866.252,984.171 867.935,987.58 866.872,990.716C865.809,993.853 862.4,995.536 859.264,994.473L846.097,990.01L850.491,978.829ZM916.4,985.847L913.163,964.96C912.656,961.687 909.587,959.442 906.315,959.949C903.043,960.456 900.798,963.525 901.305,966.797L904.542,987.684C905.049,990.957 908.118,993.202 911.39,992.695C914.662,992.188 916.907,989.119 916.4,985.847ZM1139.09,982.949L1159.75,987.432C1162.98,988.134 1166.18,986.077 1166.88,982.841C1167.59,979.605 1165.53,976.407 1162.29,975.705L1141.64,971.222C1138.4,970.52 1135.2,972.577 1134.5,975.813C1133.8,979.05 1135.86,982.247 1139.09,982.949ZM1003.49,962.445L1015.3,979.976C1017.15,982.723 1020.88,983.451 1023.63,981.601C1026.37,979.751 1027.1,976.02 1025.25,973.273L1013.45,955.742C1011.6,952.995 1007.86,952.267 1005.12,954.117C1002.37,955.967 1001.64,959.698 1003.49,962.445ZM1201.28,973.872L1196.99,953.175C1196.32,949.933 1193.14,947.846 1189.89,948.518C1186.65,949.19 1184.57,952.368 1185.24,955.611L1189.53,976.307C1190.2,979.55 1193.38,981.637 1196.62,980.965C1199.86,980.292 1201.95,977.114 1201.28,973.872ZM1100.54,968.973L1107.41,948.982C1108.48,945.85 1106.81,942.434 1103.68,941.359C1100.55,940.283 1097.13,941.953 1096.06,945.085L1089.19,965.075C1088.12,968.207 1089.79,971.623 1092.92,972.699C1096.05,973.774 1099.47,972.105 1100.54,968.973ZM965.687,967.017L967.893,945.996C968.238,942.702 965.845,939.748 962.551,939.402C959.258,939.057 956.304,941.45 955.958,944.744L953.753,965.765C953.407,969.058 955.8,972.012 959.094,972.358C962.387,972.703 965.342,970.31 965.687,967.017ZM1231.02,940.948L1238.59,960.859L1237.45,966.015C1236.74,969.249 1233.53,971.295 1230.3,970.583C1227.07,969.87 1225.02,966.666 1225.73,963.432L1230.28,942.791C1230.43,942.121 1230.68,941.502 1231.02,940.948ZM1043.11,923.746L1034.36,942.982C1032.99,945.996 1034.32,949.557 1037.33,950.929C1040.35,952.301 1043.91,950.968 1045.28,947.954L1054.04,928.717C1055.41,925.703 1054.07,922.142 1051.06,920.771C1048.05,919.399 1044.49,920.732 1043.11,923.746ZM866.511,938.067L881.225,927.241C883.892,925.279 887.651,925.851 889.614,928.518C891.576,931.186 891.004,934.944 888.337,936.907L871.312,949.433C868.644,951.395 864.885,950.823 862.923,948.156C862.838,948.041 862.759,947.924 862.684,947.805L866.511,938.067ZM932.375,938.843L931.855,917.713C931.773,914.403 929.02,911.781 925.709,911.862C922.399,911.944 919.777,914.698 919.859,918.008L920.379,939.138C920.46,942.449 923.214,945.07 926.525,944.989C929.835,944.907 932.457,942.153 932.375,938.843ZM1148.68,941.798L1162.48,925.781C1164.64,923.272 1164.35,919.48 1161.84,917.319C1159.33,915.159 1155.54,915.442 1153.38,917.951L1139.59,933.967C1137.43,936.477 1137.71,940.268 1140.22,942.429C1142.73,944.59 1146.52,944.307 1148.68,941.798ZM982.37,919.525L999.99,931.198C1002.75,933.027 1006.48,932.271 1008.31,929.51C1010.13,926.749 1009.38,923.023 1006.62,921.194L988.997,909.521C986.236,907.693 982.51,908.449 980.681,911.21C978.853,913.971 979.609,917.697 982.37,919.525ZM1080.31,892.485C1081.18,893.509 1081.72,894.833 1081.75,896.285L1082.08,917.419C1082.13,920.73 1079.49,923.461 1076.18,923.513C1072.87,923.566 1070.14,920.921 1070.08,917.61C1070.08,917.61 1069.75,896.737 1069.76,896.645C1073.38,895.609 1076.91,893.9 1080.31,892.485ZM1124.18,912.516L1116.68,892.754C1115.51,889.658 1112.04,888.098 1108.94,889.273C1105.85,890.448 1104.29,893.915 1105.46,897.012L1112.96,916.773C1114.13,919.869 1117.6,921.429 1120.7,920.254C1123.79,919.079 1125.35,915.612 1124.18,912.516ZM1202.82,897.011C1205.8,899.691 1208.62,902.557 1211.25,905.593L1196.11,918.386C1193.59,920.523 1189.8,920.205 1187.66,917.676C1185.52,915.147 1185.84,911.358 1188.37,909.22L1202.82,897.011ZM1005.06,883.594C1012.54,890.087 1017.35,892.298 1024.9,895.972L1027.95,899.614C1030.1,902.127 1029.81,905.918 1027.3,908.075C1024.79,910.232 1021,909.943 1018.84,907.43L1005.07,891.393C1003.08,889.066 1003.03,885.801 1005.06,883.594ZM902.884,885.875L908.756,888.754C911.729,890.213 912.959,893.81 911.501,896.783C910.043,899.757 906.445,900.987 903.472,899.529L892.168,893.985C895.488,890.969 899.074,888.254 902.884,885.875ZM961.262,874.543L942.766,884.772C939.868,886.374 938.817,890.028 940.419,892.926C942.022,895.824 945.676,896.876 948.573,895.273L967.07,885.044C969.968,883.442 971.019,879.788 969.417,876.89C967.814,873.992 964.16,872.94 961.262,874.543ZM1161.37,875.04C1165.57,876.08 1169.66,877.393 1173.64,878.961C1174.12,882.106 1172.05,885.113 1168.9,885.753L1148.19,889.963C1144.94,890.623 1141.78,888.523 1141.12,885.278C1140.46,882.033 1142.56,878.863 1145.8,878.203L1161.37,875.04Z" style="fill:rgb(255,210,116);"/>
            <path d="M911.941,879.428C914.953,878.313 956.338,865.053 991.777,868.28C992.248,868.323 992.115,868.349 992.115,868.349L996.619,874.676C996.619,874.676 991.363,874.266 990.759,874.213C955.29,871.135 913.89,885.104 913.89,885.104L913.518,885.218C907.768,886.576 902.03,890.649 896.285,896.613C887.125,906.121 878.109,920.376 869.519,937.01C839.03,996.053 814.17,1084.88 809.503,1102.05L897.179,1124.08L936.44,1007.8C936.915,1006.39 938.348,1005.55 939.809,1005.81C941.271,1006.07 942.322,1007.36 942.282,1008.84L940.503,1103.32L934.506,1103.16L935.737,1028.64L901.978,1128.62C901.477,1130.11 899.922,1130.95 898.404,1130.57L805.083,1107.13C804.306,1106.93 803.639,1106.43 803.231,1105.74C802.824,1105.05 802.709,1104.23 802.913,1103.45C802.913,1103.45 830.062,1000.34 864.188,934.257C873.085,917.028 882.477,902.299 891.964,892.451C898.583,885.579 905.314,881.048 911.941,879.428Z" style="fill:rgb(255,210,116);"/>
            <path d="M1288.78,1102.05C1279.65,1068.17 1264.65,1038.99 1249.56,992.676C1245.71,980.898 1239.54,963.607 1233.11,945.959C1218.85,905.629 1181.95,877.658 1139.27,874.826C1125.61,873.92 1110.28,873.831 1110.28,873.831C1112.32,872.151 1114.36,870.451 1116.4,868.71C1116.4,868.71 1126.12,868.01 1139.67,868.839C1184.76,871.598 1223.71,901.369 1238.75,943.931C1245.21,961.625 1251.4,978.988 1255.26,990.816C1270.83,1038.58 1286.27,1068.18 1295.33,1103.39C1295.74,1104.97 1294.81,1106.58 1293.24,1107.02L1205.9,1131.57C1204.41,1131.99 1202.84,1131.2 1202.29,1129.75L1164.6,1031.54L1168.05,1101.98L1162.11,1101.97L1156.73,1010.72C1156.6,1009.23 1157.59,1007.87 1159.05,1007.54C1160.5,1007.2 1161.99,1007.99 1162.52,1009.38L1206.91,1125.05L1288.78,1102.05Z" style="fill:rgb(255,210,116);"/>
        </g>
        <g id="TOP-HAND" serif:id="TOP HAND" transform="matrix(0.900625,0,0,0.900625,131.233,133.547)">
            <g transform="matrix(0.656678,0.58851,-0.58851,0.656678,1569.79,121.793)">
                <path d="M709.478,1199.26C709.478,1193.54 704.833,1188.89 699.112,1188.89C693.391,1188.89 688.747,1193.54 688.747,1199.26L688.747,1225.1C688.747,1230.82 693.391,1235.46 699.112,1235.46C704.833,1235.46 709.478,1230.82 709.478,1225.1L709.478,1199.26Z" style="fill:rgb(171,73,74);"/>
                <g transform="matrix(1,0,0,1,17.9968,0)">
                    <path d="M709.478,1199.26C709.478,1193.54 704.833,1188.89 699.112,1188.89C693.391,1188.89 688.747,1193.54 688.747,1199.26L688.747,1225.1C688.747,1230.82 693.391,1235.46 699.112,1235.46C704.833,1235.46 709.478,1230.82 709.478,1225.1L709.478,1199.26Z" style="fill:rgb(171,73,74);"/>
                </g>
                <g transform="matrix(1,0,0,1,35.9078,0)">
                    <path d="M709.478,1199.26C709.478,1193.54 704.833,1188.89 699.112,1188.89C693.391,1188.89 688.747,1193.54 688.747,1199.26L688.747,1225.1C688.747,1230.82 693.391,1235.46 699.112,1235.46C704.833,1235.46 709.478,1230.82 709.478,1225.1L709.478,1199.26Z" style="fill:rgb(171,73,74);"/>
                </g>
                <g transform="matrix(1,0,0,1,53.4476,0)">
                    <path d="M709.478,1199.26C709.478,1193.54 704.833,1188.89 699.112,1188.89C693.391,1188.89 688.747,1193.54 688.747,1199.26L688.747,1225.1C688.747,1230.82 693.391,1235.46 699.112,1235.46C704.833,1235.46 709.478,1230.82 709.478,1225.1L709.478,1199.26Z" style="fill:rgb(171,73,74);"/>
                </g>
            </g>
            <path d="M1332.18,1321.92C1332.49,1320.28 1332.25,1318.48 1331.51,1316.56L1305.76,1346.57C1307.37,1347.13 1309.21,1346.93 1311.03,1346.57L1332.18,1321.92Z"/>
            <path d="M1320.33,1357.33L1322.92,1357.29C1322.4,1358.63 1322.12,1359.88 1322.71,1360.85L1343.93,1335.94L1346.75,1332.89L1343.69,1333.35C1344.14,1332.14 1344.26,1330.98 1343.97,1329.89L1320.33,1357.33Z"/>
            <path d="M1333.83,1368.55C1333.67,1370.29 1333.94,1371.98 1334.84,1373.41L1359.8,1344.81L1360.85,1343.5C1359.29,1343.11 1357.63,1343 1355.84,1343.27L1333.83,1368.55Z"/>
        </g>
    </g>
    <g id="CHARACTER-1" serif:id="CHARACTER 1" transform="matrix(1,0,0,1,319.065,-136.885)">
        <g id="CHARACTER-11" serif:id="CHARACTER 1">
            <path d="M352.269,1062.92C352.269,1062.92 141.098,1571.33 211.866,1809.06L212.571,1832.64L173.427,1845.37L346.93,1833.03L446.343,1223.39L549.269,1844.66L722.194,1846.83C722.194,1846.83 689.375,1825.72 682.721,1828.59C682.721,1828.59 743.394,1538.78 556.243,1065.54L551.929,1001.16L683.315,1283.73L774.96,1244.02C774.96,1244.02 652.443,947.714 619.697,905.033C619.697,905.033 567.102,853.095 523.275,866.764L420.579,852.766C420.579,852.766 344.179,850.11 320.725,882.246L246.193,993.745L248.94,966.351L168.553,947.384C168.553,947.384 116.192,1081.45 151.239,1127.11C151.239,1127.11 196.479,1173.58 236.904,1155.4C236.904,1155.4 331.645,1044.88 359.979,1008.24L352.269,1062.92Z" style="fill:white;"/>
            <g id="PANTS1" serif:id="PANTS">
                <path d="M555.784,1058.69L556.243,1065.54C700.125,1429.37 697.529,1684.78 688.64,1783.41L538.523,1779.8L446.343,1223.39L356.325,1775.42L203.35,1771.74C161.567,1522.05 352.269,1062.92 352.269,1062.92L555.784,1058.69Z" style="fill:rgb(239,123,88);"/>
                <g transform="matrix(1,0,0,1,-10.8306,1.098)">
                    <g transform="matrix(1,0,0,1,-591.73,-13.9734)">
                        <path d="M954.189,1081.62C940.895,1114.31 775.817,1527.01 810.048,1783.51C810.293,1785.35 809.002,1787.04 807.167,1787.28C805.333,1787.53 803.644,1786.23 803.4,1784.4C767.567,1515.9 948.837,1076.99 948.837,1076.99C949.354,1075.74 950.575,1074.92 951.931,1074.92L1160.02,1070.97C1161.42,1070.97 1162.67,1071.84 1163.16,1073.15C1163.16,1073.15 1330.25,1518.35 1294.43,1786.81C1294.18,1788.65 1292.49,1789.94 1290.66,1789.69C1288.82,1789.45 1287.53,1787.76 1287.78,1785.92C1321.98,1529.65 1170.02,1111.33 1157.68,1077.68L954.189,1081.62Z" style="fill:rgb(253,75,60);"/>
                    </g>
                    <g transform="matrix(1,0,0,1,-591.73,-13.9734)">
                        <path d="M1049.18,1253.68L961.448,1787.17C961.148,1789 959.421,1790.24 957.595,1789.94C955.769,1789.64 954.53,1787.91 954.83,1786.09L1045.87,1232.45C1046.14,1230.83 1047.54,1229.64 1049.18,1229.64C1050.83,1229.64 1052.23,1230.83 1052.49,1232.45L1143.28,1785.82C1143.58,1787.65 1142.34,1789.38 1140.51,1789.68C1138.68,1789.98 1136.96,1788.74 1136.66,1786.91L1049.18,1253.68Z" style="fill:rgb(253,75,60);"/>
                    </g>
                </g>
                <path d="M599.879,1784.47L609.087,1694.17C609.423,1690.87 612.37,1688.47 615.664,1688.81C618.959,1689.14 621.361,1692.09 621.025,1695.38L611.936,1784.53L599.879,1784.47ZM575.802,1784.36C575.785,1784.05 575.792,1783.74 575.824,1783.42L585.825,1685.33C586.161,1682.04 589.108,1679.63 592.403,1679.97C595.697,1680.31 598.099,1683.25 597.763,1686.55L587.785,1784.41L575.802,1784.36ZM350.467,1760.39L278.259,1718.37C275.397,1716.7 274.426,1713.03 276.091,1710.16C277.757,1707.3 281.433,1706.33 284.295,1708L352.757,1747.84L350.467,1760.39ZM355.055,1735.25L295.908,1700.83C293.046,1699.16 292.075,1695.49 293.741,1692.62C295.406,1689.76 299.082,1688.79 301.944,1690.46L357.345,1722.7L355.055,1735.25ZM689.089,1661.85C689.402,1672.49 689.53,1682.5 689.517,1691.88L683.778,1705.57C682.498,1708.62 678.979,1710.06 675.925,1708.78C672.871,1707.5 671.431,1703.98 672.711,1700.93L689.089,1661.85ZM686.045,1606.93C686.787,1616.15 687.39,1625.05 687.873,1633.61L664.095,1690.34C662.815,1693.4 659.296,1694.84 656.242,1693.56C653.188,1692.28 651.748,1688.76 653.028,1685.7L686.045,1606.93ZM515.895,1655.12L562.691,1639.41C565.83,1638.36 569.235,1640.05 570.288,1643.19C571.342,1646.33 569.649,1649.74 566.51,1650.79L517.896,1667.11L515.895,1655.12ZM201.651,1648.08L247.972,1615.13C250.67,1613.21 254.419,1613.85 256.339,1616.55C258.258,1619.24 257.626,1622.99 254.927,1624.91L200.98,1663.29C201.171,1658.22 201.397,1653.14 201.651,1648.08ZM511.887,1631.11L561.139,1614.58C564.278,1613.52 567.683,1615.22 568.736,1618.36C569.79,1621.5 568.097,1624.9 564.957,1625.95L513.888,1643.1L511.887,1631.11ZM203.54,1617.24L239.278,1591.82C241.977,1589.9 245.726,1590.53 247.645,1593.23C249.565,1595.93 248.933,1599.68 246.234,1601.6L202.512,1632.7C202.832,1627.49 203.177,1622.33 203.54,1617.24ZM621.857,1590.07L544.712,1528.67C542.121,1526.61 538.343,1527.04 536.281,1529.63C534.219,1532.22 534.648,1536 537.239,1538.06L614.384,1599.46C616.975,1601.53 620.753,1601.1 622.815,1598.51C624.877,1595.91 624.448,1592.14 621.857,1590.07ZM641.858,1575.27L564.713,1513.87C562.122,1511.81 558.344,1512.24 556.282,1514.83C554.22,1517.42 554.649,1521.2 557.24,1523.26L634.385,1584.66C636.976,1586.72 640.754,1586.29 642.816,1583.7C644.878,1581.11 644.449,1577.33 641.858,1575.27ZM382.733,1583.56L305.775,1542.49C302.854,1540.93 301.748,1537.29 303.307,1534.37C304.866,1531.45 308.503,1530.34 311.425,1531.9L384.995,1571.16L382.733,1583.56ZM387.263,1558.73L322.766,1524.31C319.845,1522.75 318.738,1519.11 320.297,1516.19C321.856,1513.27 325.494,1512.16 328.416,1513.72L389.525,1546.33L387.263,1558.73ZM487.519,1485.11L538.778,1448.27C541.467,1446.33 545.22,1446.95 547.152,1449.64C549.085,1452.33 548.471,1456.08 545.782,1458.01L489.721,1498.31L487.519,1485.11ZM612.308,1384.72C614.727,1384.76 616.985,1386.27 617.858,1388.68L651.47,1481.37C652.599,1484.48 650.988,1487.93 647.874,1489.06C647.218,1489.29 646.547,1489.41 645.885,1489.41L645.812,1489.41C643.365,1489.41 641.07,1487.89 640.188,1485.46L606.577,1392.77C605.448,1389.65 607.059,1386.21 610.172,1385.08C610.853,1384.84 611.55,1384.72 612.235,1384.72L612.308,1384.72ZM668.679,1486.94C667.02,1486.37 665.623,1485.09 664.979,1483.31L631.367,1390.62C630.238,1387.51 631.849,1384.06 634.962,1382.93C635.643,1382.69 636.34,1382.57 637.025,1382.57L637.098,1382.57C639.517,1382.61 641.775,1384.12 642.648,1386.53L647.094,1398.79C656.191,1435.83 663.863,1467.22 668.679,1486.94ZM483.107,1458.68L529.971,1424.99C532.66,1423.06 536.412,1423.67 538.345,1426.36C540.277,1429.05 539.664,1432.81 536.975,1434.74L485.31,1471.87L483.107,1458.68ZM256.381,1367.07L253.631,1465.63C253.538,1468.94 256.151,1471.71 259.461,1471.8C262.771,1471.89 265.534,1469.28 265.626,1465.97L268.377,1367.41C268.469,1364.1 265.857,1361.34 262.546,1361.24C259.236,1361.15 256.474,1363.76 256.381,1367.07ZM244.093,1375.89L241.777,1458.87C241.685,1462.18 238.922,1464.79 235.612,1464.7C232.302,1464.61 229.689,1461.84 229.782,1458.53L230.625,1428.33C234.728,1411.1 239.262,1393.54 244.093,1375.89ZM423.559,1359.81L420.922,1374.26L359.696,1402.66C356.692,1404.06 353.122,1402.75 351.728,1399.75C350.335,1396.74 351.642,1393.17 354.646,1391.78L423.559,1359.81ZM428.842,1330.86L426.205,1345.31L355.413,1378.15C352.409,1379.55 348.839,1378.24 347.445,1375.24C346.052,1372.23 347.359,1368.66 350.363,1367.27L428.842,1330.86ZM590.71,1316.85L492.372,1323.99C489.069,1324.23 486.583,1327.11 486.823,1330.41C487.063,1333.71 489.939,1336.2 493.242,1335.96L591.58,1328.82C594.883,1328.58 597.369,1325.7 597.129,1322.4C596.889,1319.09 594.013,1316.61 590.71,1316.85ZM595.382,1292.41L497.044,1299.55C493.741,1299.79 491.255,1302.67 491.495,1305.97C491.735,1309.27 494.611,1311.76 497.914,1311.52L596.252,1304.38C599.554,1304.13 602.041,1301.26 601.801,1297.96C601.561,1294.65 598.685,1292.17 595.382,1292.41ZM281.794,1252.06L311.331,1272.74C314.044,1274.64 314.705,1278.38 312.806,1281.1C310.906,1283.81 307.162,1284.47 304.449,1282.57L277.882,1263.97C279.185,1259.98 280.488,1256.01 281.794,1252.06ZM289.759,1228.29L330.386,1256.74C333.098,1258.63 333.759,1262.38 331.86,1265.09C329.961,1267.8 326.216,1268.46 323.504,1266.57L285.763,1240.14C287.101,1236.15 288.435,1232.2 289.759,1228.29ZM441.131,1263.51C440.25,1263.75 439.301,1263.79 438.345,1263.59C435.102,1262.92 433.01,1259.75 433.677,1256.51L453.536,1159.93C454.203,1156.69 457.378,1154.6 460.621,1155.26C463.865,1155.93 465.957,1159.1 465.29,1162.35L447.824,1247.29L446.04,1236.6L441.131,1263.51ZM423.181,1247.78L443.04,1151.21C443.707,1147.96 441.615,1144.79 438.371,1144.12C435.128,1143.45 431.953,1145.55 431.286,1148.79L411.427,1245.37C410.76,1248.61 412.852,1251.79 416.095,1252.45C419.339,1253.12 422.514,1251.03 423.181,1247.78ZM593.596,1183.05C594.74,1187.6 595.9,1192.21 597.073,1196.88L560.264,1236.12C557.999,1238.53 554.198,1238.66 551.783,1236.39C549.368,1234.12 549.247,1230.32 551.512,1227.91L593.596,1183.05ZM588.093,1161.25L590.099,1169.18L547.133,1214.98C544.867,1217.4 541.067,1217.52 538.652,1215.25C536.237,1212.99 536.116,1209.19 538.381,1206.77L586.602,1155.37L588.093,1161.25ZM322.628,1135.69L380.752,1118.61C383.929,1117.68 387.266,1119.5 388.2,1122.68C389.133,1125.86 387.312,1129.19 384.134,1130.13L317.469,1149.71C319.245,1144.86 320.966,1140.18 322.628,1135.69ZM443.653,1090.89L531.193,1136.26C534.133,1137.78 537.757,1136.63 539.281,1133.69C540.805,1130.75 539.655,1127.13 536.714,1125.61L449.175,1080.24C446.235,1078.71 442.611,1079.86 441.087,1082.8C439.563,1085.74 440.713,1089.37 443.653,1090.89ZM333.187,1107.53L380.146,1093.74C383.323,1092.8 386.661,1094.62 387.594,1097.8C388.527,1100.98 386.706,1104.32 383.529,1105.25L327.877,1121.6C329.762,1116.58 331.537,1111.88 333.187,1107.53ZM458.048,1064.08L471.702,1064.84L553.485,1107.22C556.425,1108.75 557.575,1112.37 556.051,1115.31C554.527,1118.25 550.903,1119.4 547.963,1117.88L460.424,1072.51C457.484,1070.99 456.334,1067.36 457.857,1064.42C457.917,1064.31 457.981,1064.19 458.048,1064.08Z" style="fill:rgb(253,75,60);"/>
            </g>
            <g>
                <g>
                    <path d="M202.358,1769.81L206.503,1821.22C206.503,1821.22 171.428,1826.58 165.738,1849.87L349.001,1841.5L357.816,1770.62L202.358,1769.81Z" style="fill:rgb(34,77,153);"/>
                    <g transform="matrix(-1,0,0,1,893.036,4.71711)">
                        <path d="M202.358,1769.81L206.503,1821.22C206.503,1821.22 171.428,1826.58 165.738,1849.87L349.001,1841.5L357.816,1770.62L202.358,1769.81Z" style="fill:rgb(34,77,153);"/>
                    </g>
                </g>
                <g>
                    <g>
                        <path d="M429.424,795.448C430.627,785.542 432.004,776.686 433.506,771.257C434.212,768.767 435.353,766.421 436.874,764.328C442.632,756.869 461.435,737.067 489.723,755.61C489.723,755.61 499.103,758.717 500.207,797.017C502.017,794.73 504.697,793.282 507.685,793.282C513.13,793.282 517.55,798.09 517.55,804.014C517.55,809.937 513.13,814.746 507.685,814.746C504.87,814.746 502.328,813.46 500.53,811.398C501.015,840.017 500.218,852.36 500.218,852.36L528.955,860.549C528.955,860.549 449.067,912.94 404.313,852.36L424.453,852.36C424.453,852.36 425.577,833.784 427.465,813.834C426.248,814.42 424.9,814.746 423.483,814.746C418.038,814.746 413.618,809.937 413.618,804.014C413.618,798.09 418.038,793.282 423.483,793.282C425.713,793.282 427.771,794.088 429.424,795.448Z" style="fill:rgb(183,77,47);"/>
                        <path d="M166.1,947.811L249.864,965.806L263.59,863.328C263.59,863.328 306.584,857.264 303.969,836.073C303.969,836.073 318.789,827.221 309.308,814.745C309.308,814.745 321.019,806.883 309.308,791.995C309.308,791.995 310.988,790.338 312.231,787.947C313.884,784.768 314.762,780.291 309.888,776.682C307.414,774.851 304.42,773.856 301.341,773.844C297.919,773.83 292.635,773.808 292.635,773.808L292.056,779.701L267.302,782.376L266.975,772.978C266.975,772.978 262.321,772.906 255.817,772.805C232.145,772.437 211.188,788.044 204.758,810.829C190.164,862.539 166.1,947.811 166.1,947.811Z" style="fill:rgb(183,77,47);"/>
                        <path d="M679.133,1284.23L725.178,1401.88C725.178,1401.88 735.924,1405.35 734.506,1376.01C734.506,1376.01 734.799,1343.05 745.389,1347.57C745.389,1347.57 773.853,1383.18 777.499,1429.62C777.653,1431.74 779.12,1433.52 781.164,1434.09C783.207,1434.65 785.383,1433.87 786.597,1432.13C788.676,1429.14 790.419,1423.41 790.831,1412.83C790.831,1412.83 797.507,1406.66 796.393,1395.42C796.393,1395.42 802.69,1385.86 801.861,1376.01C801.861,1376.01 815.92,1367.99 809.41,1343.98C802.9,1319.96 777.758,1242.56 777.758,1242.56L679.133,1284.23Z" style="fill:rgb(183,77,47);"/>
                    </g>
                    <g>
                        <path d="M427.205,815.969C427.299,816.222 427.351,816.495 427.353,816.78C427.362,817.824 427.891,819.269 428.747,820.964C430.257,823.957 432.827,827.547 436.219,830.974C442.792,837.618 452.468,843.692 463.715,843.385C474.958,843.079 487.587,836.371 500.314,818.125L500.423,826.032C488.964,840.531 477.521,846.646 467.186,847.931C449.439,850.138 434.602,838.075 427.421,827.973C427.051,827.452 426.702,826.935 426.374,826.425L427.205,815.969Z" style="fill:rgb(89,25,0);"/>
                        <path d="M419.917,852.581L424.724,852.585L424.328,859.946C424.256,861.268 423.125,862.284 421.802,862.213C420.479,862.142 419.463,861.01 419.534,859.688L419.917,852.581Z" style="fill:rgb(89,25,0);"/>
                        <path d="M500.098,852.459L504.808,853.666L504.418,860.748C504.345,862.07 503.212,863.085 501.89,863.012C500.567,862.939 499.552,861.806 499.625,860.484L500.152,850.919L500.098,852.459Z" style="fill:rgb(89,25,0);"/>
                        <g transform="matrix(0.996305,0.0858912,-0.0874783,1.01471,72.8158,-49.4212)">
                            <path d="M428.015,796.446L426.186,795.541L426.186,815.149L428.015,814.428L428.015,796.446Z" style="fill:rgb(89,25,0);"/>
                        </g>
                        <g transform="matrix(0.999899,-0.0142183,0.0142183,0.999899,-10.827,7.70598)">
                            <path d="M501.558,794.678L499.714,796.504L499.741,810.888L501.465,812.45L501.558,794.678Z" style="fill:rgb(89,25,0);"/>
                        </g>
                        <path d="M477.32,815.566C478.819,813.149 478.927,811.03 478.292,809.328C477.655,807.622 476.202,806.245 474.187,805.406C470.826,804.007 465.797,804.126 461.644,806.368C460.673,806.893 460.31,808.107 460.834,809.078C461.358,810.05 462.573,810.413 463.544,809.888C466.561,808.259 470.208,808.082 472.649,809.099C473.536,809.468 474.264,809.976 474.544,810.727C474.826,811.482 474.586,812.386 473.92,813.459C473.339,814.397 473.628,815.631 474.567,816.212C475.505,816.794 476.739,816.504 477.32,815.566Z" style="fill:rgb(89,25,0);"/>
                        <path d="M461.644,806.368C459.466,807.544 457.968,810.162 457.676,812.889C457.372,815.734 458.373,818.575 460.747,820.02C463.312,821.58 466.849,821.604 470.078,820.589C473.237,819.596 476.039,817.632 477.32,815.566C477.902,814.628 477.612,813.394 476.674,812.812C475.736,812.231 474.502,812.52 473.92,813.459C473.044,814.873 471.042,816.093 468.879,816.773C466.787,817.43 464.488,817.613 462.827,816.602C461.759,815.953 461.517,814.593 461.654,813.314C461.803,811.916 462.428,810.491 463.544,809.888C464.515,809.364 464.878,808.15 464.354,807.178C463.829,806.207 462.615,805.844 461.644,806.368Z" style="fill:rgb(89,25,0);"/>
                        <path d="M306.611,834.217C305.973,834.791 305.275,835.37 304.511,835.954C304.511,835.954 304.514,839.026 302.932,842.571C293.933,846.32 281.614,849.504 269.831,847.648C268.196,847.39 267.077,845.853 267.335,844.217C267.592,842.582 269.129,841.463 270.765,841.721C284.154,843.83 298.3,838.657 306.256,834.41C306.375,834.346 306.494,834.282 306.611,834.217ZM309.88,814.428C309.714,814.59 309.542,814.751 309.363,814.912C309.363,814.912 311.348,816.824 312.243,819.947C304.495,822.735 286.832,828.442 270.251,827.412C268.599,827.31 267.34,825.885 267.443,824.232C267.546,822.58 268.971,821.321 270.623,821.424C285.994,822.379 302.334,817.144 309.88,814.428ZM309.004,792.239C309.474,792.705 311.255,794.559 312.645,797.204C301.817,802.045 282.484,805.163 272.339,805.294C270.683,805.316 269.322,803.989 269.3,802.334C269.279,800.678 270.606,799.316 272.261,799.295C281.448,799.176 298.664,796.503 309.004,792.239Z" style="fill:rgb(89,25,0);"/>
                        <path d="M262.874,869.411C259.638,869.367 256.054,868.864 252.822,868.652C251.17,868.544 249.916,867.115 250.024,865.463C250.132,863.811 251.561,862.557 253.213,862.665C256.751,862.896 260.265,863.113 263.814,863.114L263.873,863.114C263.853,863.114 263.833,863.114 263.814,863.114C263.814,863.114 263.484,866.521 262.874,869.411Z" style="fill:rgb(89,25,0);"/>
                        <path d="M299.441,778.832C299.799,778.711 300.186,778.657 300.586,778.683C303.397,778.865 303.497,781.291 303.506,781.613C303.524,782.231 303.443,783.809 301.541,784.521C301.321,784.603 299.72,784.832 299.099,784.914C297.838,785.08 296.578,785.253 295.315,785.399C291.842,785.802 288.365,786.181 284.885,786.517C274.127,787.558 263.346,788.647 252.523,788.295C250.868,788.241 249.568,786.854 249.622,785.199C249.676,783.544 251.063,782.244 252.718,782.298C263.283,782.641 273.806,781.561 284.308,780.545C287.75,780.212 291.188,779.838 294.623,779.439C295.855,779.296 297.084,779.128 298.313,778.965C298.537,778.936 299.071,778.874 299.441,778.832Z" style="fill:rgb(89,25,0);"/>
                        <path d="M789.504,1424.11C789.456,1405.96 787.238,1388.99 783.945,1370.93C783.145,1366.54 781.511,1358.59 780.656,1354.22C780.339,1352.59 781.401,1351.01 783.026,1350.7C784.651,1350.38 786.228,1351.44 786.545,1353.07C787.404,1357.46 789.044,1365.45 789.848,1369.86C792.17,1382.59 793.961,1394.79 794.862,1407.23C794.025,1409.34 792.793,1411.45 790.992,1413.32C790.992,1413.32 790.511,1419.53 789.504,1424.11ZM799.093,1390.96C797.642,1380.52 795.286,1370.6 792.762,1360.28C791.398,1354.7 790.145,1349.7 788.08,1342.95C787.595,1341.37 788.487,1339.69 790.071,1339.2C791.654,1338.72 793.333,1339.61 793.817,1341.19C795.922,1348.08 797.2,1353.17 798.59,1358.85C799.97,1364.49 801.296,1370.02 802.458,1375.57C802.343,1375.63 802.227,1375.69 802.11,1375.75C802.11,1375.75 801.569,1384.8 799.093,1390.96ZM805.444,1372.88C803.979,1364.65 802,1356.49 799.839,1348.42C798.871,1344.81 797.179,1338.79 796.137,1335.2C795.676,1333.61 796.592,1331.94 798.183,1331.48C799.773,1331.02 801.438,1331.94 801.899,1333.53C802.951,1337.15 804.658,1343.22 805.635,1346.87C807.183,1352.65 808.638,1358.48 809.885,1364.35C809.038,1366.69 807.529,1370.26 805.444,1372.88Z" style="fill:rgb(89,25,0);"/>
                    </g>
                </g>
                <g>
                    <path d="M249.649,984.077L301.849,898.638C320.577,867.987 354.29,849.718 390.195,850.765C399.857,851.047 405.08,852.293 405.08,852.293L409.464,858.383C409.464,858.383 399.662,857.752 389.999,857.47C356.5,856.492 325.045,873.537 307.573,902.135C281.439,944.909 247.262,1000.85 247.262,1000.85C246.438,1002.2 244.785,1002.79 243.294,1002.27C241.803,1001.75 240.877,1000.25 241.072,998.686L245.084,966.445C245.313,964.609 246.989,963.303 248.826,963.532C250.663,963.76 251.969,965.437 251.74,967.274L249.649,984.077Z"/>
                    <path d="M357.235,1013.69L255.592,1146.3C248.609,1155.41 238.183,1161.25 226.765,1162.43C226.764,1162.43 226.764,1162.43 226.763,1162.43C200.212,1165.2 173.975,1154.89 156.403,1134.79C138.832,1114.7 132.116,1087.32 138.393,1061.38C153.714,998.05 166.068,947.563 166.068,947.563L172.587,949.14C172.587,949.14 160.234,999.627 144.912,1062.95C139.147,1086.78 145.315,1111.92 161.453,1130.38C177.59,1148.83 201.686,1158.3 226.069,1155.76C226.07,1155.76 226.071,1155.76 226.072,1155.76C235.656,1154.77 244.407,1149.87 250.269,1142.22C279.169,1104.51 360.372,998.566 360.372,998.566C361.315,997.336 362.977,996.912 364.393,997.54C365.81,998.168 366.612,999.684 366.333,1001.21L355.21,1062.42L347.476,1062.65L357.235,1013.69Z"/>
                    <path d="M528.755,860.443C528.048,860.446 516.643,867.248 516.644,867.248C517.313,867.233 528.707,867.297 529.374,867.295C573.659,867.127 615.824,891.346 634.009,931.863C683.502,1042.14 774.161,1244.14 774.161,1244.14C774.919,1245.83 776.906,1246.58 778.594,1245.83C780.283,1245.07 781.038,1243.08 780.281,1241.39C780.281,1241.39 689.621,1039.39 640.128,929.117C620.857,886.178 575.687,860.266 528.755,860.443Z"/>
                    <path d="M559.268,1058.61L552.941,975.393C552.778,973.55 551.15,972.184 549.306,972.347C547.462,972.509 546.097,974.138 546.259,975.982L552.224,1058.65L559.268,1058.61Z"/>
                    <path d="M547.708,991.576L680.116,1287.04C680.873,1288.73 682.859,1289.49 684.548,1288.73C686.237,1287.97 686.994,1285.99 686.237,1284.3L553.829,988.833C553.072,987.144 551.086,986.387 549.397,987.144C547.708,987.901 546.951,989.887 547.708,991.576Z"/>
                    <path d="M688.83,1058.69C688.83,1058.69 669.661,1114.69 723.343,1132.54C725.1,1133.12 727,1132.17 727.584,1130.41C728.168,1128.66 727.216,1126.76 725.46,1126.17C678.054,1110.41 695.172,1060.87 695.172,1060.87C695.774,1059.12 694.842,1057.21 693.091,1056.61C691.341,1056.01 689.431,1056.94 688.83,1058.69Z"/>
                    <path d="M159.312,1133.76C159.312,1133.76 173.316,1123.7 191.433,1126.32C203.74,1128.09 217.795,1135.78 230.85,1155.94C231.856,1157.49 233.934,1157.94 235.488,1156.93C237.042,1155.93 237.486,1153.85 236.48,1152.3C221.96,1129.87 206.08,1121.65 192.391,1119.68C171.514,1116.67 155.39,1128.32 155.39,1128.32C153.889,1129.4 153.548,1131.5 154.63,1133C155.712,1134.5 157.81,1134.84 159.312,1133.76Z"/>
                </g>
                <path d="M242.018,992.036C242.018,992.036 239.33,1013.05 237.062,1030.79C236.879,1032.22 237.796,1033.56 239.194,1033.91C240.593,1034.25 242.03,1033.5 242.537,1032.15C252.6,1005.37 267.943,964.542 267.943,964.542L242.018,992.036Z"/>
            </g>
        </g>
        <g id="FLAG1" serif:id="FLAG">
            <g>
                <path d="M318.213,551.932C318.776,551.49 319.603,550.872 320.07,550.669C328.687,546.932 337.585,543.816 346.387,540.55C378.764,528.533 411.479,517.473 444.335,506.841C525.423,480.602 609.11,465.376 693.684,455.579C732.505,451.081 776.767,444.47 813.804,460.626C821.102,463.809 830.571,475.588 830.571,475.588L831.058,476.48C846.301,521.101 830.468,593.608 830.468,593.608C830.116,595.21 828.542,596.233 826.934,595.902C826.934,595.902 820.449,594.555 818.89,594.02C807.154,589.991 795.466,586.656 783.204,584.606C748.154,578.745 713.311,580.097 678.308,585.643C627.925,593.625 578.358,605.772 528.757,617.531C452.692,635.562 371.743,652.052 302.506,689.871C301.053,690.665 299.229,690.129 298.435,688.676C297.641,687.223 298.177,685.399 299.63,684.605C369.332,646.533 450.797,629.845 527.373,611.692C577.121,599.899 626.836,587.722 677.369,579.716C713.016,574.069 748.499,572.72 784.194,578.688C796.784,580.793 808.788,584.208 820.838,588.345C821.572,588.597 823.512,589.04 825.209,589.408C827.918,575.752 838.327,517.07 825.542,478.905C823.972,476.953 817.009,468.57 811.405,466.126C775.325,450.387 732.193,457.158 694.374,461.539C610.194,471.29 526.893,486.433 446.182,512.55C413.407,523.156 380.772,534.188 348.474,546.175C339.805,549.392 331.039,552.457 322.551,556.134C322.449,556.216 322.007,556.576 321.767,556.776C321.187,557.261 320.595,557.657 320.085,557.869C319.128,558.267 318.229,558.255 317.436,557.975C316.83,557.762 316.24,557.383 315.744,556.708C314.762,555.375 315.048,553.495 316.382,552.514C316.933,552.108 317.577,551.919 318.213,551.932Z" style="fill:rgb(255,210,116);"/>
                <path d="M1202.84,556.176C1200.22,551.133 1194.61,546.009 1187.64,540.948C1166.86,525.863 1133.68,512.217 1120.88,507.499C1045.86,479.855 917.303,475.643 837.353,497.125C835.754,497.555 834.107,496.605 833.677,495.006C833.247,493.407 834.197,491.76 835.796,491.33C916.77,469.574 1046.97,473.871 1122.95,501.869C1136.04,506.691 1169.92,520.675 1191.16,536.092C1200.84,543.113 1207.87,550.57 1209.81,557.514C1210.32,559.358 1209.46,561.987 1205.33,562.236C1200.19,562.544 1185.21,559.615 1174.19,558.878C1150.96,557.324 1127.33,556.621 1104.05,556.756C1103.41,556.76 1102.77,556.757 1102.13,556.765C1101.52,556.773 1100.92,556.788 1100.31,556.804C1097.47,556.88 1094.64,557.013 1091.82,557.234C1095.8,558.323 1099.71,559.63 1103.55,561.121C1127.53,570.44 1149.82,588.604 1167.38,607.123C1169.61,609.473 1177.39,617.22 1180.83,623.673C1182.82,627.398 1183.26,630.879 1182.02,633.276C1181.59,634.113 1180.82,634.85 1179.54,635.18C1178.6,635.418 1176.98,635.392 1174.88,634.922C1166.38,633.025 1146.54,624.175 1140.29,621.993C1115.33,613.275 1088.84,608.263 1062.56,605.728C997.468,599.446 935.699,613.218 872.522,626.772C854.001,630.745 830.522,636.739 808.519,636.703C793.371,636.678 778.917,633.798 767.085,625.726C756.169,618.281 741.393,600.483 748.689,578.403C749.209,576.83 750.907,575.976 752.479,576.495C754.051,577.015 754.906,578.713 754.386,580.285C748.127,599.229 761.1,614.382 770.466,620.77C781.325,628.177 794.627,630.68 808.528,630.703C830.099,630.738 853.106,624.801 871.263,620.905C935.047,607.221 997.419,593.413 1063.14,599.756C1089.89,602.337 1116.86,607.453 1142.27,616.328C1147.67,618.214 1163.34,625.166 1172.8,628.129C1174.09,628.534 1175.56,628.859 1176.62,629.07C1176.58,628.917 1176.52,628.761 1176.47,628.599C1176,627.183 1175.11,625.627 1174.04,624.04C1170.45,618.689 1164.81,613.134 1163.03,611.251C1146.05,593.35 1124.56,575.722 1101.38,566.713C1093.07,563.483 1084.36,561.161 1075.49,560.133C1075.22,560.101 1074.23,559.982 1073.74,559.766C1072.88,559.391 1072.38,558.779 1072.11,558.209C1071.83,557.635 1071.19,554.933 1074.05,553.953C1075.5,553.46 1083.28,552.134 1083.68,552.078C1089.15,551.312 1094.63,550.953 1100.15,550.806C1100.79,550.789 1101.42,550.774 1102.05,550.766C1102.7,550.757 1103.36,550.76 1104.01,550.757C1127.44,550.62 1151.21,551.328 1174.59,552.891C1183.19,553.467 1194.23,555.41 1201.01,556.063C1201.62,556.121 1202.25,556.157 1202.84,556.176Z" style="fill:rgb(255,210,116);"/>
                <path d="M829.475,592.663C829.475,592.663 837.135,617.157 758.575,616.499C758.575,616.499 739.861,595.847 752.09,577.783C752.09,577.783 793.965,581.756 829.475,592.663Z" style="fill:rgb(255,210,116);"/>
            </g>
            <path d="M282.411,858.317L266.401,987.097L240.271,983.848L255.277,863.148C262.93,862.162 276.482,859.507 282.411,858.317ZM265.291,782.594L297.331,524.877L323.461,528.126L292.184,779.71C283.767,780.607 270.524,782.031 265.291,782.594Z" style="fill:rgb(34,77,153);"/>
        </g>
        <g id="TOP-HAND1" serif:id="TOP HAND" transform="matrix(0.988199,0.153176,-0.153176,0.988199,-347.674,-162.116)">
            <g transform="matrix(0.656678,0.58851,-0.58851,0.656678,1569.79,121.793)">
                <path d="M709.478,1199.26C709.478,1193.54 704.833,1188.89 699.112,1188.89C693.391,1188.89 688.747,1193.54 688.747,1199.26L688.747,1225.1C688.747,1230.82 693.391,1235.46 699.112,1235.46C704.833,1235.46 709.478,1230.82 709.478,1225.1L709.478,1199.26Z" style="fill:rgb(75,0,0);"/>
                <g transform="matrix(1,0,0,1,17.9968,0)">
                    <path d="M709.478,1199.26C709.478,1193.54 704.833,1188.89 699.112,1188.89C693.391,1188.89 688.747,1193.54 688.747,1199.26L688.747,1225.1C688.747,1230.82 693.391,1235.46 699.112,1235.46C704.833,1235.46 709.478,1230.82 709.478,1225.1L709.478,1199.26Z" style="fill:rgb(75,0,0);"/>
                </g>
                <g transform="matrix(1,0,0,1,35.9078,0)">
                    <path d="M709.478,1199.26C709.478,1193.54 704.833,1188.89 699.112,1188.89C693.391,1188.89 688.747,1193.54 688.747,1199.26L688.747,1225.1C688.747,1230.82 693.391,1235.46 699.112,1235.46C704.833,1235.46 709.478,1230.82 709.478,1225.1L709.478,1199.26Z" style="fill:rgb(75,0,0);"/>
                </g>
                <g transform="matrix(1,0,0,1,53.4476,0)">
                    <path d="M709.478,1199.26C709.478,1193.54 704.833,1188.89 699.112,1188.89C693.391,1188.89 688.747,1193.54 688.747,1199.26L688.747,1225.1C688.747,1230.82 693.391,1235.46 699.112,1235.46C704.833,1235.46 709.478,1230.82 709.478,1225.1L709.478,1199.26Z" style="fill:rgb(75,0,0);"/>
                </g>
            </g>
            <path d="M1332.18,1321.92C1332.49,1320.28 1332.25,1318.48 1331.51,1316.56L1305.76,1346.57C1307.37,1347.13 1309.21,1346.93 1311.03,1346.57L1332.18,1321.92Z" style="fill:rgb(165,76,54);"/>
            <path d="M1320.33,1357.33L1322.92,1357.29C1322.4,1358.63 1322.12,1359.88 1322.71,1360.85L1343.93,1335.94L1346.75,1332.89L1343.69,1333.35C1344.14,1332.14 1344.26,1330.98 1343.97,1329.89L1320.33,1357.33Z" style="fill:rgb(165,76,54);"/>
            <path d="M1333.83,1368.55C1333.67,1370.29 1333.94,1371.98 1334.84,1373.41L1359.8,1344.81L1360.85,1343.5C1359.29,1343.11 1357.63,1343 1355.84,1343.27L1333.83,1368.55Z" style="fill:rgb(165,76,54);"/>
        </g>
    </g>
    <g id="PRINKLES" transform="matrix(1,0,0,1,319.065,-136.885)">
        <path d="M1117.25,773.344L1128.98,792.881L1139.74,788.34L1126.61,766.126L1117.25,773.344ZM1209.74,757.919L1200.24,781.102L1209.65,788.943L1224.67,770.058L1209.74,757.919ZM1152.95,741.165L1164.05,771.277L1176.08,769.921L1171.1,735.557L1152.95,741.165Z" style="fill:rgb(253,75,60);"/>
        <path d="M1361.87,615.999L1356.44,647.228L1366.06,652.307L1374.98,623.79L1361.87,615.999ZM1405.59,608.023L1395.24,640.942L1407.28,647.002L1421.61,611.125L1405.59,608.023Z" style="fill:rgb(253,75,60);"/>
        <path d="M702.724,730.996L715.535,757.863L726.767,753.057L714.816,722.143L702.724,730.996ZM740.615,700.312L741.628,733.814L754.699,735.988L760.497,701.063L740.615,700.312Z" style="fill:rgb(253,75,60);"/>
        <path d="M1541.44,659.254L1541.67,648.666C1541.71,647.011 1543.08,645.697 1544.74,645.734C1546.39,645.771 1547.71,647.144 1547.67,648.8L1547.4,661.101L1556.95,653.353C1558.24,652.31 1560.13,652.508 1561.17,653.794C1562.22,655.08 1562.02,656.971 1560.73,658.014L1551.76,665.285L1563.25,666.494C1564.89,666.668 1566.09,668.145 1565.91,669.792C1565.74,671.439 1564.26,672.635 1562.62,672.461L1551.13,671.252L1558.39,680.232C1559.43,681.52 1559.23,683.41 1557.95,684.451C1556.66,685.492 1554.77,685.292 1553.73,684.004L1547.07,675.768L1546.83,686.355C1546.8,688.011 1545.42,689.325 1543.77,689.288C1542.11,689.251 1540.8,687.877 1540.84,686.222L1541.11,673.921L1531.55,681.668C1530.27,682.711 1528.37,682.513 1527.33,681.227C1526.29,679.941 1526.49,678.05 1527.77,677.007L1536.74,669.736L1525.26,668.527C1523.61,668.354 1522.42,666.876 1522.59,665.229C1522.76,663.583 1524.24,662.387 1525.89,662.56L1537.37,663.769L1530.11,654.789C1529.07,653.501 1529.27,651.611 1530.56,650.57C1531.85,649.529 1533.74,649.73 1534.78,651.017L1541.44,659.254Z" style="fill:rgb(255,210,116);"/>
        <path d="M1759.08,747.104L1759.32,736.516C1759.36,734.861 1760.73,733.547 1762.39,733.584C1764.04,733.621 1765.36,734.994 1765.32,736.65L1765.04,748.951L1774.6,741.203C1775.89,740.16 1777.78,740.358 1778.82,741.644C1779.86,742.931 1779.67,744.821 1778.38,745.864L1769.41,753.135L1780.89,754.344C1782.54,754.518 1783.74,755.995 1783.56,757.642C1783.39,759.289 1781.91,760.485 1780.27,760.311L1768.78,759.102L1776.04,768.082C1777.08,769.37 1776.88,771.26 1775.59,772.301C1774.31,773.342 1772.41,773.142 1771.37,771.854L1764.72,763.618L1764.48,774.205C1764.44,775.861 1763.07,777.175 1761.41,777.138C1759.76,777.101 1758.44,775.727 1758.48,774.072L1758.76,761.771L1749.2,769.518C1747.91,770.561 1746.02,770.363 1744.98,769.077C1743.94,767.791 1744.13,765.9 1745.42,764.857L1754.39,757.586L1742.91,756.377C1741.26,756.204 1740.06,754.726 1740.24,753.079C1740.41,751.433 1741.89,750.237 1743.54,750.41L1755.02,751.619L1747.76,742.639C1746.72,741.351 1746.92,739.461 1748.21,738.42C1749.5,737.379 1751.39,737.58 1752.43,738.867L1759.08,747.104Z" style="fill:rgb(253,75,60);"/>
        <path d="M370.059,728.253L370.295,717.665C370.332,716.01 371.706,714.696 373.361,714.733C375.016,714.77 376.33,716.144 376.293,717.799L376.019,730.1L385.577,722.352C386.863,721.309 388.754,721.507 389.797,722.793C390.839,724.08 390.642,725.97 389.355,727.013L380.385,734.284L391.869,735.493C393.515,735.667 394.711,737.145 394.538,738.791C394.365,740.438 392.887,741.634 391.24,741.46L379.757,740.251L387.016,749.231C388.056,750.519 387.856,752.409 386.568,753.45C385.281,754.491 383.39,754.291 382.349,753.003L375.692,744.767L375.456,755.354C375.419,757.01 374.045,758.324 372.39,758.287C370.734,758.25 369.421,756.876 369.457,755.221L369.732,742.92L360.174,750.668C358.887,751.71 356.997,751.512 355.954,750.226C354.911,748.94 355.109,747.049 356.395,746.007L365.365,738.735L353.882,737.526C352.235,737.353 351.039,735.875 351.213,734.228C351.386,732.582 352.864,731.386 354.51,731.559L365.994,732.768L358.735,723.788C357.694,722.501 357.895,720.61 359.183,719.569C360.47,718.528 362.361,718.729 363.402,720.017L370.059,728.253Z" style="fill:rgb(253,75,60);"/>
        <path d="M693.701,645.909L693.937,635.321C693.974,633.666 695.348,632.352 697.003,632.389C698.659,632.426 699.973,633.799 699.936,635.455L699.662,647.756L709.22,640.008C710.506,638.965 712.397,639.163 713.439,640.449C714.482,641.736 714.284,643.626 712.998,644.669L704.028,651.94L715.511,653.149C717.158,653.323 718.354,654.8 718.18,656.447C718.007,658.094 716.529,659.29 714.883,659.116L703.399,657.907L710.658,666.887C711.699,668.175 711.498,670.065 710.211,671.106C708.923,672.147 707.032,671.947 705.992,670.659L699.334,662.423L699.098,673.01C699.061,674.666 697.688,675.98 696.032,675.943C694.377,675.906 693.063,674.532 693.1,672.877L693.374,660.576L683.816,668.323C682.53,669.366 680.639,669.168 679.596,667.882C678.554,666.596 678.752,664.705 680.038,663.662L689.008,656.391L677.524,655.182C675.878,655.009 674.682,653.531 674.855,651.884C675.029,650.238 676.506,649.042 678.153,649.215L689.636,650.424L682.378,641.444C681.337,640.156 681.537,638.266 682.825,637.225C684.113,636.184 686.003,636.385 687.044,637.672L693.701,645.909Z" style="fill:rgb(255,210,116);"/>
    </g>
</svg>
