<?xml version="1.0" encoding="UTF-8" standalone="no"?>
<!DOCTYPE svg PUBLIC "-//W3C//DTD SVG 1.1//EN" "http://www.w3.org/Graphics/SVG/1.1/DTD/svg11.dtd">
<svg width="100%" height="100%" viewBox="0 0 2732 2048" version="1.1" xmlns="http://www.w3.org/2000/svg" xmlns:xlink="http://www.w3.org/1999/xlink" xml:space="preserve" xmlns:serif="http://www.serif.com/" style="fill-rule:evenodd;clip-rule:evenodd;stroke-linecap:round;stroke-linejoin:round;stroke-miterlimit:2.28659;">
    <g id="SIGN">
        <path d="M1087.39,324.426C1087.39,324.426 1347.37,150.944 1569.22,304.653" style="fill:none;stroke:rgb(255,210,116);stroke-width:7px;"/>
        <g transform="matrix(1,0,0,1,6.69574,124.299)">
            <path d="M1114.69,308.429C1182.96,271.54 1367.92,190.68 1538.71,285.644" style="fill:none;stroke:rgb(255,210,116);stroke-width:7px;"/>
        </g>
        <g transform="matrix(-0.770279,-0.178278,-0.257926,1.11441,2505.63,138.586)">
            <path d="M1115.36,318.74C1115.36,316.367 1112.58,314.441 1109.14,314.441L1096.7,314.441C1093.27,314.441 1090.48,316.367 1090.48,318.74L1090.48,564.385C1090.48,566.758 1093.27,568.684 1096.7,568.684L1109.14,568.684C1112.58,568.684 1115.36,566.758 1115.36,564.385L1115.36,318.74Z" style="fill:rgb(165,41,41);"/>
        </g>
        <g transform="matrix(0.765613,-0.197356,0.285527,1.10766,150.538,181.221)">
            <path d="M1115.36,318.74C1115.36,316.367 1112.58,314.441 1109.14,314.441L1096.7,314.441C1093.27,314.441 1090.48,316.367 1090.48,318.74L1090.48,564.385C1090.48,566.758 1093.27,568.684 1096.7,568.684L1109.14,568.684C1112.58,568.684 1115.36,566.758 1115.36,564.385L1115.36,318.74Z" style="fill:rgb(165,41,41);"/>
        </g>
    </g>
    <g id="BIRD-2" serif:id="BIRD 2">
        <path d="M806.579,361.364C806.579,361.364 816.998,341.015 832.66,350.447C832.66,350.447 839.152,345.835 842.347,343.565C842.597,343.387 842.933,343.389 843.182,343.57C843.431,343.751 843.536,344.07 843.444,344.363C842.335,347.9 840.165,354.821 840.165,354.821C840.165,354.821 854.185,390.205 832.697,416.037C826.492,423.497 789.134,461.153 753.73,422.373C751.888,420.352 751.05,417.612 751.445,414.907C752.197,409.66 754.353,400.895 760.369,395.78L772.013,402.531C767.572,397.646 763.361,392.582 760.369,386.578C760.369,386.578 751.89,352.226 776.049,327.955C776.492,327.515 777.117,327.311 777.734,327.407C778.351,327.503 778.886,327.886 779.174,328.44C782.964,335.774 795.254,357.965 806.579,361.364Z" style="fill:rgb(105,186,201);"/>
        <path d="M759.554,362.497C762.4,368.471 769.047,380.817 778.294,387.933C779.169,388.606 779.332,389.863 778.659,390.738C777.986,391.612 776.729,391.776 775.854,391.103C768.538,385.472 762.676,376.594 758.959,369.95C759.035,367.303 759.265,364.893 759.554,362.497ZM763.673,346.513C765.051,350.155 772.263,368.167 783.522,377.849C784.359,378.569 784.454,379.832 783.735,380.669C783.015,381.506 781.751,381.601 780.914,380.882C771.59,372.864 764.864,359.448 761.698,352.207C762.287,350.169 762.95,348.273 763.673,346.513ZM771.371,333.333C771.414,333.419 771.452,333.511 771.483,333.606C771.483,333.606 778.372,354.763 791.096,366.039C791.922,366.771 791.998,368.036 791.266,368.862C790.534,369.688 789.269,369.765 788.443,369.033C777.744,359.551 770.912,343.474 768.579,337.334C769.573,335.789 770.508,334.47 771.371,333.333Z" style="fill:white;"/>
        <path d="M806.579,361.364L808.757,357.898C808.757,357.898 812.964,360.455 816.534,360.97C817.627,361.128 818.386,362.143 818.228,363.235C818.071,364.328 817.056,365.087 815.963,364.929C812.066,364.367 806.579,361.364 806.579,361.364Z"/>
        <path d="M761.548,396.464C761.548,396.464 771.904,411.889 787.932,415.146C789.014,415.365 790.12,415.268 790.627,414.288C791.134,413.307 790.825,411.913 789.769,411.592C777.113,407.747 771.883,402.388 771.883,402.388L761.548,396.464Z"/>
    </g>
    <g id="BIRD-1" serif:id="BIRD 1" transform="matrix(-1,0,0,1,2672.39,179.726)">
        <path d="M806.579,361.364C806.579,361.364 816.998,341.015 832.66,350.447C832.66,350.447 839.152,345.835 842.347,343.565C842.597,343.387 842.933,343.389 843.182,343.57C843.431,343.751 843.536,344.07 843.444,344.363C842.335,347.9 840.165,354.821 840.165,354.821C840.165,354.821 854.185,390.205 832.697,416.037C826.492,423.497 789.134,461.153 753.73,422.373C751.888,420.352 751.05,417.612 751.445,414.907C752.197,409.66 754.353,400.895 760.369,395.78L772.013,402.531C767.572,397.646 763.361,392.582 760.369,386.578C760.369,386.578 751.89,352.226 776.049,327.955C776.492,327.515 777.117,327.311 777.734,327.407C778.351,327.503 778.886,327.886 779.174,328.44C782.964,335.774 795.254,357.965 806.579,361.364Z" style="fill:rgb(105,186,201);"/>
        <path d="M759.554,362.497C762.4,368.471 769.047,380.817 778.294,387.933C779.169,388.606 779.332,389.863 778.659,390.738C777.986,391.612 776.729,391.776 775.854,391.103C768.538,385.472 762.676,376.594 758.959,369.95C759.035,367.303 759.265,364.893 759.554,362.497ZM763.673,346.513C765.051,350.155 772.263,368.167 783.522,377.849C784.359,378.569 784.454,379.832 783.735,380.669C783.015,381.506 781.751,381.601 780.914,380.882C771.59,372.864 764.864,359.448 761.698,352.207C762.287,350.169 762.95,348.273 763.673,346.513ZM771.371,333.333C771.414,333.419 771.452,333.511 771.483,333.606C771.483,333.606 778.372,354.763 791.096,366.039C791.922,366.771 791.998,368.036 791.266,368.862C790.534,369.688 789.269,369.765 788.443,369.033C777.744,359.551 770.912,343.474 768.579,337.334C769.573,335.789 770.508,334.47 771.371,333.333Z" style="fill:white;"/>
        <path d="M806.579,361.364L808.757,357.898C808.757,357.898 812.964,360.455 816.534,360.97C817.627,361.128 818.386,362.143 818.228,363.235C818.071,364.328 817.056,365.087 815.963,364.929C812.066,364.367 806.579,361.364 806.579,361.364Z"/>
        <path d="M761.548,396.464C761.548,396.464 771.904,411.889 787.932,415.146C789.014,415.365 790.12,415.268 790.627,414.288C791.134,413.307 790.825,411.913 789.769,411.592C777.113,407.747 771.883,402.388 771.883,402.388L761.548,396.464Z"/>
    </g>
    <g id="MAN">
        <g>
            <g transform="matrix(0.965995,0,0,1,23.9851,-4.29377)">
                <path d="M642.283,1354.94L642.878,1278.65L649.089,1278.65L648.494,1356.44C648.494,1357.42 647.998,1358.34 647.164,1358.9C647.164,1358.9 627.868,1371.74 623.109,1389.66C665.39,1370.16 693.692,1362.98 732.61,1361.52C758.739,1360.53 784.666,1366.8 812.424,1377.22L809.896,1278.83L816.105,1278.65L818.771,1381.59C818.802,1382.6 818.303,1383.56 817.444,1384.14C816.585,1384.72 815.482,1384.84 814.51,1384.46C785.967,1373.4 759.528,1366.5 732.853,1367.51C693.168,1369.01 664.779,1376.62 620.424,1397.58C619.422,1398.05 618.235,1397.97 617.312,1397.36C616.39,1396.75 615.876,1395.72 615.964,1394.64C617.609,1374.67 636.985,1358.9 642.283,1354.94Z" style="fill:rgb(255,120,103);"/>
            </g>
            <path d="M1399.77,1749.33C1396.75,1742.7 1387.01,1728.56 1357.69,1723.03C1356.52,1722.81 1355.59,1721.91 1355.33,1720.75L1331.66,1617.13L1337.45,1615.4L1360.74,1717.52C1402.78,1726.18 1406.93,1751.8 1406.93,1751.8C1407.08,1752.67 1406.84,1753.57 1406.27,1754.25C1405.7,1754.93 1404.86,1755.33 1403.97,1755.33L1197.66,1755.33C1196.29,1755.33 1195.1,1754.4 1194.75,1753.08L1171.52,1664.97L1177.01,1663.32L1199.98,1749.33L1399.77,1749.33Z" style="fill:rgb(255,120,103);"/>
        </g>
        <g>
            <path d="M644.916,1274.36L812.338,1274.36L812.338,973.547L1038.75,1123.37L1171.52,1664.97L1337.45,1615.4L1223.12,993.396L980.871,834.986C980.871,834.986 874.643,780.25 780.34,731.658C750.177,716.116 714.075,717.521 685.211,735.361C656.347,753.2 638.946,784.864 639.36,818.793C641.587,1001.42 644.916,1274.36 644.916,1274.36Z" style="fill:rgb(102,141,219);"/>
            <path d="M1080.93,900.419L1085.96,903.703L1060.54,944.228L1074.06,955.011L1101.06,913.581L1106.08,916.865L1077.28,961.053C1076.82,961.762 1076.08,962.242 1075.24,962.377C1074.41,962.511 1073.56,962.287 1072.89,961.76L1054.7,947.248C1053.51,946.297 1053.22,944.601 1054.03,943.309L1080.9,900.467L1080.93,900.419Z" style="fill:rgb(55,104,190);"/>
            <path d="M687.778,738.07C686.761,737.546 685.534,737.648 684.616,738.331C650.038,764.057 647.441,793.465 647.441,793.465C647.338,794.561 647.842,795.625 648.756,796.238C649.67,796.852 650.846,796.915 651.821,796.404C652.529,796.033 653.567,796.032 654.796,796.104C656.52,796.204 658.531,796.576 660.675,797.106C671.362,799.747 685.121,806.281 685.121,806.281C685.845,806.624 686.677,806.664 687.43,806.39C688.184,806.117 688.796,805.553 689.131,804.825C698.543,784.388 718.98,768.9 718.98,768.9C719.625,768.411 720.044,767.682 720.144,766.88C720.243,766.077 720.014,765.268 719.508,764.636C705.538,747.187 687.778,738.07 687.778,738.07ZM686.661,744.307C663.238,762.335 656.194,781.895 654.178,790.081C656.428,790.107 659.169,790.553 662.114,791.281C670.334,793.312 680.295,797.535 684.992,799.629C693.219,783.604 707.292,770.817 712.922,766.091C702.664,754.128 690.898,746.75 686.661,744.307Z" style="fill:rgb(55,104,190);"/>
            <path d="M644.586,1247.31L644.513,1241.31L812.338,1241.31L812.338,1247.31L769.527,1247.31L769.527,1274.36L763.527,1274.36L763.527,1247.31L756.059,1247.31L756.059,1274.36L750.059,1274.36L750.059,1247.31L680.786,1247.31L680.786,1274.36L674.786,1274.36L674.786,1247.31L644.586,1247.31Z" style="fill:rgb(55,104,190);"/>
            <path d="M1332.49,1588.41L1333.58,1594.34L1278.51,1609.95L1286.82,1630.24L1281.03,1631.93L1272.7,1611.6L1268.11,1612.9L1275.26,1633.61L1269.5,1635.3L1262.33,1614.54L1204.94,1630.81L1211.79,1652.15L1206.03,1653.83L1199.16,1632.45L1165.86,1641.89L1164.43,1636.06L1332.49,1588.41Z" style="fill:rgb(55,104,190);"/>
            <path d="M1217.11,1338.48C1216.33,1338.63 1215.64,1339.09 1215.19,1339.75C1214.75,1340.41 1214.58,1341.22 1214.73,1342L1224.32,1391.16C1224.47,1391.95 1224.93,1392.64 1225.6,1393.08C1226.27,1393.53 1227.09,1393.69 1227.87,1393.53L1275.07,1383.78C1275.85,1383.62 1276.54,1383.16 1276.97,1382.49C1277.41,1381.82 1277.56,1381.01 1277.4,1380.23L1267.18,1331.85C1266.84,1330.25 1265.28,1329.22 1263.68,1329.53L1217.11,1338.48ZM1221.2,1343.81L1229.63,1387.04L1270.9,1378.52L1261.92,1335.98L1221.2,1343.81Z" style="fill:rgb(55,104,190);"/>
        </g>
        <g>
            <path d="M1197.95,962.951C1203.79,996.294 1230.85,1099.54 1316.12,1086.42C1345.33,1081.92 1396.97,1056.38 1393.35,951.704C1389.49,839.603 1387.27,761.347 1375.58,675.076C1373.78,661.721 1369.08,649.179 1363.41,641.74C1358.09,634.77 1351.71,636.149 1354.18,646.081C1342.53,632.173 1329.69,632.835 1333.58,643.231C1333.58,643.231 1317.62,636.699 1323.47,652.296C1323.47,652.296 1309.83,648.652 1314.74,661.086C1319.06,672.013 1316.41,710.932 1314.34,713.027C1311.54,715.846 1310.19,702.257 1299.86,694.159C1296.62,691.626 1291,689.973 1291.13,703.657C1291.13,703.657 1282.27,848.067 1264.24,941.206L1197.95,962.951Z" style="fill:rgb(224,117,94);"/>
            <path d="M1331.92,734.003C1330.42,730.901 1328.42,727.944 1326.55,725.481C1323.74,721.777 1320.37,718.698 1316.69,715.878C1316.42,715.667 1312.85,713.197 1312.85,713.197C1314.09,713.905 1315.01,712.024 1315.14,710.574C1315.58,710.873 1318.69,712.796 1318.92,712.975C1322.85,715.995 1326.45,719.303 1329.46,723.269C1331.13,725.466 1332.87,728.028 1334.33,730.744C1338.95,725.36 1345.68,721.491 1352.58,720.786C1353.59,720.684 1354.49,721.416 1354.59,722.42C1354.69,723.425 1353.96,724.323 1352.96,724.426C1346.42,725.093 1340.07,729.048 1336.08,734.398C1336.92,736.426 1337.54,738.485 1337.81,740.494C1337.98,741.784 1337.71,745.137 1336.59,746.986C1336,747.944 1335.21,748.569 1334.3,748.8C1333.42,749.024 1332.33,748.925 1331.08,748.041C1329.36,746.828 1328.7,744.894 1328.79,742.732C1328.89,740.19 1330.08,737.324 1330.93,735.714C1331.24,735.134 1331.57,734.563 1331.92,734.003ZM1333.65,738.464C1333.09,739.719 1332.51,741.37 1332.44,742.883C1332.41,743.74 1332.5,744.57 1333.18,745.051C1333.24,745.092 1333.32,745.133 1333.38,745.167C1333.48,745.012 1333.63,744.75 1333.71,744.553C1334.17,743.325 1334.28,741.683 1334.18,740.98C1334.07,740.148 1333.89,739.307 1333.65,738.464Z" style="fill:rgb(165,41,41);"/>
            <path d="M1323.47,652.296L1322.26,647.72C1322.26,647.72 1332.86,663.345 1336.06,695.588C1336.2,696.961 1335.22,698.196 1333.85,698.346C1332.48,698.497 1331.2,697.51 1331.09,696.135C1328.91,669.296 1320.07,651.199 1319.53,651.813L1323.47,652.296Z" style="fill:rgb(165,41,41);fill-opacity:0.86;"/>
            <path d="M1333.73,636.914C1332.56,638.506 1332.81,640.751 1333.58,643.231L1331.39,642.521C1331.39,642.521 1344.59,668.448 1345.16,694.269C1345.19,695.649 1346.33,696.744 1347.71,696.713C1349.09,696.683 1350.19,695.538 1350.16,694.159C1349.48,663.371 1333.73,636.914 1333.73,636.914Z" style="fill:rgb(165,41,41);fill-opacity:0.86;"/>
            <path d="M1353.76,640.61C1353.56,641.62 1353.75,643.54 1354.18,646.081C1352.61,643.657 1350.64,641.827 1348.42,640.373C1348.42,640.373 1359.75,675.72 1360.76,694.295C1360.84,695.673 1362.02,696.73 1363.39,696.655C1364.77,696.58 1365.83,695.4 1365.75,694.023C1364.77,676.063 1353.76,640.61 1353.76,640.61Z" style="fill:rgb(165,41,41);fill-opacity:0.86;"/>
            <path d="M1251.97,945.231C1251.97,945.231 1252.54,963.21 1253.23,984.828C1253.3,986.896 1254.97,988.55 1257.04,988.594C1259.1,988.637 1260.84,987.055 1261,984.992C1262.75,961.387 1264.24,941.206 1264.24,941.206L1251.97,945.231Z" style="fill:rgb(165,41,41);"/>
        </g>
        <g>
            <path d="M1114.62,703.932L1124.01,689.712C1124.01,689.712 1123.56,689.12 1122.82,688.134C1113.21,675.368 1112.85,657.884 1121.93,644.737C1134.78,626.111 1155.59,604.555 1180.01,611.901C1180.01,611.901 1218.76,626.952 1206.21,664.238L1204.62,671.125C1204.62,671.125 1218.92,678.085 1206.21,689.712C1206.21,689.712 1196.18,698.719 1188.09,693.368L1183.56,739.61C1183.56,739.61 1131.85,750.603 1114.62,703.932Z" style="fill:rgb(224,117,94);"/>
            <path d="M1124.2,689.586L1121.24,694.227C1121.24,694.227 1125.38,697.68 1128.11,699.346C1135.7,703.992 1146.96,707.969 1163.14,707.493C1164.79,707.444 1166.1,706.06 1166.05,704.405C1166,702.75 1164.61,701.446 1162.96,701.495C1148.32,701.927 1138.11,698.431 1131.24,694.227C1128.66,692.652 1124.2,689.586 1124.2,689.586Z" style="fill:rgb(165,41,41);"/>
            <path d="M1204.62,671.262L1206.07,665.187C1206.07,665.187 1203.59,664.504 1202.09,664.464C1198.51,664.367 1193.65,665.629 1186.4,670.559C1185.03,671.49 1184.68,673.358 1185.61,674.727C1186.54,676.096 1188.41,676.451 1189.78,675.52C1195.44,671.665 1199.13,670.386 1201.93,670.461C1203.33,670.499 1204.62,671.262 1204.62,671.262Z" style="fill:rgb(165,41,41);"/>
            <path d="M1181.79,696.34L1187.36,700.598L1188.4,693.426L1185.83,691.908C1184.61,690.792 1182.71,690.879 1181.59,692.102C1180.48,693.325 1180.56,695.224 1181.79,696.34Z" style="fill:rgb(165,41,41);"/>
            <g transform="matrix(0.877769,0,0,0.781535,141.425,146.712)">
                <path d="M1148.23,663.299C1144.76,665.81 1142.31,671.035 1145.24,675.095C1147.1,677.668 1149.93,678.68 1153.06,678.614C1156.96,678.532 1161.34,676.745 1164.01,675.361C1165.15,674.769 1165.64,673.248 1165.12,671.967C1164.59,670.685 1163.24,670.126 1162.1,670.717C1159.87,671.873 1156.23,673.432 1152.97,673.5C1151.32,673.535 1149.76,673.227 1148.78,671.871C1148.37,671.31 1148.43,670.674 1148.66,670.097C1149.05,669.092 1149.86,668.204 1150.69,667.597C1151.75,666.832 1152.06,665.248 1151.37,664.062C1150.69,662.876 1149.28,662.534 1148.23,663.299Z" style="fill:rgb(165,41,41);"/>
                <path d="M1164.01,675.361C1170.62,671.931 1169.83,664.911 1167.18,662.173C1165.34,660.278 1162.49,659.47 1159.38,659.594C1155.28,659.758 1150.74,661.475 1148.23,663.299C1147.17,664.064 1146.87,665.648 1147.55,666.834C1148.23,668.02 1149.64,668.362 1150.69,667.597C1152.69,666.152 1156.29,664.835 1159.54,664.706C1161.34,664.634 1163.04,664.848 1164.1,665.94C1165.12,666.995 1164.65,669.391 1162.1,670.717C1160.95,671.309 1160.46,672.83 1160.98,674.111C1161.51,675.393 1162.86,675.953 1164.01,675.361Z" style="fill:rgb(165,41,41);"/>
            </g>
        </g>
        <g>
            <path d="M1020.15,686.647C1020.15,686.647 1053.4,681.181 1114.31,707.197C1114.81,707.409 1116.26,708.103 1116.26,708.103L1114.7,703.895L1115.7,702.321C1115.7,702.321 1114.81,702.011 1114.31,701.798C1051.06,674.761 1018.86,680.787 1018.86,680.787C1017.24,681.142 1016.22,682.744 1016.57,684.361C1016.93,685.978 1018.53,687.003 1020.15,686.647Z"/>
            <path d="M1184.12,733.536L1183.54,739.564C1183.54,739.564 1184.23,739.849 1184.61,740.007C1199.14,746.139 1240.28,767.674 1277.37,826.502C1278.01,827.526 1279.3,829.609 1279.3,829.609L1280.35,819.832C1280.35,819.832 1279.76,819.115 1279.3,818.415C1241.07,760.169 1199.39,739.486 1185.59,733.917C1185.24,733.777 1184.12,733.536 1184.12,733.536Z"/>
            <path d="M987,834.918L1005.64,824.329C1006.94,823.298 1007.15,821.41 1006.12,820.114C1005.09,818.818 1003.4,817.321 1002.1,818.352L982.376,829.656L987,834.918Z"/>
            <path d="M992.658,770.106L1008.55,853.099L1015.61,857.632L998.539,768.918C998.211,767.295 996.627,766.243 995.004,766.571C993.381,766.899 992.33,768.483 992.658,770.106Z"/>
            <path d="M1177.06,888.406L1190.23,971.889L1201.13,979.006L1182.96,887.322C1182.66,885.693 1181.1,884.614 1179.47,884.913C1177.84,885.213 1176.76,886.778 1177.06,888.406Z"/>
            <path d="M1174.92,961.863L1177.49,887.054C1187.74,914.879 1192.42,946.538 1197.66,976.736C1189.97,971.639 1182.51,966.873 1174.92,961.863Z"/>
        </g>
        <g>
            <path d="M1111.16,452.887C979.274,539.191 919.555,583.328 813.66,702.226C786.884,732.225 780.826,775.403 798.313,811.611C801.996,819.147 806.583,826.984 812.338,834.986C812.339,834.986 812.339,834.987 812.34,834.987C842.583,877.033 900.158,888.595 944.288,861.485C967.275,847.364 987.424,834.986 987.424,834.986L931.147,771.549L1141.97,561.978C1141.97,561.978 1158.65,551.603 1159.99,565.873C1159.99,565.873 1173.81,565.381 1171.52,544.048C1171.52,544.048 1185.68,534.006 1177.43,519.02C1177.43,519.02 1185.86,501.189 1171.52,488.94C1171.52,488.94 1172.43,471.893 1154.57,466.693C1154.57,466.693 1134.83,460.1 1115.31,466.693L1111.16,452.887Z" style="fill:rgb(224,117,94);"/>
            <path d="M930.263,770.524L934.242,775.015L900.278,805.793C899.051,806.905 897.152,806.812 896.04,805.585C894.929,804.358 895.022,802.459 896.249,801.347L930.263,770.524Z" style="fill:rgb(165,41,41);"/>
            <path d="M1171.52,544.795C1167.86,538.358 1160.84,536.1 1153.71,535.542C1141.26,534.567 1128.22,538.862 1128.22,538.862C1126.64,539.379 1124.95,538.521 1124.43,536.948C1123.91,535.375 1124.77,533.678 1126.34,533.162C1126.34,533.162 1140.59,528.496 1154.18,529.56C1162.6,530.219 1170.69,533.074 1175.57,539.994C1174.01,541.751 1171.52,544.048 1171.52,544.048L1171.52,544.795ZM1177.01,519.347C1153.52,502.039 1122.4,515.271 1122.4,515.271C1120.87,515.914 1119.11,515.197 1118.47,513.671C1117.83,512.145 1118.55,510.384 1120.07,509.742C1120.07,509.742 1153.31,495.866 1179.17,513.528C1178.8,515.231 1178.06,517.984 1177.01,519.347ZM1171.52,489.159C1141.79,476.864 1112.69,492.426 1112.69,492.426C1111.23,493.206 1109.41,492.653 1108.63,491.193C1107.85,489.732 1108.4,487.913 1109.86,487.133C1109.86,487.133 1139.43,471.375 1170.61,482.393C1170.95,483.843 1171.74,487.42 1171.52,489.159ZM1113.67,461.278C1114.12,462.784 1115.06,466.008 1115.36,467.06L1101.79,472.392C1100.25,472.998 1098.5,472.238 1097.9,470.697C1097.29,469.155 1098.05,467.413 1099.59,466.808L1113.67,461.278Z" style="fill:rgb(165,41,41);"/>
        </g>
    </g>
    <g id="GIRL">
        <g>
            <path d="M1503.62,560.006C1503.26,563.438 1501.7,566.635 1499.22,569.035C1497.32,570.894 1495.03,572.07 1493,570.308C1491.61,569.104 1489.54,561.042 1488.79,557.826C1488.79,557.826 1486.39,549.948 1491.98,541.798C1491.98,541.798 1480.9,533.85 1491.21,521.803C1491.21,521.803 1484.69,508.446 1496.04,500.696C1496.04,500.696 1488.31,487.804 1507.76,475.226C1513.51,471.508 1530.68,456.281 1562.43,477.354L1649.75,535.568L1593.35,623.944C1593.35,623.944 1518.39,551.736 1512.03,550.572C1512.03,550.572 1504.92,546.678 1503.62,560.006Z" style="fill:rgb(165,41,41);"/>
            <path d="M1488.51,537.395C1492.94,532.752 1500.75,525.839 1511.01,525.707C1517.67,525.621 1524.71,527.738 1532.4,535.966C1533.72,537.377 1534.13,538.968 1532.72,540.287C1531.31,541.606 1529.09,541.531 1527.77,540.12C1521.86,533.796 1516.21,531.472 1511.09,531.537C1502.57,531.647 1495.36,538.182 1492.03,541.921C1489.24,540.007 1489.06,538.962 1488.51,537.395ZM1489.65,515.589C1489.77,518.531 1490.09,519.134 1491.32,521.645C1491.32,521.645 1497.84,514.567 1503.84,512.17C1510.92,509.344 1520.56,508.965 1533.07,515.025C1534.81,515.867 1536.91,515.138 1537.75,513.4C1538.59,511.661 1537.62,510.482 1535.88,509.641C1520.96,502.417 1510.18,504.058 1501.74,507.427C1496.76,509.417 1489.65,515.589 1489.65,515.589ZM1494.68,495.504C1494.81,498.515 1495.08,497.68 1495.92,500.63C1495.92,500.63 1496.66,500.192 1496.92,499.984C1504.46,493.983 1520.68,484.832 1540.41,494.589C1542.14,495.445 1543.75,495.131 1544.61,493.4C1545.47,491.668 1544.36,490.757 1542.63,489.901C1521.86,479.632 1505.54,487.961 1495.81,494.709C1495.51,494.912 1494.68,495.504 1494.68,495.504Z"/>
        </g>
        <g>
            <path d="M1286.31,811.256C1286.31,811.256 1284.22,682.975 1304.95,670.602C1304.95,670.602 1312.12,669.091 1313.74,682.399C1313.74,682.399 1339.39,641.545 1355.67,635.333C1358.22,634.359 1365.86,633.106 1363.96,642.147C1363.96,642.147 1373.73,638.823 1374.96,651.23C1374.96,651.23 1386.1,651.326 1384.39,663.185C1384.39,663.185 1395.19,666.666 1389.17,678.862C1389.17,678.862 1363.88,721.724 1381.15,815.414L1286.31,811.256Z" style="fill:rgb(165,41,41);"/>
            <path d="M1384.43,663.127C1385.02,663.22 1387.18,663.932 1388.62,666.166C1384.62,669.387 1372.89,680.309 1356.53,707.667C1355.82,708.851 1354.28,709.238 1353.1,708.529C1351.91,707.821 1351.53,706.285 1352.24,705.101C1367.45,679.673 1379.14,667.705 1384.43,663.127ZM1312.2,675.896C1312.9,677.605 1313.46,680.475 1313.77,682.407C1309.05,690.048 1306.86,698.587 1306.86,698.587C1306.51,699.923 1305.15,700.728 1303.81,700.384C1302.48,700.04 1301.67,698.676 1302.01,697.34C1302.01,697.34 1305.02,685.699 1311.51,676.8C1311.62,676.645 1312.06,676.016 1312.2,675.896ZM1374.69,651.17C1375.36,651.114 1378.07,651.268 1380.19,652.752C1375,657.843 1354.88,678.123 1342.93,698.04C1342.22,699.223 1340.69,699.608 1339.5,698.898C1338.32,698.189 1337.93,696.652 1338.64,695.469C1349.63,677.144 1367.38,658.511 1374.69,651.17ZM1364,641.917C1364.88,641.685 1369.06,640.955 1370.76,642.906C1363.55,648.323 1345.33,664.465 1331.26,691.02C1330.61,692.239 1329.1,692.705 1327.88,692.059C1326.66,691.413 1326.19,689.898 1326.84,688.679C1339.34,665.085 1355.04,649.446 1364,641.917Z"/>
        </g>
        <g>
            <path d="M1607.36,664.647C1607.36,664.647 1567.72,802.126 1393.97,839.501C1393.97,839.501 1406.86,786.073 1480.11,744.369L1478.45,699.822C1478.45,699.822 1455.31,707.041 1454.99,685.669C1454.89,679.667 1461.07,677.148 1465.55,675.118C1465.55,675.118 1475.87,695.598 1494.88,687.22C1502.45,683.881 1516.51,664.669 1519.2,633.214C1519.2,633.214 1530.51,637.572 1531.75,628.488C1531.75,628.488 1538.97,646.461 1544.43,660.077C1548.04,669.052 1545.58,679.324 1538.3,685.691L1542.87,700.418C1542.87,700.418 1578.12,659.202 1607.36,664.647Z" style="fill:rgb(165,41,41);"/>
            <path d="M1521.92,668.951C1520.18,669.731 1518.42,670.92 1517.32,672.327C1515.91,674.132 1515.44,676.262 1516.67,678.532C1517.71,680.436 1519.53,681.491 1521.63,681.838C1524.35,682.289 1527.53,681.475 1529.45,680.188C1530.37,679.574 1530.62,678.331 1530,677.414C1529.39,676.496 1528.15,676.249 1527.23,676.863C1526.21,677.546 1524.62,677.995 1523.13,677.967C1521.94,677.944 1520.75,677.658 1520.19,676.622C1519.82,675.948 1520.06,675.326 1520.48,674.79C1521.2,673.857 1522.4,673.118 1523.55,672.601C1524.56,672.149 1525.01,670.965 1524.56,669.958C1524.11,668.951 1522.92,668.5 1521.92,668.951Z"/>
            <path d="M1529.45,680.188C1530.43,679.536 1531.85,678.495 1532.83,677.204C1534.11,675.51 1534.69,673.45 1533.53,671.175C1532.78,669.714 1531.35,668.676 1529.51,668.192C1527.26,667.6 1524.36,667.855 1521.92,668.951C1520.91,669.403 1520.46,670.587 1520.91,671.595C1521.36,672.602 1522.55,673.053 1523.55,672.601C1525.14,671.887 1527.03,671.675 1528.49,672.061C1529.13,672.229 1529.71,672.485 1529.97,672.994C1530.32,673.679 1530.03,674.281 1529.64,674.791C1528.95,675.702 1527.92,676.403 1527.23,676.863C1526.31,677.477 1526.06,678.72 1526.68,679.637C1527.29,680.555 1528.53,680.802 1529.45,680.188Z"/>
            <path d="M1538.35,685.844L1539.66,690.087C1533.7,695.628 1523.17,703.192 1509.71,703.756C1508.61,703.802 1507.67,702.945 1507.63,701.842C1507.58,700.739 1508.44,699.806 1509.54,699.76C1523.01,699.195 1533.26,690.947 1538.35,685.844Z"/>
            <path d="M1545.3,708.492L1542.87,700.418C1542.87,700.418 1544.29,699.002 1545.95,697.253L1549.11,707.291C1549.44,708.344 1548.86,709.468 1547.8,709.799C1546.75,710.131 1545.63,709.545 1545.3,708.492Z"/>
            <path d="M1459.04,654.295C1450.48,657.788 1440.67,658.744 1431.56,657.642C1411.85,655.256 1394.26,643.139 1381.21,628.706C1371.75,618.245 1364.48,605.829 1352.17,598.336C1335.33,588.09 1317.15,595.373 1299.2,598.137C1268.46,602.87 1233.42,596.363 1216.87,567.038C1212.43,559.188 1210,550.361 1209.61,541.359C1209.14,530.61 1211.97,519.743 1216.67,510.131C1231.35,480.089 1267.32,459.804 1300.31,470.785C1316.03,476.016 1329.04,487.53 1339.07,500.422C1348.03,511.941 1353.82,525.19 1360.5,538.057C1363.68,544.176 1367.22,552.51 1373.66,555.895C1381.04,559.772 1388.13,553.205 1393.15,548.45C1402.42,539.673 1412.98,529.675 1426.3,528.236C1441.35,526.61 1451.65,538.555 1458.51,550.351C1470.93,571.714 1475.66,593.795 1477.04,617.597C1480.42,615.332 1484.4,613.277 1489.06,611.51C1489.06,611.51 1522.96,602.36 1531.75,628.488C1531.75,628.488 1531.12,639.162 1519.2,633.214C1519.2,633.214 1520.82,681.3 1489.91,688.827C1484.72,690.089 1474.35,691.043 1463.98,675.828C1463.98,675.828 1459.58,666.338 1459.04,654.295Z"/>
        </g>
        <g>
            <g>
                <path d="M1824.97,1292.87L1824.97,1360.22C1824.97,1360.22 1989,1352.77 2021.64,1380.85C2021.64,1380.85 2031.66,1365.51 1995.21,1346.85L1995.21,1244.31" style="fill:none;stroke:rgb(102,141,219);stroke-width:6px;"/>
                <path d="M1316.88,1738.53L1333.58,1667.25C1335.77,1667.67 1337.78,1668.12 1339.41,1668.64L1322.26,1741.82C1321.98,1743.01 1321.01,1743.91 1319.8,1744.09C1319.8,1744.09 1304.89,1746.4 1290.38,1754.06C1282.28,1758.33 1274.27,1764.26 1269.21,1772.49L1475.77,1772.49L1489.24,1707.68L1494.93,1708.86L1481.14,1776.1C1480.85,1777.49 1479.62,1778.49 1478.2,1778.49L1264.24,1778.49C1263.23,1778.49 1262.28,1777.98 1261.73,1777.12C1261.17,1776.27 1261.09,1775.2 1261.5,1774.27C1266.73,1762.54 1277.03,1754.31 1287.58,1748.75C1299.73,1742.35 1312.13,1739.47 1316.88,1738.53Z" style="fill:rgb(102,141,219);"/>
            </g>
            <path d="M1992.21,1242.05L1992.21,878.447C1992.21,837.804 1971.71,799.903 1937.69,777.658C1903.68,755.413 1860.74,751.826 1823.51,768.118C1748.27,801.037 1660.24,842.195 1660.24,842.195C1658.73,842.858 1656.95,842.166 1656.29,840.649C1655.63,839.132 1656.32,837.362 1657.84,836.698C1657.84,836.698 1745.87,795.54 1821.1,762.621C1860.19,745.517 1905.27,749.284 1940.98,772.637C1976.69,795.99 1998.21,835.779 1998.21,878.447L1998.21,1244.31C1998.21,1244.94 1998.25,1246.63 1998.25,1246.63C1998.25,1246.63 1996.71,1247 1996.03,1247.19L1825.79,1295.76C1824.9,1296.01 1822.06,1296.73 1822.06,1296.73C1822.06,1296.73 1822.01,1293.91 1821.97,1292.99L1809.81,989.981L1661.34,1069.12L1495.72,1706.32C1495.52,1707.09 1494.93,1708.86 1494.93,1708.86C1494.93,1708.86 1492.83,1708.67 1492.06,1708.47L1336.69,1667.87L1333.58,1667.25C1329.18,1663.21 1397.46,1304.47 1421.27,1117.48C1447.04,915.058 1529,903.871 1529.84,904.914C1531.49,904.753 1532.96,905.96 1533.12,907.607C1533.28,909.255 1532.07,910.724 1530.42,910.885C1530.42,910.885 1506.18,920.484 1486.41,945.163C1465.81,970.88 1442.17,1020.65 1429.5,1116.69C1404.57,1305.78 1363.23,1496.04 1340.78,1662.73L1490.67,1701.9L1655.86,1066.34C1656.07,1065.52 1656.62,1064.84 1657.36,1064.44L1811.2,982.438C1812.11,981.953 1813.21,981.969 1814.1,982.483C1815,982.996 1815.57,983.934 1815.61,984.965L1827.81,1288.94L1992.21,1242.05Z" style="fill:rgb(255,119,102);"/>
            <path d="M1480.37,1697.63C1479.6,1696.65 1478.84,1695.61 1478.11,1694.51C1470.02,1682.32 1464.56,1662.71 1464.56,1640.55C1464.56,1618.38 1470.02,1598.77 1478.11,1586.58C1484.65,1576.74 1493.07,1571.48 1501.79,1571.48C1510.52,1571.48 1518.94,1576.74 1525.48,1586.58C1525.58,1586.74 1525.68,1586.89 1525.78,1587.05L1520.3,1608.23C1518.55,1602.87 1516.36,1598.16 1513.82,1594.33C1510.34,1589.1 1506.43,1585.48 1501.79,1585.48C1497.16,1585.48 1493.25,1589.1 1489.77,1594.33C1482.85,1604.75 1478.56,1621.6 1478.56,1640.55C1478.56,1659.49 1482.85,1676.35 1489.77,1686.76C1492.24,1690.47 1494.92,1693.38 1497.93,1694.75L1496.24,1701.31L1480.37,1697.63ZM1353.04,1581.24C1371.59,1572.15 1390.11,1568.42 1403.84,1569.85C1415.6,1571.07 1424.17,1576.08 1428.22,1583.81C1432.27,1591.53 1431.52,1601.44 1425.84,1611.8C1418.81,1624.62 1403.97,1638.57 1384.34,1648.86C1368.65,1657.09 1352.79,1661.47 1339.62,1662.12L1341.97,1647.95C1352.72,1646.93 1365.32,1643.03 1377.84,1636.46C1394.62,1627.66 1407.55,1616.03 1413.56,1605.07C1416.58,1599.56 1417.98,1594.41 1415.82,1590.31C1413.67,1586.2 1408.64,1584.42 1402.4,1583.78C1389.96,1582.48 1373.04,1586.51 1356.26,1595.3C1354.16,1596.41 1352.11,1597.56 1350.14,1598.74L1353.04,1581.24ZM1376.71,1438.61C1379.02,1438.27 1381.46,1438.12 1384.04,1438.17C1398.66,1438.44 1417.9,1445.1 1436.13,1457.71C1454.36,1470.31 1467.39,1485.96 1472.81,1499.55C1477.15,1510.43 1476.74,1520.29 1471.88,1527.45L1471.77,1527.62C1466.81,1534.79 1457.69,1538.72 1445.87,1538.51C1431.25,1538.23 1412.01,1531.57 1393.78,1518.96C1383.02,1511.53 1374.07,1503.03 1367.43,1494.52L1370.88,1473.75C1375.93,1484.91 1386.96,1497.23 1401.74,1507.45C1417.33,1518.22 1433.63,1524.28 1446.13,1524.51C1452.41,1524.62 1457.62,1523.47 1460.25,1519.66C1462.89,1515.84 1462.13,1510.57 1459.81,1504.73C1455.17,1493.12 1443.75,1480 1428.17,1469.23C1412.59,1458.45 1396.28,1452.4 1383.78,1452.17C1380.14,1452.1 1376.86,1452.46 1374.24,1453.51L1376.71,1438.61ZM1520.23,1491.58C1511.66,1490.45 1504.02,1484.21 1498.77,1473.73C1492.22,1460.65 1489.19,1440.52 1491.88,1418.52C1494.58,1396.52 1502.39,1377.71 1511.9,1366.61C1519.59,1357.63 1528.59,1353.43 1537.25,1354.49C1545.9,1355.55 1553.62,1361.81 1558.92,1372.37C1565.47,1385.45 1568.5,1405.58 1565.8,1427.58C1563.1,1449.58 1555.3,1468.38 1545.78,1479.49C1538.1,1488.46 1529.09,1492.67 1520.44,1491.61L1520.23,1491.58ZM1535.54,1368.39C1530.94,1367.82 1526.62,1370.94 1522.53,1375.71C1514.4,1385.21 1508.09,1401.42 1505.78,1420.22C1503.47,1439.03 1505.69,1456.28 1511.29,1467.46C1514.08,1473.03 1517.49,1477.08 1522.03,1477.7L1522.14,1477.71C1526.74,1478.27 1531.06,1475.15 1535.15,1470.38C1543.29,1460.89 1549.6,1444.68 1551.9,1425.88C1554.21,1407.07 1552,1389.82 1546.4,1378.64C1543.59,1373.02 1540.14,1368.95 1535.54,1368.39ZM1396.7,1318.17C1398.01,1318.57 1399.33,1318.98 1400.65,1319.42C1421.68,1326.41 1438.58,1337.78 1447.58,1349.3C1454.86,1358.61 1457.2,1368.26 1454.45,1376.54C1451.7,1384.82 1444.05,1391.15 1432.64,1394.25C1420.16,1397.64 1402.8,1397.25 1384.4,1392.27L1386.7,1378.39C1402.82,1382.98 1418.06,1383.71 1428.97,1380.74C1435.03,1379.09 1439.7,1376.52 1441.17,1372.12C1442.63,1367.73 1440.42,1362.87 1436.55,1357.92C1428.85,1348.07 1414.21,1338.68 1396.24,1332.71C1395.62,1332.5 1395,1332.3 1394.38,1332.11L1396.7,1318.17ZM1445.66,1311.71C1438.09,1307.38 1433.4,1298.62 1432.61,1286.83C1431.64,1272.24 1436.64,1252.5 1447.65,1233.27C1458.65,1214.03 1473.13,1199.71 1486.21,1193.16C1496.77,1187.87 1506.7,1187.48 1514.27,1191.81C1521.84,1196.14 1526.53,1204.89 1527.32,1216.68C1528.3,1231.28 1523.29,1251.01 1512.28,1270.25C1501.28,1289.49 1486.8,1303.8 1473.72,1310.36C1463.16,1315.65 1453.23,1316.04 1445.66,1311.71ZM1599.7,1301.16C1597.12,1299.6 1594.56,1297.63 1592.05,1295.25C1581.08,1284.85 1570.71,1266.22 1564.92,1243.65C1559.13,1221.08 1559.25,1199.76 1563.85,1185.36C1567.6,1173.63 1574.47,1166.16 1582.92,1163.99C1591.38,1161.82 1600.99,1165.07 1609.92,1173.54C1615.88,1179.19 1621.65,1187.26 1626.62,1197.06L1620.82,1219.5C1615.68,1204.02 1608.28,1191.28 1600.29,1183.7C1595.55,1179.21 1590.88,1176.4 1586.4,1177.55C1581.92,1178.7 1579.18,1183.41 1577.19,1189.62C1573.19,1202.12 1573.46,1220.6 1578.48,1240.17C1583.5,1259.74 1592.17,1276.07 1601.68,1285.1C1602.27,1285.65 1602.86,1286.19 1603.44,1286.69L1599.7,1301.16ZM1507.32,1203.96C1503.29,1201.66 1498.1,1202.86 1492.48,1205.68C1481.31,1211.28 1469.21,1223.78 1459.8,1240.22C1450.39,1256.66 1445.75,1273.42 1446.58,1285.9C1447,1292.17 1448.59,1297.26 1452.61,1299.56C1456.64,1301.86 1461.83,1300.66 1467.45,1297.84C1478.62,1292.24 1490.72,1279.74 1500.13,1263.3C1509.54,1246.86 1514.18,1230.09 1513.35,1217.62C1512.93,1211.35 1511.34,1206.26 1507.32,1203.96ZM1823.9,1245.15C1831.73,1241.18 1839.3,1238.61 1846.06,1237.56C1857.73,1235.75 1867.3,1238.42 1873.19,1244.86C1879.07,1251.29 1880.86,1261.06 1878.01,1272.53C1877.26,1275.54 1876.19,1278.68 1874.8,1281.9L1856.01,1287.49C1860.12,1281.13 1863,1274.87 1864.42,1269.15C1865.94,1263.05 1865.98,1257.72 1862.85,1254.3C1859.73,1250.88 1854.41,1250.43 1848.2,1251.4C1841.05,1252.51 1832.9,1255.72 1824.58,1260.72L1823.9,1245.15ZM1994.29,1146.43L1994.37,1161.21C1984.59,1165.05 1973.93,1171.83 1963.96,1180.94C1949.97,1193.72 1940.43,1208.27 1937.41,1220.4C1935.89,1226.49 1935.85,1231.82 1938.98,1235.25C1942.11,1238.67 1947.42,1239.11 1953.62,1238.15C1965.79,1236.26 1980.86,1228.27 1994.68,1215.82L1994.78,1233.84C1981.29,1243.93 1967.34,1250.18 1955.77,1251.98C1944.1,1253.79 1934.53,1251.13 1928.64,1244.69C1922.76,1238.25 1920.97,1228.48 1923.82,1217.01C1927.36,1202.82 1938.15,1185.56 1954.52,1170.61C1967.56,1158.69 1981.75,1150.42 1994.29,1146.43ZM1816.27,1069.67C1817.52,1068.48 1818.88,1067.45 1820.36,1066.59C1827.9,1062.21 1837.83,1062.53 1848.43,1067.75C1861.55,1074.21 1876.13,1088.43 1887.27,1107.59C1898.41,1126.75 1903.55,1146.45 1902.67,1161.05C1901.97,1172.85 1897.33,1181.63 1889.79,1186.02C1882.25,1190.4 1872.32,1190.08 1861.72,1184.86C1848.6,1178.39 1834.03,1164.18 1822.89,1145.02C1821.6,1142.8 1820.39,1140.57 1819.26,1138.35L1816.27,1069.67ZM1874.94,1114.24C1865.45,1098.05 1853.37,1085.79 1842.24,1080.31C1836.61,1077.53 1831.4,1076.37 1827.4,1078.69C1823.39,1081.02 1821.83,1086.12 1821.46,1092.39C1820.71,1104.87 1825.47,1121.6 1834.99,1137.98C1844.51,1154.36 1856.7,1166.77 1867.91,1172.3C1873.55,1175.08 1878.75,1176.24 1882.76,1173.91C1886.76,1171.58 1888.32,1166.49 1888.7,1160.22C1889.44,1147.74 1884.69,1131 1875.16,1114.63L1874.94,1114.24ZM1438.4,1066.84C1446.14,1070.98 1454.05,1076.4 1461.62,1083.02C1478.3,1097.61 1489.47,1114.63 1493.31,1128.75C1496.41,1140.15 1494.84,1149.96 1489.09,1156.52C1483.35,1163.09 1473.84,1165.96 1462.13,1164.4C1451.12,1162.94 1437.88,1157.51 1424.84,1148.59L1427.4,1133.15C1440.03,1142.94 1453.19,1149.09 1463.98,1150.52C1470.2,1151.35 1475.5,1150.79 1478.56,1147.31C1481.61,1143.82 1481.45,1138.49 1479.8,1132.43C1476.52,1120.36 1466.66,1106.03 1452.4,1093.56C1447.02,1088.86 1441.47,1084.81 1435.97,1081.51L1438.4,1066.84ZM1540.39,1123.46C1520.04,1113.86 1504.35,1100.45 1496.61,1087.87C1490.34,1077.68 1489.11,1067.76 1492.83,1059.87C1496.55,1051.98 1504.99,1046.62 1516.84,1044.97C1531.35,1042.95 1551.48,1046.45 1571.67,1055.88L1572.15,1056.1C1592.5,1065.69 1608.18,1079.11 1615.93,1091.69C1622.19,1101.88 1623.43,1111.8 1619.71,1119.69C1615.99,1127.58 1607.55,1132.94 1595.7,1134.59C1581.07,1136.62 1560.74,1133.05 1540.39,1123.46ZM1994.11,1113.38C1993.35,1114.19 1992.58,1114.98 1991.81,1115.71C1983.27,1123.88 1973.9,1127.18 1965.39,1125.27C1956.88,1123.36 1949.82,1116.37 1945.59,1105.34C1940.37,1091.68 1939.33,1071.35 1944.19,1049.72C1949.04,1028.09 1958.66,1010.15 1969.23,1000.04C1977.03,992.574 1985.52,989.179 1993.41,990.101L1993.5,1004.4C1993.2,1004.3 1992.89,1004.21 1992.58,1004.14C1988.06,1003.12 1983.45,1005.81 1978.91,1010.15C1969.88,1018.8 1962,1034.3 1957.85,1052.79C1953.7,1071.27 1954.2,1088.66 1958.67,1100.33C1960.91,1106.2 1963.93,1110.59 1968.46,1111.61C1972.98,1112.62 1977.59,1109.94 1982.13,1105.6C1986.43,1101.48 1990.47,1095.81 1993.97,1089L1994.11,1113.38ZM1566.18,1068.76C1548.7,1060.52 1531.32,1057.09 1518.76,1058.84C1512.47,1059.71 1507.47,1061.65 1505.49,1065.84C1503.52,1070.03 1505.2,1075.12 1508.53,1080.53C1515.13,1091.25 1528.67,1102.38 1545.95,1110.6L1546.36,1110.8C1563.83,1119.04 1581.21,1122.47 1593.77,1120.72C1600.07,1119.85 1605.07,1117.91 1607.04,1113.72C1609.02,1109.53 1607.33,1104.44 1604,1099.03C1597.36,1088.23 1583.65,1077 1566.18,1068.76ZM1707.36,1041.45C1699.92,1021.83 1697.95,1002.74 1700.76,989.036C1703.13,977.461 1708.97,969.421 1717.06,966.153C1725.14,962.885 1734.92,964.613 1744.67,971.288C1754.72,978.163 1764.99,990.489 1772.95,1006.27L1760.61,1012.89C1753.89,999.373 1745.34,988.707 1736.77,982.84C1731.58,979.292 1726.6,977.396 1722.3,979.133C1718,980.87 1715.74,985.696 1714.47,991.849C1712.16,1003.13 1713.96,1018.66 1719.81,1034.77L1707.36,1041.45ZM1507.29,918.115C1512.64,921.742 1517.98,925.994 1523.13,930.827C1539.29,945.995 1549.86,963.398 1553.2,977.638C1555.9,989.141 1553.98,998.887 1548.01,1005.25C1542.04,1011.61 1532.44,1014.14 1520.79,1012.17C1506.36,1009.74 1488.33,1000.3 1472.16,985.127C1468.9,982.06 1465.86,978.902 1463.06,975.697C1465.29,970.801 1467.57,966.257 1469.88,962.034C1473.33,966.412 1477.31,970.754 1481.75,974.919C1495.56,987.885 1510.79,996.287 1523.12,998.37C1529.31,999.416 1534.63,999.045 1537.8,995.665C1540.97,992.285 1541.01,986.953 1539.57,980.839C1536.71,968.667 1527.36,954 1513.55,941.035C1507.79,935.635 1501.8,931.026 1495.86,927.337C1499.83,923.601 1503.67,920.572 1507.29,918.115ZM1885.61,928.319C1900.28,911.99 1917.25,901.126 1931.29,897.448C1942.72,894.453 1952.51,896.127 1959.02,901.931C1965.53,907.735 1968.31,917.272 1966.64,928.969C1964.58,943.45 1955.6,961.722 1940.85,978.266C1926.1,994.81 1908.97,1005.82 1894.82,1009.52C1883.39,1012.52 1873.6,1010.85 1867.09,1005.04C1860.58,999.237 1857.8,989.7 1859.47,978.002C1861.53,963.522 1870.51,945.249 1885.26,928.706L1885.61,928.319ZM1588.21,936.856C1590.93,914.859 1598.76,896.066 1608.3,884.97C1615.99,876.006 1625,871.815 1633.66,872.887C1642.31,873.959 1650.02,880.222 1655.3,890.793C1661.84,903.88 1664.84,924.015 1662.12,946.012C1659.39,968.009 1651.56,986.802 1642.03,997.898C1634.33,1006.86 1625.33,1011.05 1616.67,1009.98C1608.02,1008.91 1600.31,1002.65 1595.03,992.075C1588.49,978.988 1585.49,958.852 1588.21,936.856ZM1930.4,968.949C1943.01,954.808 1951.02,939.368 1952.78,926.991C1953.67,920.774 1953.16,915.465 1949.7,912.38C1946.24,909.295 1940.91,909.399 1934.84,910.991C1922.74,914.159 1908.32,923.882 1895.71,938.023C1883.1,952.163 1875.09,967.603 1873.33,979.981C1872.44,986.198 1872.94,991.506 1876.4,994.591C1879.87,997.676 1885.2,997.573 1891.27,995.981C1903.37,992.812 1917.79,983.09 1930.4,968.949ZM1648.28,943.85C1650.52,925.221 1648.32,908.146 1642.78,897.048C1639.97,891.429 1636.54,887.351 1631.93,886.781C1627.33,886.211 1623.01,889.328 1618.91,894.092C1610.77,903.576 1604.43,919.776 1602.1,938.577C1599.78,957.379 1601.97,974.634 1607.55,985.82C1610.36,991.439 1613.79,995.517 1618.39,996.087C1622.99,996.657 1627.32,993.54 1631.41,988.776C1639.56,979.292 1645.89,963.092 1648.22,944.291L1648.28,943.85ZM1752.61,932.856C1735.59,918.998 1723.91,902.578 1719.55,888.734C1716,877.464 1717.19,867.602 1722.67,860.817C1728.15,854.032 1737.54,850.789 1749.31,851.886C1763.87,853.244 1782.56,861.321 1799.8,875.247C1817.05,889.173 1828.88,905.743 1833.27,919.695C1836.82,930.966 1835.62,940.828 1830.14,947.613C1824.66,954.398 1815.27,957.641 1803.51,956.544C1788.94,955.186 1770.26,947.109 1753.01,933.183L1752.61,932.856ZM1791.01,886.138C1776.27,874.235 1760.46,866.986 1748.01,865.826C1741.76,865.242 1736.48,866.007 1733.57,869.613C1730.65,873.22 1731.02,878.54 1732.9,884.53C1736.63,896.363 1746.91,910.171 1761.46,922.012L1761.81,922.291C1776.55,934.195 1792.36,941.443 1804.81,942.604C1811.06,943.187 1816.34,942.423 1819.25,938.817C1822.16,935.21 1821.8,929.89 1819.91,923.9C1816.16,911.974 1805.75,898.042 1791.01,886.138ZM1939.52,775.788C1956.91,786.822 1968.91,801.08 1977.04,814.186C1975.8,816.943 1974.13,819.719 1972.04,822.473C1963.2,834.125 1946.47,845.734 1925.54,853.027C1904.61,860.321 1884.3,861.62 1870.13,857.986C1858.68,855.05 1850.93,848.829 1848.07,840.594C1845.2,832.358 1847.4,822.671 1854.54,813.258C1863.38,801.605 1880.11,789.997 1901.04,782.703C1914.63,777.967 1927.96,775.759 1939.52,775.788ZM1861.29,835.987C1859.76,831.609 1861.9,826.724 1865.69,821.721C1873.25,811.761 1887.75,802.158 1905.64,795.924C1923.53,789.69 1940.87,788.2 1952.98,791.306C1959.06,792.867 1963.77,795.367 1965.29,799.744C1966.82,804.121 1964.68,809.007 1960.89,814.01C1953.33,823.97 1938.83,833.573 1920.94,839.807C1903.05,846.041 1885.72,847.531 1873.6,844.425C1867.52,842.864 1862.81,840.364 1861.29,835.987ZM1799.26,775.924C1802.23,777.934 1804.88,780.043 1807.18,782.213C1815.75,790.34 1819.5,799.54 1818.01,808.133C1816.52,816.725 1809.88,824.122 1799.07,828.879C1785.68,834.768 1765.42,836.789 1743.58,832.994C1728.51,830.376 1715.08,825.404 1704.72,819.267L1720.88,811.86C1728.24,815.058 1736.77,817.601 1745.98,819.201C1764.64,822.444 1781.99,821.097 1793.43,816.064C1799.18,813.535 1803.42,810.303 1804.21,805.736C1805.01,801.169 1802.11,796.695 1797.55,792.376C1793.95,788.971 1789.29,785.798 1783.82,783.006L1799.26,775.924Z" style="fill:rgb(255,123,107);"/>
        </g>
        <g>
            <path d="M1285.73,810.058L1388.03,815.313L1393,836.309C1393,836.309 1536.5,822.947 1607.24,663.852L1637.41,670.254L1593.23,622.778L1649.16,534.514C1649.16,534.514 1850.67,683.801 1854.72,768.796C1854.72,768.796 1854.79,769.727 1854.84,771.399C1855.44,796.136 1843.54,819.511 1823.17,833.559C1802.8,847.608 1776.72,850.433 1753.81,841.073C1717.02,826.037 1667.16,805.666 1667.16,805.666C1667.16,805.666 1676.41,826.61 1674.64,836.575L1525.16,916.322C1525.16,916.322 1493.31,911.2 1473.95,882.21C1473.95,882.21 1498.82,983.077 1434.79,1057.87C1416.43,1079.34 1386.88,1087.5 1360.11,1078.5C1338.47,1071.18 1316.85,1050.99 1307.4,1002.72C1307.4,1002.72 1281.89,894.469 1285.73,810.058Z" style="fill:rgb(255,210,116);"/>
            <path d="M1413.73,984.377C1413.69,983.861 1413.57,982.301 1413.39,980.734C1411.05,960.07 1393.07,836.37 1393.07,836.37L1400.01,835.458C1400.01,835.458 1418.01,959.269 1420.34,979.948C1420.61,982.26 1420.74,983.82 1420.75,984.49C1420.76,985.147 1420.66,985.58 1420.6,985.793C1420.17,987.31 1419.17,987.854 1418.54,988.111C1417.71,988.455 1416.82,988.501 1415.87,988.114C1414.36,987.494 1413.51,985.929 1413.73,984.377ZM1416.28,981.498C1417,981.302 1417.78,981.333 1418.52,981.635C1417.74,981.314 1416.99,981.295 1416.28,981.498Z" style="fill:rgb(222,115,90);"/>
            <path d="M1637.77,670.204L1625.97,668.035L1755.81,802.956C1757.15,804.348 1759.36,804.39 1760.76,803.051C1762.15,801.711 1762.19,799.494 1760.85,798.102L1637.77,670.204Z" style="fill:rgb(222,115,90);"/>
            <path d="M1666.26,805.419C1658.77,787.016 1648.63,770.187 1648.63,770.187C1647.63,768.531 1648.17,766.379 1649.83,765.384C1651.48,764.388 1653.63,764.924 1654.63,766.579C1654.63,766.579 1667.31,787.705 1675.09,808.876L1666.26,805.419Z" style="fill:rgb(222,115,90);"/>
        </g>
    </g>
    <g id="PLANTS-LEFT" serif:id="PLANTS LEFT">
        <path d="M902.013,1537.36C902.013,1537.36 924.266,1485.84 965.161,1476.69C965.161,1476.69 969.93,1507.96 957.797,1552.56C957.797,1552.56 988.753,1531.81 1005.81,1537.36C1005.81,1537.36 1005.28,1567.37 984.41,1594.02C984.41,1594.02 964.066,1545.24 904.03,1569.64C904.03,1569.64 903.275,1540.84 902.013,1537.36Z" style="fill:rgb(102,141,219);"/>
        <path d="M494.899,1673.47C494.899,1673.47 448.945,1644.64 433.933,1562.27C433.933,1562.27 441.534,1560.75 457.619,1568.3C457.619,1568.3 436.365,1529.3 445.995,1487.84C445.995,1487.84 480.691,1497.66 510.418,1539.9C510.418,1539.9 481.692,1610.07 494.899,1673.47Z" style="fill:rgb(102,141,219);"/>
        <path d="M494.899,1673.47L1005.81,1673.47C1005.81,1673.47 997.953,1526.56 904.03,1569.64C903.103,1522.43 893.449,1467.48 864.287,1425.12C851.974,1407.24 834.995,1392.7 814.916,1380.85C766.956,1352.52 689.922,1351.8 619.06,1394.88C555.79,1433.34 481.063,1540.55 494.899,1673.47Z" style="fill:none;stroke:rgb(13,46,58);stroke-width:6px;"/>
        <path d="M1086.81,1740.9L992.474,1741.13C992.474,1741.13 998.159,1705.94 1029.74,1703.37C1041.83,1702.39 1070.3,1712.59 1086.81,1740.9Z" style="fill:none;stroke:rgb(15,48,60);stroke-width:6px;"/>
        <g>
            <path d="M674.126,1476.69C674.126,1476.69 705.925,1556.91 731.402,1697.1" style="fill:none;stroke:rgb(102,141,219);stroke-width:6px;"/>
            <path d="M691.808,1529.62C691.808,1529.62 682.671,1497.83 702.764,1487.84C702.764,1487.84 714.65,1507.01 691.808,1529.62Z" style="fill:rgb(102,141,219);"/>
            <g transform="matrix(1.11564,0,0,1.50942,-77.8546,-769.725)">
                <path d="M688.026,1523.33C688.026,1523.33 664.947,1520.37 658.011,1504.88C658.282,1502.97 684.824,1506.59 688.026,1523.33Z" style="fill:rgb(102,141,219);"/>
            </g>
            <g transform="matrix(1.11564,0,0,1.50942,-57.1119,-704.422)">
                <path d="M688.026,1523.33C688.026,1523.33 664.947,1520.37 658.011,1504.88C658.282,1502.97 684.824,1506.59 688.026,1523.33Z" style="fill:rgb(102,141,219);"/>
            </g>
            <g transform="matrix(-0.835971,0.738789,0.999555,1.13104,-236.412,-636.323)">
                <path d="M688.026,1523.33C688.026,1523.33 664.947,1520.37 658.011,1504.88C658.282,1502.97 684.824,1506.59 688.026,1523.33Z" style="fill:rgb(102,141,219);"/>
            </g>
            <g transform="matrix(0.945857,-0.324583,0.324583,0.945857,-447.935,276.854)">
                <path d="M672.353,1460.25L672.353,1476.69C672.353,1477.36 672.899,1477.9 673.572,1477.9C674.245,1477.9 674.792,1477.36 674.792,1476.69L674.792,1460.31C677.46,1460.46 680.233,1460.89 683.1,1461.65L683.1,1476.69C683.1,1477.36 683.647,1477.9 684.32,1477.9C684.993,1477.9 685.539,1477.36 685.539,1476.69L685.539,1462.38C687.76,1463.11 690.033,1464.04 692.355,1465.2C692.924,1467.78 693.229,1470.51 693.229,1473.34C693.229,1489.28 683.51,1502.23 671.539,1502.23C659.569,1502.23 649.85,1489.28 649.85,1473.34C649.85,1471.07 650.046,1468.86 650.418,1466.75C652.599,1465.43 654.978,1464.21 657.54,1463.2L657.54,1476.69C657.54,1477.36 658.086,1477.9 658.759,1477.9C659.432,1477.9 659.979,1477.36 659.979,1476.69L659.979,1462.31C661.573,1461.79 663.23,1461.34 664.946,1461L664.946,1471.38C664.946,1472.06 665.493,1472.6 666.166,1472.6C666.839,1472.6 667.385,1472.06 667.385,1471.38L667.385,1460.6C668.994,1460.38 670.65,1460.26 672.353,1460.25Z" style="fill:rgb(253,219,129);"/>
            </g>
        </g>
        <g>
            <g>
                <path d="M513.896,1463.87C513.896,1463.87 578.403,1552.69 628.704,1684.93C629.292,1686.48 631.027,1687.26 632.574,1686.67C634.122,1686.08 634.9,1684.34 634.312,1682.8C583.691,1549.72 518.751,1460.34 518.751,1460.34C517.778,1459 515.9,1458.7 514.561,1459.68C513.221,1460.65 512.923,1462.53 513.896,1463.87Z" style="fill:rgb(102,141,219);"/>
                <path d="M574.984,1556.42C575.02,1554.6 573.497,1551.71 573.095,1549.87C572.108,1545.32 571.464,1540.62 571.56,1535.97C571.707,1528.79 573.943,1522.13 577.771,1516.08C578.052,1515.64 581.019,1510.67 581.858,1511.15C584.357,1512.57 584.788,1520.46 585.042,1522.75C586.313,1534.24 584.122,1546.94 575.845,1555.53" style="fill:rgb(102,141,219);"/>
                <path d="M573.172,1554.5C572.782,1554.91 571.102,1554.76 570.494,1554.74C567.972,1554.69 565.446,1554.33 562.957,1553.94C555.068,1552.69 546.968,1550.72 540.353,1546.04C538.973,1545.06 537.65,1544.01 536.41,1542.86C535.604,1542.11 532.021,1539.09 532.191,1537.7C532.305,1536.77 534.985,1536.83 535.518,1536.8C539.164,1536.63 542.835,1537.28 546.361,1538.16C549.692,1539 552.926,1540.19 556.076,1541.55C561.013,1543.68 565.659,1546.68 569.512,1550.44" style="fill:rgb(102,141,219);"/>
                <path d="M603.192,1617.37C603.086,1617.74 600.631,1617.42 600.305,1617.4C597.171,1617.14 594.085,1616.45 591.048,1615.66C582.898,1613.54 574.238,1610.39 568.013,1604.49C565.655,1602.25 563.629,1599.59 562.012,1596.78C561.828,1596.46 560.61,1594.76 560.96,1594.33C561.724,1593.38 565.831,1594.77 566.674,1594.97C567.887,1595.27 569.094,1595.61 570.287,1595.98C572.502,1596.66 574.692,1597.44 576.837,1598.32C580.458,1599.81 583.986,1601.6 587.386,1603.54C592.274,1606.33 597.171,1609.65 601.123,1613.69" style="fill:rgb(102,141,219);"/>
                <path d="M602.496,1611.9C602.676,1610.46 601.995,1608.27 601.982,1606.73C601.946,1602.58 602.363,1598.43 603.192,1594.36C603.911,1590.84 604.908,1587.36 606.285,1584.04C607.775,1580.44 609.69,1577.03 612.045,1573.93C612.297,1573.6 613.918,1571.17 614.558,1571.51C615.621,1572.07 615.994,1575.31 616.193,1576.27C616.428,1577.42 616.589,1578.58 616.699,1579.74C616.893,1581.79 616.958,1583.84 616.881,1585.9C616.56,1594.51 614.175,1603.39 609.711,1610.8C608.494,1612.82 606.477,1616.47 604.082,1617.44" style="fill:rgb(102,141,219);"/>
            </g>
            <path d="M504.563,1421.36C507.339,1420.84 510.324,1420.61 513.531,1420.75C514.978,1422.23 516.345,1423.85 517.608,1425.62C527.694,1439.69 527.35,1457.23 516.84,1464.76C506.329,1472.3 489.607,1466.99 479.521,1452.91C477.93,1450.69 476.599,1448.39 475.527,1446.05C476.769,1443.54 478.273,1440.9 480.076,1438.31L486.47,1447.29C487.153,1448.25 488.487,1448.47 489.446,1447.79C490.406,1447.1 490.63,1445.77 489.947,1444.81L482.782,1434.75C484.101,1433.16 485.546,1431.63 487.127,1430.2L496.746,1443.71C497.429,1444.67 498.763,1444.89 499.723,1444.21C500.682,1443.53 500.907,1442.19 500.223,1441.23L490.446,1427.5C493.293,1425.43 496.511,1423.7 500.137,1422.51L507.262,1432.52C507.945,1433.48 509.279,1433.7 510.238,1433.02C511.198,1432.33 511.422,1431 510.739,1430.04L504.563,1421.36Z" style="fill:rgb(253,219,129);"/>
        </g>
        <g transform="matrix(-1,0,0,1,1457.03,-36.4245)">
            <g>
                <path d="M513.896,1463.87C513.896,1463.87 531.94,1489.88 556.383,1532.9C556.894,1533.8 558.128,1536.54 558.128,1536.54L560.321,1527.49L559.051,1525L518.751,1460.34C517.778,1459 515.9,1458.7 514.561,1459.68C513.221,1460.65 512.923,1462.53 513.896,1463.87Z" style="fill:rgb(102,141,219);"/>
                <g transform="matrix(0.878131,0,0,0.918501,31.9742,65.9527)">
                    <path d="M574.984,1556.42C575.02,1554.6 573.497,1551.71 573.095,1549.87C572.108,1545.32 571.464,1540.62 571.56,1535.97C571.707,1528.79 573.943,1522.13 577.771,1516.08C578.052,1515.64 581.019,1510.67 581.858,1511.15C584.357,1512.57 584.788,1520.46 585.042,1522.75C586.313,1534.24 584.122,1546.94 575.845,1555.53" style="fill:rgb(102,141,219);"/>
                </g>
                <g transform="matrix(1,0,0,1,-34.0734,-59.252)">
                    <path d="M573.172,1554.5C572.782,1554.91 571.102,1554.76 570.494,1554.74C567.972,1554.69 565.446,1554.33 562.957,1553.94C555.068,1552.69 546.968,1550.72 540.353,1546.04C538.973,1545.06 537.65,1544.01 536.41,1542.86C535.604,1542.11 532.021,1539.09 532.191,1537.7C532.305,1536.77 534.985,1536.83 535.518,1536.8C539.164,1536.63 542.835,1537.28 546.361,1538.16C549.692,1539 552.926,1540.19 556.076,1541.55C561.013,1543.68 565.659,1546.68 569.512,1550.44" style="fill:rgb(102,141,219);"/>
                </g>
                <g transform="matrix(0.860924,0,0,0.870304,35.7153,116.51)">
                    <path d="M603.192,1617.37C603.086,1617.74 600.631,1617.42 600.305,1617.4C597.171,1617.14 594.085,1616.45 591.048,1615.66C582.898,1613.54 574.238,1610.39 568.013,1604.49C565.655,1602.25 563.629,1599.59 562.012,1596.78C561.828,1596.46 560.61,1594.76 560.96,1594.33C561.724,1593.38 565.831,1594.77 566.674,1594.97C567.887,1595.27 569.094,1595.61 570.287,1595.98C572.502,1596.66 574.692,1597.44 576.837,1598.32C580.458,1599.81 583.986,1601.6 587.386,1603.54C592.274,1606.33 597.171,1609.65 601.123,1613.69" style="fill:rgb(102,141,219);"/>
                </g>
                <g transform="matrix(1.07121,0,0,0.842477,-96.9069,153.588)">
                    <path d="M602.496,1611.9C602.676,1610.46 601.995,1608.27 601.982,1606.73C601.946,1602.58 602.363,1598.43 603.192,1594.36C603.911,1590.84 604.908,1587.36 606.285,1584.04C607.775,1580.44 609.69,1577.03 612.045,1573.93C612.297,1573.6 613.918,1571.17 614.558,1571.51C615.621,1572.07 615.994,1575.31 616.193,1576.27C616.428,1577.42 616.589,1578.58 616.699,1579.74C616.893,1581.79 616.958,1583.84 616.881,1585.9C616.56,1594.51 614.175,1603.39 609.711,1610.8C608.494,1612.82 606.477,1616.47 604.082,1617.44" style="fill:rgb(102,141,219);"/>
                </g>
            </g>
            <path d="M504.563,1421.36C507.339,1420.84 510.324,1420.61 513.531,1420.75C514.978,1422.23 516.345,1423.85 517.608,1425.62C527.694,1439.69 527.35,1457.23 516.84,1464.76C506.329,1472.3 489.607,1466.99 479.521,1452.91C477.93,1450.69 476.599,1448.39 475.527,1446.05C476.769,1443.54 478.273,1440.9 480.076,1438.31L486.47,1447.29C487.153,1448.25 488.487,1448.47 489.446,1447.79C490.406,1447.1 490.63,1445.77 489.947,1444.81L482.782,1434.75C484.101,1433.16 485.546,1431.63 487.127,1430.2L496.746,1443.71C497.429,1444.67 498.763,1444.89 499.723,1444.21C500.682,1443.53 500.907,1442.19 500.223,1441.23L490.446,1427.5C493.293,1425.43 496.511,1423.7 500.137,1422.51L507.262,1432.52C507.945,1433.48 509.279,1433.7 510.238,1433.02C511.198,1432.33 511.422,1431 510.739,1430.04L504.563,1421.36Z" style="fill:rgb(253,219,129);"/>
        </g>
    </g>
    <g id="PLANTS-RIGHT" serif:id="PLANTS RIGHT">
        <path d="M1749.19,1565.99C1749.19,1565.99 1722.26,1519.28 1725.02,1487.68C1725.02,1487.68 1742.14,1492.44 1754.96,1511.09C1754.96,1511.09 1739.73,1447.68 1749.19,1421.76C1749.19,1421.76 1776.95,1434.52 1790.25,1464.83C1790.25,1464.83 1771.88,1519.68 1770.08,1572.64L1749.19,1565.99Z" style="fill:rgb(102,141,219);"/>
        <g transform="matrix(-1,0,0,1,2674.11,3.00053)">
            <path d="M492.328,1680.86L1011.95,1683.86C1011.95,1683.86 997.953,1526.56 904.03,1569.64C903.103,1522.43 893.449,1467.48 864.287,1425.12C851.974,1407.24 836.184,1391.61 816.105,1379.75C768.145,1351.42 689.922,1351.8 619.06,1394.88C555.79,1433.34 478.492,1547.94 492.328,1680.86Z" style="fill:none;stroke:rgb(13,46,58);stroke-width:6px;"/>
        </g>
        <g transform="matrix(1,0,0,1,-8.03969,14.1388)">
            <path d="M2106.49,1684.3C2106.49,1684.3 2157.93,1596.58 2220.9,1600.85C2220.9,1600.85 2221.11,1621.43 2199.84,1649.21C2199.84,1649.21 2214.79,1638.76 2241.06,1639.9C2241.06,1639.9 2238.27,1659 2212.44,1686.86L2106.49,1684.3Z" style="fill:rgb(102,141,219);"/>
        </g>
        <g transform="matrix(-0.976721,-0.214515,-0.214515,0.976721,2999.64,210.33)">
            <g transform="matrix(0.878131,0,0,0.918501,43.3575,78.6647)">
                <path d="M574.984,1556.42C575.02,1554.6 573.497,1551.71 573.095,1549.87C572.108,1545.32 571.464,1540.62 571.56,1535.97C571.707,1528.79 573.943,1522.13 577.771,1516.08C578.052,1515.64 581.019,1510.67 581.858,1511.15C584.357,1512.57 584.788,1520.46 585.042,1522.75C586.313,1534.24 584.122,1546.94 575.845,1555.53" style="fill:rgb(102,141,219);"/>
            </g>
            <g transform="matrix(-0.976721,-0.214515,-0.214515,0.976721,2974.93,438.033)">
                <path d="M2187.77,1522.1C2187.77,1522.1 2095.29,1586.65 2058.58,1701" style="fill:none;stroke:rgb(102,141,219);stroke-width:6px;"/>
            </g>
            <path d="M504.563,1421.36C507.339,1420.84 510.324,1420.61 513.531,1420.75C514.978,1422.23 516.345,1423.85 517.608,1425.62C527.694,1439.69 527.35,1457.23 516.84,1464.76C506.329,1472.3 489.607,1466.99 479.521,1452.91C477.93,1450.69 476.599,1448.39 475.527,1446.05C476.769,1443.54 478.273,1440.9 480.076,1438.31L486.47,1447.29C487.153,1448.25 488.487,1448.47 489.446,1447.79C490.406,1447.1 490.63,1445.77 489.947,1444.81L482.782,1434.75C484.101,1433.16 485.546,1431.63 487.127,1430.2L496.746,1443.71C497.429,1444.67 498.763,1444.89 499.723,1444.21C500.682,1443.53 500.907,1442.19 500.223,1441.23L490.446,1427.5C493.293,1425.43 496.511,1423.7 500.137,1422.51L507.262,1432.52C507.945,1433.48 509.279,1433.7 510.238,1433.02C511.198,1432.33 511.422,1431 510.739,1430.04L504.563,1421.36Z" style="fill:rgb(253,219,129);"/>
            <g transform="matrix(1,0,0,1,-27.9675,-48.814)">
                <path d="M573.172,1554.5C572.782,1554.91 571.102,1554.76 570.494,1554.74C567.972,1554.69 565.446,1554.33 562.957,1553.94C555.068,1552.69 546.968,1550.72 540.353,1546.04C538.973,1545.06 537.65,1544.01 536.41,1542.86C535.604,1542.11 532.021,1539.09 532.191,1537.7C532.305,1536.77 534.985,1536.83 535.518,1536.8C539.164,1536.63 542.835,1537.28 546.361,1538.16C549.692,1539 552.926,1540.19 556.076,1541.55C561.013,1543.68 565.659,1546.68 569.512,1550.44" style="fill:rgb(102,141,219);"/>
            </g>
            <g transform="matrix(0.860924,0,0,0.870304,55.9304,156.411)">
                <path d="M603.192,1617.37C603.086,1617.74 600.631,1617.42 600.305,1617.4C597.171,1617.14 594.085,1616.45 591.048,1615.66C582.898,1613.54 574.238,1610.39 568.013,1604.49C565.655,1602.25 563.629,1599.59 562.012,1596.78C561.828,1596.46 560.61,1594.76 560.96,1594.33C561.724,1593.38 565.831,1594.77 566.674,1594.97C567.887,1595.27 569.094,1595.61 570.287,1595.98C572.502,1596.66 574.692,1597.44 576.837,1598.32C580.458,1599.81 583.986,1601.6 587.386,1603.54C592.274,1606.33 597.171,1609.65 601.123,1613.69" style="fill:rgb(102,141,219);"/>
            </g>
            <g transform="matrix(1.07121,0,0,0.842477,-72.1323,195.392)">
                <path d="M602.496,1611.9C602.676,1610.46 601.995,1608.27 601.982,1606.73C601.946,1602.58 602.363,1598.43 603.192,1594.36C603.911,1590.84 604.908,1587.36 606.285,1584.04C607.775,1580.44 609.69,1577.03 612.045,1573.93C612.297,1573.6 613.918,1571.17 614.558,1571.51C615.621,1572.07 615.994,1575.31 616.193,1576.27C616.428,1577.42 616.589,1578.58 616.699,1579.74C616.893,1581.79 616.958,1583.84 616.881,1585.9C616.56,1594.51 614.175,1603.39 609.711,1610.8C608.494,1612.82 606.477,1616.47 604.082,1617.44" style="fill:rgb(102,141,219);"/>
            </g>
        </g>
        <g transform="matrix(1,0,0,1,1092.25,-13.2349)">
            <g transform="matrix(0.973557,-0.228446,0.228446,0.973557,-422.922,225.393)">
                <path d="M691.808,1529.62C691.808,1529.62 682.671,1497.83 702.764,1487.84C702.764,1487.84 714.65,1507.01 691.808,1529.62Z" style="fill:rgb(102,141,219);"/>
            </g>
            <g transform="matrix(1.03923,-0.40577,0.548992,1.40604,-950.773,-302.977)">
                <path d="M688.026,1523.33C688.026,1523.33 664.947,1520.37 658.011,1504.88C658.282,1502.97 684.824,1506.59 688.026,1523.33Z" style="fill:rgb(102,141,219);"/>
            </g>
            <g transform="matrix(1.11564,0,0,1.50942,-133.231,-672.822)">
                <path d="M688.026,1523.33C688.026,1523.33 664.947,1520.37 658.011,1504.88C658.282,1502.97 684.824,1506.59 688.026,1523.33Z" style="fill:rgb(102,141,219);"/>
            </g>
            <g transform="matrix(-0.835971,0.738789,0.999555,1.13104,-307.908,-601.206)">
                <path d="M688.026,1523.33C688.026,1523.33 664.947,1520.37 658.011,1504.88C658.282,1502.97 684.824,1506.59 688.026,1523.33Z" style="fill:rgb(102,141,219);"/>
            </g>
            <g transform="matrix(1,0,0,1,-1092.25,13.2349)">
                <path d="M1651.46,1496.87C1651.46,1496.87 1734.06,1569.3 1754.96,1701.17" style="fill:none;stroke:rgb(102,141,219);stroke-width:6px;"/>
            </g>
            <g transform="matrix(0.692901,-0.721033,0.721033,0.692901,-983.407,962.032)">
                <path d="M672.353,1460.25L672.353,1476.69C672.353,1477.36 672.899,1477.9 673.572,1477.9C674.245,1477.9 674.792,1477.36 674.792,1476.69L674.792,1460.31C677.46,1460.46 680.233,1460.89 683.1,1461.65L683.1,1476.69C683.1,1477.36 683.647,1477.9 684.32,1477.9C684.993,1477.9 685.539,1477.36 685.539,1476.69L685.539,1462.38C687.76,1463.11 690.033,1464.04 692.355,1465.2C692.924,1467.78 693.229,1470.51 693.229,1473.34C693.229,1489.28 683.51,1502.23 671.539,1502.23C659.569,1502.23 649.85,1489.28 649.85,1473.34C649.85,1471.07 650.046,1468.86 650.418,1466.75C652.599,1465.43 654.978,1464.21 657.54,1463.2L657.54,1476.69C657.54,1477.36 658.086,1477.9 658.759,1477.9C659.432,1477.9 659.979,1477.36 659.979,1476.69L659.979,1462.31C661.573,1461.79 663.23,1461.34 664.946,1461L664.946,1471.38C664.946,1472.06 665.493,1472.6 666.166,1472.6C666.839,1472.6 667.385,1472.06 667.385,1471.38L667.385,1460.6C668.994,1460.38 670.65,1460.26 672.353,1460.25Z" style="fill:rgb(253,219,129);"/>
            </g>
        </g>
    </g>
    <g id="PRINKLES">
        <path d="M913.354,476.19L927.41,460.438L950.931,495.368L936.359,507.109L913.354,476.19ZM950.066,427.362L973.491,459.4L987.643,448.986L964.665,411.691L950.066,427.362Z" style="fill:rgb(253,76,61);"/>
        <path d="M1700.85,386.047L1740.1,352.777L1749.19,371.236L1709.98,399.684L1700.85,386.047ZM1655.54,360.905L1677.63,319.064L1693.12,332.886L1670.61,365.736L1655.54,360.905Z" style="fill:rgb(253,76,61);"/>
    </g>
</svg>
